<?xml version="1.0" encoding="UTF-8"?>
<svg id="Layer_1" xmlns="http://www.w3.org/2000/svg" version="1.1" viewBox="0 0 223.6 223.1">
  <!-- Generator: Adobe Illustrator 29.0.0, SVG Export Plug-In . SVG Version: 2.1.0 Build 186)  -->
  <defs>
    <style>
      .st0 {
        fill-rule: evenodd;
      }
    </style>
  </defs>
  <g>
    <path class="st0" d="M1739.3-155.2c.3,35-31.7,50-53.5,35.3-31.9-21.7-13.6-70.4,25.7-65.1v-36.7c-43.8-.3-81.8,22.3-81.8,70.8,0,25,10.6,43.7,28.6,59.9,26.9,20.6,64.3,19,90-.4,19.9-15,29.4-37.4,29.3-62.1,0-8-.7-68.5.2-79.3,7.6,3.6,28.9,22.3,53.9,18.4,0-1.3,0-35.2,0-39.5-38.9-.3-51.2-19-55.4-54.2h-36.8s-.3,153-.3,153h0Z"/>
    <path class="st0" d="M1248.9-116.2c.8-3.4,5.6-21.1,7.7-28.4,1.4-5.1,1.1-5.1-1.3-8.8-14.3-22.5-17.6-51.4-8.8-77.2,23.9-69.6,116.5-83.6,160.4-24.3,32.6,44,19.7,103.5-26.5,131.4-28.5,17.2-64.9,17.8-93.6.6-4.3-2.6-4.4-1.9-9.3-.5-8.9,2.5-24.8,6.5-28.5,7.2h0ZM1222.4-90c13.5-3.5,33-8.5,46.5-12.1,14.6-3.9,10-3.2,22.1,2,34.1,14.5,74.8,9.4,104.8-11,28-20.8,45.7-49,47.4-84.5,2.5-52.3-32.2-99.1-82.9-111.9-55.4-14-115.7,17.5-132.9,75.4-6.8,23-5.8,52.4,4.6,74.4,5.7,12,6.5,8,2.8,21.6-1.7,6.7-11.2,41.5-12.3,46.2h0ZM1279.9-212.6c5.5,14.2,20.7,32,32.1,41.4,12.4,10.2,35.2,23.2,51.9,22.4,22.3-1,28-21.7,24.5-26-3.7-4.6-18.3-10.8-24.9-12.3-5.3-1.2-6.1,1.3-8.7,5.4-1.7,2.7-4.1,6.7-7.3,7.5-5.1,1.3-18.6-8.2-23.5-12-6.4-5-14.1-13.5-17.6-20.9-2.4-5,2.5-5.3,7.3-13.6,1.2-2,1.4-3.5.5-6-2.3-6.6-6.1-14.1-9-20.6-1-2.4-1-3.3-3.3-4.2-20.6-5.7-28.5,21.9-22,38.7h0Z"/>
    <path class="st0" d="M959.4-187.2c-.9,11.3-4.2,24.8-14.4,30.5-16,8.9-46.1-.9-37.5-20,6.9-15.3,39.3-15.3,51.9-10.5h0ZM890.3-230.8c4.7,3.1,11.4,8,15.2,10.6,15-18.9,49.9-16.8,53,12.2-11.1-.5-23-1.5-33.9.1-18.6,2.8-35,14.6-37.2,33.7-2.4,20.5,12.4,35,31.6,39,18.9,3.9,37-1.1,50-18.7,6.6-9.5,8.2-24,9.6-25.9,29.7,11.1,26.7,75-44.8,78.8-51.6,1.2-76.9-28.3-81.2-76.9-4.5-50.9,11.9-92.5,53.8-102.8,50.5-12.4,85.7,8.8,99.9,52.3,2.8-.8,15.7-4.7,17.8-5.2-15.8-66-94.9-86.8-146.6-56.2-46.5,27.6-52.9,100.3-37.3,146.7,17.1,50.9,67.6,70.4,119.2,58.5,44.3-11.6,74.5-60.8,43.7-100.1-7.5-9.3-18.6-14.5-24.2-17.9,0-19.4-10.8-40.1-30.1-46.3-16.2-5.2-47.6-2.9-58.4,18h0Z"/>
    <path class="st0" d="M471.8-175c0-.2,3.3-16.5,3.9-19.5-12.4-12.4-16.4-20.7-13.2-38.4,2.9-16.4,11.9-28.6,24.7-38.6,21.2-16.6,53.3-21.6,77.1-8.3,15.7,8.8,23,21.3,25.2,39.1,2.9,22.7-3.5,49.1-18.9,65.5-8.8,8.2-17.2,12.5-29.8,10.9-7.7-1-13.4-4-16.3-9.1-5.8-10.5,2.4-30.6,5.7-40.6,2.1-6.3,4.3-13.1,5.3-20.1,1.7-12.3-2.8-21.7-16.1-23.5-10-1.4-16,2.8-22.2,10-8,9.3-11.4,29-6.2,42.5,2.5,6.6,3.2,3.1,1.6,9.6-7.8,31.6-19.1,61.1-19.4,94.4,0,3.9.4,21,1.7,23.5,9.6-4.4,20.9-23,25-32.9,5.1-12.4,10-31.4,12.4-45,3.6.7,14.7,11.6,27.1,13.9,34.4,6.3,62.9-14.8,76.2-44.9,14.9-33.7,12.4-78.5-19-102.1-13.8-10.9-29.6-17.7-47.9-20.1-43.2-5.5-90.6,13.1-108.5,54.5-8.6,20-9.2,50.7,7.7,67.3,5.5,5.4,16.8,11.4,23.9,12h0Z"/>
    <path class="st0" d="M192.4-255.4c-42.7,17.6-111.4,46.8-166,70.3-5.5,2.4-20.3,9.4-14.1,16.6,3.5,4,17.2,7.8,24,9.8,8.5,2.4,18.2,5.6,27.6,6,10.5.4,18.2-4.6,24.6-9,16.3-11.2,33.6-23.2,50.2-34,4.1-2.7,22.3-15.8,31.8-20.3,4.8-2.7,10.2-.9,6.1,4.4-12.5,13.2-43.2,40.6-60.1,57.8-5.7,5.8-13.9,13.3-6.8,21.5,4.4,5,13.4,9.8,19.6,14.2l29.8,20.6c8,5.5,24.3,17,33.6,17.3,7.5,0,12.3-6.8,15.1-17.8,5.2-30.2,13.9-79.5,20-115.9,1.3-9.1,7.9-41.5.6-47.6-7.5-6.2-28,3.1-36,6.2h0Z"/>
    <path class="st0" d="M-333.4-213.1c-4,0-6.5.1-10.2-1-2.8-.8-6.2-2.3-9.3-2.4-6.1-.2-13.3,5.2-10.6,11.6,4.8,11,25.3,8.9,27.9,18.1,1.8,6.4-6.6,18.4-10.3,23.5-8.2,11.4-20.4,20.2-34,23.7-2.9.7-6.7,1.2-7.6,3.7-2.9,8.7,13.9,13,19.9,14.3,9.6,2.1,12.3,1.5,13.5,9.6.6,3.8.6,6.4,4.1,7.4,6.4,1.8,22.2-6.2,39.5,3.3,14.7,8.9,18.5,16.8,40.2,17.1,25.9-.4,33.4-17,48.5-20.8,14.2-3.6,24.3,1.7,30.8.4,5.8-1.2,1.9-12.7,8.2-14.9,2.5-.9,6.7-1.5,9.5-2.1,6.4-1.4,16.5-4,19.1-9.6,2.8-6.2-2.6-7.3-7.2-8.8-14.7-4.7-25-10.1-34-23.6-3.5-5.3-12.3-17.9-10.3-23.9,2.1-6.2,12.7-6,22.5-12,2.7-1.6,4.4-3.1,5.6-6,2.5-6.3-4.9-11.5-10.6-11.4-5.6,0-12.9,4.9-19.5,3.4-.4-4.1-.4-9.4.3-16.7,1.3-20.4.5-38.7-14.3-54.8-24.6-26.8-71.5-26.2-96.8-.7-14.2,14.3-17.2,32.7-15.7,53.9.4,5.2,1.6,13.6.9,18.5h0Z"/>
    <path class="st0" d="M-702.4-91.1h44.2s-.3-68.8-.3-68.8c0-22.6,3-40.9,26.7-41.7,24.3-.8,26.6,19.7,26.6,41.7l-.2,68.8h44.5c-.4-31.3.9-63.4.8-94.8-.2-42.4-29.2-63.7-71.8-55.9-11.8,2.3-21.8,10.1-26.6,16.1v-17.3c0,0-44.2.1-44.2.1l.3,151.7h0ZM-731.1-91.1l.3-151.8h-45.9c0,50.1,0,102.3,0,151.9h45.5ZM-753.9-257.8c15,0,27.2-12.2,27.2-27.1s-12.2-27.1-27.2-27.1-27.2,12.2-27.2,27.1,12.2,27.1,27.2,27.1h0Z"/>
    <path class="st0" d="M-1107.5-137.9c0-21.1,0-45.4,0-66l58.2,31.6c-1.5.9-57.3,33.8-58.2,34.4h0ZM-1167.8-244.7c-12.9,2.1-21.7,9.6-24.4,22.8-4.7,23.3-6.8,84.9,2.1,107.5,5,12.7,16.2,16.2,29.4,17.7,39.6,3.2,118.3,5.4,158.1-1.3,13.1-1.9,21.3-10,23.8-23,4.9-26,6-70.6,1-97.4-3.3-16.4-12.5-23.9-25.9-26.8-32.3-6.5-128.2-6.3-164.1.6h0Z"/>
    <path class="st0" d="M-1422.6-96.9c-3.8-5.1-123.9-171.2-125.5-173.3,1.4,0,28.6,0,30.2,0,1.9,2.5,120.5,166.6,125.4,173.3h-30.1ZM-1442.1-201.2c13.8-16,81.8-85.5,87.9-92.9h-32.4c-9.2,10.6-64,67.1-68.1,71.6-5.4-6.8-48.9-68.1-51.4-71.3-28.4,0-57.7,0-86.8-.4,8.9,11.5,84.3,119.9,87.6,124.3-18.4,21.1-85.5,88.8-92.3,96.6h32.7s72.7-76.1,72.7-76.1c8.9,11.4,50.5,70.5,56,76.1,6,0,86.4,0,88.4,0-7.9-10.3-89.3-121.1-94.7-128h0Z"/>
    <path class="st0" d="M-1802.8-273c-55.7-3.3-45.2,18.4-45.8,53.8,11.6,0,37.4,0,44.3,0-2.8,18-6.7,42.5-7.3,46.4-13.2,0-24.9,0-36.3,0,0,22.4-.7,98.9-.9,111.7h-49.3c0-18,0-93,0-111.7-9.9,0-28,0-40.7-.1,0-9.2-.2-30.3,0-46.3,7.2-.2,32.3.2,40.7,0,0-10.3,0-20.1,0-33.2-.1-46.1,30-72.4,95.2-59.4,0,10.9,0,30.7,0,38.7h0Z"/>
    <path class="st0" d="M-2376.5-243.8c2.2-25.3,20.6-45.9,49.1-47.9,12.3,0,94.4,0,111.8,0,25.3.9,46.9,23.7,47.6,48.3.5,17-.1,96.4-.2,114.3-.5,18.3-18.9,42-44.8,45.8-14.6.3-112.4,1-120.1-.1-34.8-8.9-42.1-33.7-43.2-46.9-1.1-6.9-.2-98.6,0-113.4h0ZM-2399.5-127.6c1.4,35.7,33.5,66.2,70.9,67.3l116.6-.2c36.7-1.9,66.3-36.7,66.4-69.4v-114.6c-.7-37.8-34.4-68.4-64.2-69.6l-121.6-.3c-31.5,0-65.2,29.4-67.7,64.2-.7,21.2-.5,101.3-.4,122.6h0ZM-2314.7-187.4c.3-23.7,19.1-42.5,43.1-42.2,23.1.3,41.8,20,41.4,43.2-.4,22.6-18.7,40.9-41.4,41.4-23.6.5-43.4-18.7-43.1-42.4h0ZM-2337.6-187.4c0,36.3,29.5,65.8,66,65.2,35.6-.6,64.1-28.9,64.2-64.7.1-35.5-28.9-64.8-64.2-65.5-36.4.1-65.9,29.1-66.1,65h0ZM-2219.9-254.4c.4,8.1,6.9,14.7,15.2,14.6,8.5,0,15.1-6.5,15.3-14.7.2-8.5-6.5-15.9-15.2-15.7-8.4.1-15.7,7.2-15.3,15.8h0Z"/>
  </g>
  <path class="st0" d="M10.1,182.4c2.9,1.8,6.3,2.9,9.9,2.9h183.5c3.7,0,7.1-1.1,9.9-2.9l-66.2-66.6s0,0-.1-.1l-23.3,20.3c-6.9,6.1-17.3,6.1-24.2,0l-23.3-20.3s0,0-.1.1L10.1,182.4ZM221.2,50.9l-64.8,56.7,64.7,65.1c.6-1.8.9-3.7.9-5.7V56.1c0-1.8-.3-3.5-.7-5.2ZM67.2,107.6L2.4,50.9c-.5,1.7-.7,3.4-.7,5.2v110.9c0,2,.3,3.9.9,5.7l64.7-65.1ZM9.7,41l98.1,85.9c2.3,2,5.8,2,8.1,0l98.1-85.9c-3-2-6.5-3.2-10.4-3.2H20.1c-3.9,0-7.4,1.2-10.4,3.2Z"/>
</svg>