<?xml version="1.0" encoding="UTF-8"?>
<svg id="Layer_1" data-name="Layer 1" xmlns="http://www.w3.org/2000/svg" viewBox="0 0 510.12 497.68">
  <defs>
    <style>
      .cls-1 {
        fill: #191717;
      }
    </style>
  </defs>
  <path class="cls-1" d="M474.96,127.57c-22.71-38.9-53.52-69.7-92.43-92.41C343.61,12.45,301.14,1.09,255.06,1.09s-88.57,11.35-127.49,34.07c-38.9,22.71-69.7,53.51-92.41,92.41C12.45,166.49,1.09,208.98,1.09,255.06c0,55.34,16.15,105.1,48.44,149.29,32.3,44.19,74.02,74.79,125.17,91.76,5.95,1.11,10.37.34,13.22-2.3,2.88-2.65,4.3-5.97,4.3-9.93,0-.65-.06-6.6-.16-17.86-.12-11.23-.18-21.04-.18-29.43l-7.59,1.32c-4.86.89-10.98,1.27-18.35,1.15-7.39-.1-15.06-.87-22.99-2.32-7.95-1.43-15.32-4.72-22.16-9.91-6.84-5.17-11.67-11.95-14.55-20.33l-3.31-7.61c-2.2-5.07-5.67-10.68-10.41-16.86-4.27-5.53-8.57-9.49-12.9-11.83-1.16-.63-2.29-1.31-3.37-2.08l-.43-.3c-1.54-1.11-2.97-2.44-4.3-3.98-1.33-1.53-2.32-3.07-2.97-4.62-.65-1.55-.12-2.82,1.64-3.81,1.01-.58,2.49-.98,4.44-1.22,2.66-.33,5.35-.24,8.01.16l3.77.56c4.4.87,9.87,3.53,16.37,7.93,6.5,4.42,11.85,10.15,16.03,17.2,5.07,9.04,11.18,15.92,18.35,20.67,7.17,4.74,14.39,7.1,21.66,7.1s13.56-.56,18.85-1.64c5.29-1.11,10.24-2.75,14.88-4.96,1.98-14.78,7.39-26.14,16.19-34.07-12.57-1.33-23.86-3.31-33.89-5.97-10.03-2.63-20.39-6.94-31.07-12.9-10.7-5.94-19.58-13.33-26.64-22.14-7.04-8.82-12.84-20.41-17.34-34.72-4.52-14.35-6.78-30.88-6.78-49.6,0-26.68,8.7-49.38,26.12-68.14-8.17-20.06-7.4-42.53,2.32-67.44,6.38-2,15.87-.49,28.44,4.46,12.57,4.96,21.76,9.22,27.6,12.72,5.85,3.53,10.53,6.52,14.05,8.94,20.51-5.73,41.68-8.6,63.5-8.6s42.98,2.87,63.49,8.6l12.57-7.95c8.58-5.29,18.73-10.13,30.42-14.55,11.67-4.4,20.61-5.61,26.79-3.63,9.91,24.92,10.8,47.39,2.64,67.46,17.42,18.73,26.12,41.44,26.12,68.12,0,18.73-2.26,35.32-6.78,49.76-4.52,14.44-10.34,26.02-17.52,34.72-7.17,8.72-16.09,16.04-26.79,22-10.68,5.95-21.05,10.25-31.07,12.88-10.03,2.66-21.32,4.64-33.89,5.97,11.46,9.93,17.18,25.56,17.18,46.95v69.78c0,3.96,1.39,7.28,4.14,9.91,2.75,2.64,7.1,3.43,13.06,2.32,51.15-16.99,92.87-47.56,125.15-91.78,32.31-44.19,48.46-93.95,48.46-149.28-.02-46.06-11.37-88.55-34.07-127.47Z"/>
  <path class="cls-1" d="M179.55,497.68c-1.56,0-3.24-.17-5.05-.51l-.14-.04c-51.11-16.95-93.41-47.96-125.71-92.15C16.37,360.8,0,310.35,0,255.06c0-46.06,11.51-89.13,34.22-128.03,22.7-38.88,53.92-70.11,92.81-92.81C165.93,11.51,209.01,0,255.06,0s89.11,11.51,128.02,34.22c38.9,22.71,70.13,53.93,92.82,92.81h0c22.68,38.9,34.2,81.97,34.22,128.02,0,55.31-16.37,105.75-48.67,149.93-32.25,44.17-74.54,75.19-125.69,92.17l-.14.04c-6.27,1.17-10.99.29-14.01-2.6-2.97-2.84-4.48-6.44-4.48-10.7v-69.78c0-20.94-5.65-36.46-16.81-46.12l-1.9-1.65,2.5-.27c12.51-1.32,23.86-3.32,33.73-5.94,9.88-2.59,20.25-6.89,30.82-12.78,10.53-5.87,19.44-13.18,26.48-21.74,7.03-8.52,12.86-20.08,17.32-34.35,4.47-14.27,6.73-30.9,6.73-49.44,0-26.28-8.69-48.94-25.83-67.37l-.47-.51.26-.65c7.95-19.56,7.13-41.81-2.45-66.16-5.91-1.68-14.51-.42-25.59,3.76-11.65,4.4-21.82,9.26-30.23,14.45l-12.97,8.2-.47-.13c-20.34-5.68-41.6-8.56-63.2-8.56s-42.87,2.88-63.21,8.56l-.49.14-.42-.29c-3.7-2.54-8.41-5.54-14-8.9-5.88-3.53-15.11-7.78-27.44-12.64-11.97-4.72-21.12-6.26-27.21-4.58-9.38,24.33-10.1,46.57-2.13,66.13l.26.64-.47.51c-17.14,18.45-25.83,41.12-25.83,67.39,0,18.53,2.26,35.11,6.73,49.27,4.43,14.1,10.2,25.66,17.15,34.37,6.95,8.67,15.81,16.03,26.31,21.86,10.55,5.9,20.92,10.2,30.82,12.8,9.87,2.62,21.22,4.61,33.73,5.94l2.44.26-1.82,1.64c-8.57,7.72-13.91,18.96-15.84,33.4l-.08.59-.53.25c-4.67,2.22-9.76,3.91-15.12,5.04-5.39,1.11-11.81,1.67-19.07,1.67s-14.95-2.45-22.27-7.28c-7.28-4.82-13.57-11.9-18.7-21.05-4.06-6.84-9.34-12.51-15.69-16.83-6.36-4.31-11.73-6.92-15.97-7.76l-3.72-.56c-2.69-.4-5.28-.45-7.71-.16-1.8.22-3.16.59-4.02,1.08-1.65.92-1.48,1.74-1.18,2.43.61,1.45,1.55,2.9,2.79,4.33,1.29,1.5,2.64,2.75,4.11,3.81l.42.3c.98.7,2.05,1.35,3.26,2.01,4.44,2.4,8.9,6.48,13.25,12.12,4.86,6.34,8.31,11.93,10.54,17.1l3.34,7.69c2.79,8.15,7.56,14.81,14.17,19.82,6.65,5.05,13.95,8.32,21.69,9.7,7.82,1.43,15.49,2.2,22.81,2.3,7.31.11,13.41-.27,18.14-1.13l8.88-1.55v1.3c0,8.32.06,18.22.18,29.41.05,5.9.09,10.34.12,13.33.03,2.72.04,4.23.04,4.54,0,4.27-1.57,7.88-4.65,10.73-2.21,2.05-5.26,3.08-9.1,3.08ZM174.97,495.04c5.53,1.02,9.64.34,12.2-2.04,2.66-2.45,3.95-5.44,3.95-9.13,0-.31-.01-1.82-.04-4.52-.03-2.99-.07-7.43-.12-13.33-.12-10.63-.18-20.08-.18-28.14l-6.31,1.1c-4.85.89-11.1,1.28-18.56,1.17-7.44-.1-15.23-.89-23.17-2.34-8.08-1.45-15.69-4.85-22.62-10.11-6.95-5.26-11.97-12.26-14.9-20.81l-3.3-7.57c-2.13-4.93-5.59-10.53-10.27-16.64-4.16-5.4-8.39-9.28-12.56-11.53-1.29-.7-2.43-1.4-3.48-2.14l-.43-.31c-1.6-1.15-3.11-2.55-4.49-4.16-1.38-1.59-2.45-3.24-3.15-4.9-.51-1.21-.92-3.49,2.11-5.18,1.13-.65,2.71-1.09,4.84-1.35,2.62-.32,5.42-.27,8.3.16l3.77.56c4.58.91,10.22,3.63,16.82,8.11,6.62,4.5,12.13,10.41,16.36,17.55,4.97,8.86,11.03,15.69,18.01,20.32,6.95,4.59,14.03,6.92,21.06,6.92s13.38-.55,18.63-1.62c4.99-1.05,9.73-2.6,14.1-4.62,1.94-13.71,6.89-24.62,14.74-32.5-11.7-1.33-22.36-3.26-31.71-5.74-10.08-2.65-20.62-7.02-31.33-13-10.75-5.97-19.82-13.51-26.95-22.41-7.12-8.92-13.02-20.72-17.53-35.08-4.53-14.38-6.83-31.18-6.83-49.93,0-26.6,8.73-49.6,25.94-68.37-7.96-20.07-7.1-42.81,2.57-67.6l.19-.49.5-.16c6.66-2.09,16.2-.62,29.16,4.49,12.44,4.91,21.78,9.22,27.77,12.8,5.41,3.26,10.02,6.18,13.69,8.69,20.38-5.64,41.68-8.5,63.3-8.5s42.93,2.86,63.32,8.51l12.16-7.69c8.54-5.27,18.84-10.19,30.62-14.64,11.86-4.47,21.11-5.69,27.51-3.65l.49.16.19.48c9.87,24.81,10.84,47.56,2.89,67.63,17.21,18.75,25.94,41.75,25.94,68.35,0,18.76-2.3,35.61-6.83,50.09-4.55,14.54-10.51,26.34-17.72,35.09-7.21,8.77-16.33,16.25-27.1,22.26-10.74,5.98-21.28,10.34-31.33,12.98-9.34,2.47-19.98,4.4-31.66,5.73,10.46,10.16,15.76,25.66,15.76,46.13v69.78c0,3.64,1.28,6.71,3.8,9.12,2.48,2.37,6.53,3.06,12.03,2.05,50.67-16.84,92.58-47.58,124.54-91.36,32.01-43.79,48.25-93.8,48.25-148.64-.02-45.65-11.43-88.36-33.92-126.92h0c-22.5-38.55-53.46-69.51-92.03-92.02C343.41,13.6,300.71,2.18,255.06,2.18s-88.37,11.41-126.94,33.92c-38.55,22.51-69.51,53.47-92.02,92.02C13.6,166.69,2.18,209.39,2.18,255.06c0,54.83,16.23,104.84,48.22,148.65,32.01,43.8,73.92,74.53,124.56,91.34Z"/>
</svg>