<?xml version="1.0" encoding="UTF-8"?>
<svg id="Logo" xmlns="http://www.w3.org/2000/svg" viewBox="0 0 724 739.98">
  <path id="Bottom" d="M724,558.8v156.92c0,11.29-8.93,20.44-19.99,20.44h-97.12c-11.22,0-20.22-9.23-20.22-20.67v-156.69c0-53.78-32.5-99.71-78.5-118.7-14.65-6.1-30.59-9.46-47.38-9.46-11.9,0-23.42,1.68-34.33,4.81v187.21c0,43.86-25.79,83.23-64.85,98.94-22.81,9.08-47.15,15.1-72.48,17.32-7.55.76-15.18,1.07-22.89,1.07-47.07,0-91.32-12.82-129.7-35.32C60.41,660.26,7.16,577.79.06,481.67c-.92-11.98,8.32-22.05,19.76-22.05h98.57c9.61,0,18,7.4,19.3,17.39,6.1,46.15,36.39,84.45,77.36,101.31,14.65,6.1,30.59,9.46,47.38,9.46,9.16,0,18.08-.99,26.7-2.9v-177.14c0-11.21,1.45-22.12,4.27-32.57,9.61-35.32,34.48-64.77,68.21-78.35,20.52-8.24,42.27-13.88,64.85-16.55,9.99-1.22,20.22-1.83,30.52-1.83,47.07,0,91.32,12.82,129.7,35.32,3.81,2.21,7.63,4.58,11.29,7.02,59.05,38.52,102.69,100.62,119.02,173.93,4.58,20.6,7.02,42.03,7.02,64.08Z"/>
  <path id="Top" d="M426.46,19.76v213.07c-59.66,1.6-111.01,22.5-137.33,52.64V19.91c0-10.99,8.93-19.91,19.91-19.91h97.65c10.91,0,19.76,8.85,19.76,19.76Z"/>
</svg>