<?xml version="1.0" encoding="UTF-8"?>
<svg id="Layer_2" data-name="Layer 2" xmlns="http://www.w3.org/2000/svg" viewBox="0 0 206.39 206.39">
  <defs>
    <style>
      .cls-1 {
        fill: #ddd;
      }
      .cls-2 {
        fill: #3c2415;
      }
    </style>
  </defs>
  <g id="_ëîé_1" data-name="‘ëîé_1">
    <g>
      <rect class="cls-2" width="206.39" height="206.39" rx="51.47" ry="51.47"/>
      <g>
        <path class="cls-1" d="M103.2,142.27c-21.55,0-39.08-17.53-39.08-39.07s17.53-39.08,39.08-39.08,39.07,17.53,39.07,39.08-17.53,39.07-39.07,39.07Zm0-65.14c-14.37,0-26.07,11.69-26.07,26.07s11.69,26.07,26.07,26.07,26.07-11.69,26.07-26.07-11.69-26.07-26.07-26.07Z"/>
        <path class="cls-1" d="M139.54,179.24H66.85c-21.89,0-39.7-17.81-39.7-39.7V66.85c0-21.89,17.81-39.7,39.7-39.7h72.69c21.89,0,39.7,17.81,39.7,39.7v72.69c0,21.89-17.81,39.7-39.7,39.7ZM66.85,40.15c-14.72,0-26.7,11.98-26.7,26.7v72.69c0,14.72,11.98,26.7,26.7,26.7h72.69c14.72,0,26.7-11.98,26.7-26.7V66.85c0-14.72-11.98-26.7-26.7-26.7H66.85Z"/>
        <circle class="cls-1" cx="143.36" cy="62.36" r="8.98"/>
      </g>
    </g>
  </g>
</svg>
