<?xml version="1.0" encoding="UTF-8"?>
<svg id="Layer_1" data-name="Layer 1" xmlns="http://www.w3.org/2000/svg" version="1.1" viewBox="0 0 557.6 626.9">
  <defs>
    <style>
      .cls-1 {
        fill: #3c2415;
      }

      .cls-1, .cls-2, .cls-3, .cls-4 {
        stroke-miterlimit: 10;
      }

      .cls-1, .cls-4 {
        stroke: #3c2415;
      }

      .cls-2 {
        stroke-width: 2px;
      }

      .cls-2, .cls-3 {
        fill: #478e78;
        stroke: #478e78;
      }

      .cls-3 {
        stroke-width: 3px;
      }

      .cls-4 {
        fill: none;
      }
    </style>
  </defs>
  <g id="_2" data-name=" 2">
    <path class="cls-4" d="M272.1,486.4v.4l3.8-2.3c-.3-.1-.5-.4-.5-.7-1.4-8.1-8.3-13.1-15.9-12.9-2.7,0-5.7,0-7.6-2.3s-1.8-5.5-.8-8.2c1.9-5.3,5.9-10.2,10-14.2-7.1-3.8-12.8-9.9-18.4-15.6-5.7-5.7-11.4-11.6-16.6-17.9-2.8-3.4-5.5-6.9-8.1-10.6-4.8,6.7-5.1,15.8-2.5,23.5,2.7,8.1,8.4,14.6,14.4,20.2.9.8-.3,2.3-1.2,1.6-3.1-2.1-6.5-3.8-9.9-5.2,1.4.8,2.7,1.7,4,2.6.2.1.2.9,0,.7-2.7-1.4-5.3-3-7.9-4.7-1.8-.5-3.5-1-5.3-1.4.6.5,1.2,1,1.7,1.6.1.1.1.9-.1.8s-.7-.4-1-.6-.7-.4-1-.7c-.7-.4-1.3-.8-2-1.2-.4-.2-.7-.3-1.1-.5-2.4-.4-4.8-.6-7.2-.7l1.1.7c1.2.8,2.4,1.6,3.5,2.6.1.1.1.8-.1.6-1.2-.6-2.4-1.3-3.5-2.2l-2.6-1.9h-4.8c.5.3.9.6,1.3,1s1,.8,1.5,1.3c.6.4,1,1,1.3,1.6,0,.1,0,.6-.2.6s-.5-.3-.7-.5-.5-.4-.7-.7c-.5-.4-.9-.9-1.5-1.3-.9-.7-1.9-1.4-2.9-2-1.2,0-2.5.1-3.7.2.3.2.5.3.8.5.5.4,1,.8,1.4,1.2s.5.5.7.7.4.5.6.8c.1.1,0,.8-.2.6s-.5-.4-.7-.6l-.6-.6c-.4-.4-.9-.8-1.4-1.2-.6-.5-1.2-.9-1.9-1.3-1.6.1-3.2.3-4.8.5.5.3,1.1.6,1.5.9,1.3.8,2.3,1.9,3.1,3.2,0,0,0,.5,0,.4-.6-.3-1.1-.7-1.5-1.2-.5-.5-1.1-.9-1.7-1.4-.9-.7-1.8-1.3-2.8-1.8-1.4.2-2.9.4-4.3.6h0l1.2.7c.6.3,1.1.6,1.7,1,.6.4,1.2.8,1.6,1.3,0,.1.2.7,0,.7-.6,0-1.2-.3-1.7-.7-.6-.3-1.1-.6-1.7-1-.9-.6-1.9-1.1-2.8-1.8-1.6.3-3.3.6-4.9,1l.9.6c1,.6,1.9,1.4,2.6,2.3,0,.1.2.8-.1.6-.5-.3-.9-.6-1.3-.9-.4-.3-.9-.7-1.3-1-.6-.5-1.3-.9-2-1.3-1.8.4-3.5.9-5.2,1.5.9.5,1.9,1,2.7,1.6.6.3,1.1.7,1.7,1.1.6.4,1.1.8,1.6,1.3s.2.8-.1.7c-.6-.3-1.2-.6-1.7-1l-1.6-1c-1.1-.7-2.2-1.4-3.4-2.1,0,0-.1-.1-.2-.2-.9.3-1.7.7-2.6,1,.6.3,1.2.7,1.8,1.1.9.6,1.6,1.3,2.3,2.1,0,.2.1.3,0,.5,0,0-.1.4-.2.2-.4-.3-.7-.7-1.1-1s-.8-.6-1.2-1c-.8-.6-1.7-1.1-2.6-1.5h0l-3,1.5c.8.6,1.6,1.3,2.4,2,.9.7,1.7,1.6,2.3,2.6,0,0,0,.7-.1.5-.4-.3-.8-.6-1.2-1s-.8-.7-1.2-1.1c-.8-.8-1.7-1.5-2.5-2.2-.1-.1-.2-.3-.2-.5-.6.4-1.2.7-1.8,1.1s-1.1.8-1.6,1.2c.8,1,1.5,1.9,2.3,2.8.6.6,1.1,1.2,1.6,1.8s1.1,1.2,1.6,1.9c0,0,.1.6,0,.5-.6-.4-1.2-.9-1.8-1.4s-1.1-1.1-1.6-1.6c-.9-1.1-1.9-2.2-2.8-3.3-1.2,1-2.3,2-3.3,3.2.8,1.3,1.6,2.5,2.6,3.6,1,1.2,2.2,2.3,3.3,3.5.1.1.1.8-.1.6-1.3-.9-2.5-2-3.5-3.2s-2-2.6-2.8-4c-1.2,1.5-2.3,3.1-3.2,4.8.9,1.4,1.9,2.6,3,3.8,1.5,1.4,3.1,2.7,4.7,3.9.1,0,.1.6-.1.5-.9-.4-1.8-1-2.5-1.7-.8-.6-1.5-1.3-2.3-2.1-1.1-1.2-2.2-2.5-3.1-3.9-.8,1.6-1.4,3.3-1.9,5,1.2,1.7,2.5,3.2,3.9,4.7.8.9,1.7,1.7,2.6,2.6s1.9,1.6,2.7,2.5c0,0,.1.7-.1.6-1-.6-2-1.4-2.8-2.3-.9-.8-1.7-1.7-2.6-2.6-1.4-1.5-2.7-3.2-3.8-4.9-.3,1.1-.4,2.2-.5,3.3-.1,1.1-.1,2.3,0,3.5.1,0,.2.1.4.2.2.2.4.4.7.6.4.4.8.8,1.2,1.2.9.8,1.8,1.6,2.7,2.2,1,.7,2,1.4,3,2,.5.3.9.5,1.5.8.5.2,1,.5,1.5.9.1.1.2.7,0,.7-.6,0-1.1-.2-1.6-.5-.5-.2-1.1-.5-1.6-.8-1-.6-2-1.2-3-1.9-1-.7-1.9-1.5-2.7-2.3-.4-.4-.9-.8-1.3-1.3-.2-.2-.4-.4-.5-.6,1.3,6.7,6.1,12.1,12.4,14,8.2,2.6,17.7,1.4,25.9-.5,17.2-4.1,33.5-15.5,51.8-12.7,8.2,1.3,15,6.3,22.7,9,4.1,1.4,7.7,1.4,11.9,1,3.1-.4,6.5.4,7.6,3.9h-.6ZM218.9,406.6c1.2,1.8,2.4,3.5,3.8,5.2.7.8,1.3,1.7,2,2.5s1.5,1.6,2.1,2.5c.1.1.1,1-.1.8-.8-.7-1.5-1.5-2.2-2.4-.7-.8-1.4-1.7-2-2.5-1.3-1.8-2.6-3.6-3.7-5.5-.2-.2,0-1,.2-.7h-.1ZM223.6,433.7c-2-1.3-3.8-3.1-5.1-5.2-1.5-2.1-2.5-4.4-3.2-6.9v-.6c.1-.1.2-.1.3,0,.8,2.3,1.9,4.5,3.3,6.5,1.4,2,3.1,3.9,4.8,5.6.2.1.2.8,0,.7h-.1ZM225.3,429.4c-1.1-.8-2.1-1.7-2.9-2.8-.9-1.1-1.8-2.2-2.5-3.4-1.6-2.4-2.9-4.9-3.9-7.6v-.7c0-.1.2-.2.3,0,1.1,2.6,2.4,5,4,7.3s3.5,4.3,5.2,6.6c0,0,.1.7-.1.6h-.1ZM227.8,424.9c-1.2-.7-2.4-1.6-3.3-2.7-1-1-1.9-2.2-2.8-3.3-1.8-2.4-3.3-5-4.5-7.9,0-.2,0-.9.2-.5,1.3,2.6,2.8,5.1,4.6,7.4.9,1.2,1.9,2.3,2.9,3.3s2.1,2,3.1,3.1c0,.1,0,.6-.1.5h0ZM233.1,430.2c1.1,1,1.8,2.3,2.2,3.7.6,1.8,1.1,3.6,1.6,5.5,1.2,4.1,2.6,8.2,3.5,12.5,0,.2-.1,1.2-.3.6-1.3-3.5-2.3-7.2-3.3-10.8-.5-1.9-1.1-3.8-1.6-5.7-.3-1.7-1.1-3.2-2.2-4.5-.3-.2-.1-1.6.1-1.3h0ZM252,473.9c-3-2-6.2-3.6-9.5-4.9-4-1.5-8.1-2.7-12.2-3.7-7.8-1.9-15.7-3.1-23.6-3.4-7.9-.3-15.7,0-23.5.6-3.8.3-7.5.7-11.3,1.5-3.8.9-7.6,2.2-11.3,3.6-.3,0-.3-.7-.1-.8,5.6-3.6,13-4.7,19.4-5.4,12.6-1.4,25.4-2.1,38.1-.4,6.3.8,12.6,2.2,18.7,4.1,5.1,1.5,12.2,3.1,15.6,7.7.1.2.2,1.5-.3,1.2h0Z"/>
    <path class="cls-4" d="M342.7,242c6.5-.6,16.2-2.1,19.5-9,3.8-7.9-4-15.4-10.5-17.5-3.8-1.1-7.8-1.7-11.8-1.8-4.4-.3-8.8-.6-13.2-.8-.2,0-.4-.1-.6-.3l-.6.2c-13,5-26.3,10.5-36.1,21.1.7.3,1.4.6,2,1,1.2.9,2.1,2.2,2.8,3.6,0,.1,0,.2.1.3,7.2-3.9,15.5-2.3,23.1-.2,8.4,2.3,16.5,4.1,25.3,3.3h0ZM302.1,231.1c-.2.1-.3-.7-.1-.8,7.5-5.4,16.9-8.3,25.9-9,4.5-.3,8.9.3,13.2,1.9,4.4,1.5,9.3,3.2,13.6.7.5-.3.7,1.7.3,2-3.7,2.3-7.8,1.6-11.8.3-4.6-1.6-8.8-3.1-13.8-2.9-9.7.3-18.6,3.6-27.3,7.9h0ZM312.9,231.7c-.2,0-.3-.7,0-.8,6.4-2.9,12.3,3.5,18.7,2.3-.3-.6-.6-1.2-.8-1.9,0-.2-.2-1.6.3-1.4,2.3,1,4.8,1.7,7.3,1.8,1.9.1,4.2.2,5.9-.9.2-.1.2.6.2.7-.2.9-.9,1.5-1.7,1.7-1.2.3-2.5.3-3.8.2-2.4-.1-4.7-.6-7-1.5.2.4.4.9.6,1.3.1.3.3,1.3-.2,1.4-6.8,1.3-12.8-5.3-19.4-3h-.1Z"/>
    <path class="cls-4" d="M358.1,161.5c-4.2,6.7-8.8,13.1-14,19,0,.1-.2.2-.3.3l2.3.5c5.4,1.3,13.6,2.8,12.9,10.5-.2,1.9-.9,3.8-2,5.3,6.3,1.4,12.8.3,19,1.9,1.8.5,3.5,1.2,5.1,2.1,2.7-2.3,5.1-4.9,7.2-7.9,1-1.5,1.9-3,2.6-4.6.4-.9.8-1.7,1.1-2.6.2-.8.5-1.6.9-2.3.3-.4.4.6.4.7-.3,1.8-.9,3.6-1.8,5.3-.8,1.7-1.7,3.3-2.7,4.8-1.8,2.8-4.1,5.1-6.8,7l.4.2c2.1-2.2,4.4-4.2,6.8-6,1.2-.9,2.5-1.8,3.8-2.6,1.2-.7,2.5-1.3,3.9-1.8.2,0,.3.9,0,1-1.3.9-2.6,1.8-4,2.6s-2.5,1.6-3.8,2.5c-2.1,1.5-4.1,3.1-6.1,4.7,2.2,1.5,4.1,3.3,5.8,5.4,5.3,6.7,7.8,15.2,7.2,23.8,6.1-6.1,12-12.7,16.2-20.5,7.2-13.4,7.9-30.9-3.3-41.7.1.3,0,1,0,1.2-.8.7-1.6,1.3-2.5,1.9-.8.5-1.5,1.1-2.3,1.6s-1.5,1-2.3,1.5c-.7.6-1.5,1.1-2.4,1.5-.2,0-.2-.8,0-.9.8-.7,1.5-1.3,2.4-1.9.8-.6,1.5-1.2,2.3-1.8s1.6-1.1,2.4-1.7c.7-.6,1.5-1.1,2.3-1.5h0c-.6-.6-1.3-1.2-2-1.7-6.1-4.8-13.2-7-20.4-7.8.2.4.2,1,0,1.4-.8.7-1.8,1.3-2.7,2s-1.6,1.3-2.4,2-1.6,1.4-2.4,2.1c-.4.4-.8.7-1.2,1.1-.3.4-.7.7-1.1,1-.3.2-.3-.9-.2-1.1.7-.9,1.4-1.7,2.2-2.5.8-.8,1.5-1.5,2.4-2.2s1.7-1.4,2.6-2c.8-.7,1.7-1.2,2.6-1.7-3.5-.3-7-.4-10.6-.2h0c-1.4,1.3-2.8,2.6-4.2,3.8-.7.6-1.4,1.3-2.2,1.9l-1.1.9c-.3.3-.7.6-1.1.8-.3.1-.3-.8-.2-1,.6-.7,1.4-1.4,2.1-2l2.1-1.8c1-.9,2-1.7,3-2.5-2.1.2-4.3.4-6.4.6v.6c-1.3,1.1-2.5,2.3-3.8,3.4l-1.9,1.7-.9.9c-.3.3-.6.5-.9.7-.3.1-.3-.8-.2-1,.6-.7,1.2-1.3,1.9-1.8l1.9-1.7c1.1-.9,2.1-1.8,3.2-2.7-1.3.2-2.6.3-3.9.5v.5c0,.3-.2.5-.4.7-.2.2-.4.4-.6.5-.4.3-.8.7-1.2,1-.8.7-1.6,1.5-2.3,2.3-.3.4-.7.8-1,1.2s-.6.8-.9,1.1c-.2.1-.2-.2-.2-.3v-.7c.4-.7.9-1.4,1.4-2.1.5-.6,1-1.2,1.6-1.7s1.1-1.1,1.7-1.6c.3-.3.6-.5.9-.7h0l-3.9.6h-.3.3ZM414.7,191.2c-.6,1-1.4,2-2.2,2.8-.4.4-.8.8-1.3,1.1-.4.3-.9.6-1.4.8-.1,0-.2-.4-.2-.5,0-.2,0-.4.1-.6.4-.4.9-.8,1.4-1.2s.8-.7,1.2-1.1c.8-.8,1.5-1.7,2.2-2.6.2-.3.3,0,.3.2v1h-.1ZM415.3,182.7v.7c-.9,1.3-1.9,2.5-3,3.7-.5.6-1.1,1.1-1.6,1.7-.6.5-1.2,1-1.8,1.4-.2.2-.3-.9-.1-1,.6-.6,1.1-1.2,1.7-1.7s1.1-1,1.6-1.6c1.1-1.1,2.1-2.2,3-3.4.1-.1.2.2.2.3h0ZM413.6,178.6c0,.2,0,.6-.1.7l-3,2.8c-.5.5-1,.8-1.5,1.2s-1,.8-1.5,1.2c-.2.1-.2-.6,0-.7.5-.6,1-1.1,1.5-1.6s.9-1,1.5-1.4l3.1-2.6c.2-.1.3.3.3.4h-.3ZM405.7,177.3c.4-.4.8-.8,1.3-1.1l1.2-.9c.4-.3.8-.6,1.2-.9.2-.2.4-.3.7-.4.2,0,.4-.2.7-.3.1,0,.2.4.2.5,0,.2,0,.5-.1.6-.4.4-.8.8-1.3,1.2l-1.2.9-1.2.9c-.4.3-.8.6-1.3.8-.2,0-.2-.5-.2-.5,0-.2,0-.5.1-.7h-.1ZM401.2,167.7c1.1-.7,2.2-1.4,3.3-2,.3-.2.5,1.2.2,1.4-1.1.7-2.2,1.5-3.3,2.2-.5.4-1.1.8-1.6,1.1-.5.4-1,.8-1.6,1-.3,0-.3-1-.1-1.2.5-.5,1-1,1.6-1.4.5-.4,1-.7,1.6-1.1h-.1ZM398.2,164.8c-1.8,1.3-3.7,2.4-5.5,3.7-.9.6-1.8,1.3-2.6,2s-1.7,1.1-2.6,1.8c-.2.1-.3-.7-.1-.9.9-.8,1.7-1.7,2.6-2.5s1.7-1.3,2.5-2c1.7-1.3,3.6-2.5,5.5-3.4.3-.2.4,1.1.2,1.3h0ZM381,169.5c1.6-1.8,3.4-3.5,5.4-4.9,1.9-1.4,3.8-2.7,5.9-3.8.4-.2.5,1.4.2,1.6-2,1.1-4,2.4-5.9,3.8-.9.7-1.9,1.4-2.8,2.1s-1.7,1.4-2.7,2c-.2,0-.2-.7,0-.9h-.1ZM371.3,167.1c2.8-3.1,6.1-5.7,9.7-7.7.3-.1.3.9.1,1.1-1.7,1.2-3.4,2.5-5,3.8s-3.1,2.6-4.7,3.8c-.2.1-.3-.9-.1-1.1h0Z"/>
    <path class="cls-4" d="M299.1,258.7c2.2-4.8,7.4,0,11,4.2.9-7.8,0-15.7-2.3-23.1-.4-.1-.6-.5-.7-.9v-.2c-4.1-.5-8.4.2-12.1,2.2,1.3,5.2-.1,10.7-3.8,14.4,2.3,10.7,4.2,21.5,6,32.4,1.3,8.3,2.6,16.6,3.8,24.9,4.3-8.3.8-19.1-.9-27.7-1-4.5-1.6-9-2-13.5-.2-2.5-.1-4.9,0-7.4,0-1.8.4-3.6,1-5.4h0Z"/>
    <path class="cls-4" d="M319.5,535.5c.5,1.3,1.4,2.4,2.5,3.1,1,.3,2,.4,3,.2l3.4-.2c1.9,0,4.1-.2,5.4-1.7,1-1.2,1.4-2.9.9-4.4-5.2-1.9-11-.7-15.2,3.1h0Z"/>
    <path class="cls-4" d="M297.8,471.6c-3.6,3-7.4,5.8-11.3,8.4-7.2,4.9-14.6,9.3-21.9,14s-14.9,9.9-21,16.3c-6.2,6.4-9.4,15.4-8.6,24.6.6,5,2.1,9.8,4.3,14.3,1.4,3,3.9,8.8,7.8,8.6.1,0,.3-.2.5-.2.3,0,.6,0,.9-.2,0,0,.2,0,.3,0,.2,0,.5,0,.7,0,7.7-1.7,14.3-7.3,18.3-14.4,4.3-7.7,5.6-16.9,5-25.6-.2-2.4-.4-4.7-.8-7-.3-1.5-.6-3.1,0-4.5s1.9-1.8,3.2-2.3c2-.8,4.1-1.5,6.1-2.4,7.7-3.3,14.6-7.9,19.9-14.5,4.7-5.9,8-12.9,9.7-20.4-5-1.3-9.4,2.3-13.1,5.3h0ZM263.5,507.8c-1.5,3.6-3.7,6.8-5.7,10-2.2,3.4-4,7.1-5.5,10.9-1.5,3.9-2.6,8-3.4,12.1-.7,4-.6,8.1-1,12.1,0,.3-.2.3-.2,0-.6-3.7,0-7.8.5-11.4.6-4,1.6-8,2.9-11.9,1.3-4,3.1-7.8,5.2-11.4,2.3-3.9,5-7.5,6.8-11.6.4-.8.6.8.5,1.2h0ZM273.2,502.3h-.6c-.2,0-.5,0-.7.2-.5.2-.9.5-1.4.7-.4.2-.8.3-1.2.1-.6-.3-.9-1-.9-1.7s.3-1.6.9-2.2c.6-.7,1.2-1.3,1.9-2,.3-.4.7-.7,1-1.1h0c-.5-.2-1-.2-1.4,0-1.5.6-2.9,1.4-4.2,2.3-.2.1-.3-.3-.3-.4,0-.2,0-.5.1-.7.7-.7,1.4-1.4,2.3-1.8.7-.4,1.5-.8,2.3-1,.5-.2,1.1,0,1.5.2.5.7.6,1.6.2,2.4-.2.3-.5.7-.8.9l-.9,1.1c-.3.3-.7.7-.9,1-.3.3-.6.6-.8,1,0,0-.1.2-.2.3h0c.1.2.3.3.5.3.4,0,.9-.2,1.2-.4.4-.3.8-.5,1.3-.6s.9.1,1.1.6c0,0,.1.7-.1.7h.1Z"/>
    <path class="cls-4" d="M318.7,532.3h-.1l.3,1,.7-.5c-.3,0-.6-.3-.9-.5Z"/>
    <path class="cls-4" d="M300,467.1c.4-.3.9-.6,1.3-.9h0c-.5-1.7-.9-3.2-1.4-4.8-4.7,5.6-9.4,11.1-14.2,16.6.8-.6,1.7-1.1,2.5-1.7,4.1-2.9,7.9-6.3,11.9-9.2h0Z"/>
    <path class="cls-4" d="M294,436.4c1.7-3.7,3.6-7.3,5.7-10.8-1.1-9.6-2.1-19.1-3.2-28.7-.5-4-1.3-8-1.9-12-.1,5.1-.8,10.1-1.9,15-2.8,12.8-8.5,25.5-6.5,38.9,0,.2,0,.5-.1.7,1.9,1.7,3.3,3.9,4,6.4,1.2-3.2,2.4-6.4,3.9-9.5Z"/>
    <path class="cls-4" d="M292.9,241c0-.1-.1-.3-.1-.4-.2-.5-.4-.9-.6-1.4-1.4-2.6-3.7-3.3-6.1-4.3-1.3,1.8-3,3.3-4.5,5s-2.8,3.5-4.1,5.4c-2.7,3.8-5,7.9-7.7,11.6-.2.3-.3-.6-.2-.8,2.3-4.3,4.8-8.4,7.6-12.3,1.4-2,2.8-3.9,4.4-5.7.7-.8,1.4-1.6,2.1-2.4.4-.4.8-.8,1.2-1.2-.3-.1-.6-.3-.8-.4-1.5-.9-3-1.7-4.7-2.2-1.8-.4-3.7-.3-5.6.2-6.4,1.4-12.3,5.8-14,12.7-1.8,7.1,2.5,12.8,6.9,17.7,6.5-2.8,13.9-2.7,20.1-6.4,5.1-3,8-9.3,6-15.2h.1ZM269,244.7c-.6,0-1.4.2-1.7-.5-.5-1.4.8-2.6,1.6-3.5,1.2-1.2,2.4-2.2,3.8-3.1,1.2-.9,2.6-1.6,4-2.1.3,0,.3,1,0,1.1-1.1.7-2.2,1.2-3.3,1.9-1,.7-2,1.4-3,2.2-.5.4-.9.8-1.4,1.3-.5.4-.9.8-1.2,1.3-.1.2,0,0,.2,0h.4c.3,0,.7,0,1-.1.7-.1,1.4-.3,2-.5.4-.1.3,1.2.1,1.4-.8.7-2.3,1.8-1.8,3.1v.8c0,.1-.2.4-.3.2-.6-1.2-.6-2.6.2-3.7-.3,0-.6.1-.9.2h.3ZM285.4,249.9c-.2,1.5-.8,3.1-2.2,3.6-1.1.5-2.4,0-2.9-1.2-.2-.4-.2-.8-.1-1.2,0,0,0-.2.2-.3s.3.2.4.3c.2.1.4.3.6.4.5.2,1,.3,1.5.2,1.4-.3,1.9-1.8,1.9-3.1s0-.8.3-.9.4.2.5.4c.1.5,1.2.2,1.4,0,.6-.5.3-1.6.3-2.3-.2-2.1-.5-4.1-.6-6.2,0-.6.4-1,.5-.2.2,1.5.4,2.9.5,4.5.2,1.3.3,2.6.3,3.9s-.5,2.1-1.4,2.3c-.4.1-.8,0-1.1-.2h0Z"/>
    <path class="cls-4" d="M291.1,174.4c.3.5.6,1,.7,1.6,0,.1,0,.4-.1.5h-.2c-.3-.4-.6-.8-.8-1.2-.2-.4-.5-.8-.7-1.2l-1.2-2.2c-.2.5-.3.9-.5,1.4,0,0,.1,0,.2.2l1.3,2.2c.2.4.4.7.6,1.1.3.4.5.9.5,1.4s0,.4-.2.5h-.1c-.1-.2-.2-.3-.3-.5-.1-.2-.2-.3-.3-.5-.2-.3-.4-.7-.6-1l-1.2-2.1v-.4c-.1.3-.3.6-.4,1l.4.7.4.5.2.3c0,.2.2.3.2.5v.6s-.1.3-.2.2c0,0-.2-.1-.2-.2,0,0-.1-.2-.2-.3l-.3-.5-.5-.9c-.5,1.2-1.1,2.3-1.7,3.5-.3.6-.6,1.1-.9,1.7v.2c.2.6.4,1.2.6,1.8s.3.6.4.9l.2.5c0,.2.1.4.2.6,0,0,0,.7-.2.5-.1,0-.2-.1-.3-.3,0-.1-.2-.3-.3-.4-.2-.3-.3-.6-.5-.9-.3-.6-.5-1.3-.7-2h0c-.3.6-.7,1.3-.9,1.9l.4.8.4.8c.2.3.3.6.3,1s0,.6-.2.5-.2-.2-.3-.3-.2-.3-.2-.4l-.4-.8c-.1-.3-.3-.6-.4-.8-.3.7-.6,1.3-.9,2,.3.5.4,1,.5,1.6,0,0,0,.3-.1.3s-.4-.3-.5-.5c0-.2-.2-.3-.2-.5-.5,1.4-.9,2.9-1.1,4.4,4.1-5.3,10.5-8.3,16.5-10.5,7.6-2.8,15.6-4.2,23.6-3.9,7.6.4,15.1,1.5,22.4,3.3-.4-.4-.5-1-.1-1.5h0c14.7-17.2,25.4-37.7,31.3-59.9,2.1-7.8,5-21.6-4.9-25-9.6-3.4-20.2,4-26.4,11.1-7.3,8.4-11.5,19.1-16.5,29-.3.5-.9.7-1.4.4,0,0-.1,0-.2-.2-3.5-3.2-8.1-4.9-12.8-4.5v.5c-.3,1.9-.5,3.8-.5,5.7,0,0,0,.4-.2.5s-.2-.2-.2-.3c-.3-2.1-.1-4.2.4-6.3-3,.2-5.9,1.2-8.5,2.7-3.9,2.5-7,6.1-9,10.3h0c.2,0,.2.4.2.5,0,1.5.3,3.1.7,4.5s.4,1.5.7,2.2c.3.7.6,1.4.8,2.1,0,.1,0,.7-.2.5-.5-.6-.9-1.3-1.1-2.1-.3-.7-.5-1.5-.7-2.3-.4-1.6-.6-3.3-.6-5v-.3c-.4.9-.8,1.9-1.2,2.9.4,1.3.8,2.6,1.1,3.9.2.7.4,1.4.6,2.1.2.7.4,1.4.5,2.1,0,0,0,.7-.2.4-.3-.6-.5-1.3-.6-2-.2-.7-.4-1.4-.5-2-.3-1.3-.6-2.6-1-3.9-.4,1.2-.7,2.4-1,3.6.3,1.5.8,2.9,1.3,4.3.3.7.6,1.4.9,2.1.4.7.7,1.4,1,2.1,0,0,0,.8-.2.6-.5-.5-.9-1.2-1.2-1.8-.3-.7-.7-1.4-.9-2.2-.5-1.3-.9-2.6-1.2-3.9-.2.9-.3,1.7-.4,2.6,0,.3-.2.5-.4.7v.2c.1,0,.3.2.3.3.3,1.3.8,2.7,1.3,3.9.6,1.4,1.2,2.7,1.7,4,0,0,0,.7-.1.5-.9-1-1.6-2.3-2-3.6-.4-1-.8-2.1-1.1-3.2v2.6h0c0-.2.3-.2.3,0l1.3,3.2c.5,1.1.9,2.2,1.2,3.3v.4s-.1.2-.2,0c-.6-.9-1-1.9-1.3-2.9l-1.3-3.2v-.2c0,.9-.1,1.9-.2,2.8.4,1,.8,1.9,1.2,2.9.3.7.6,1.3.9,2,.4.6.7,1.3.8,2.1,0,0,0,.5-.1.5s-.4-.4-.6-.6c-.2-.3-.4-.6-.5-.9-.3-.6-.6-1.3-.9-2s-.7-1.6-.9-2.4v.8c-.2,1-.4,2-.6,3l1.8,3.2v.4s0,.2-.2,0c-.6-1-1.2-2-1.8-2.9-.2.7-.4,1.3-.6,2l1.4,2.2c.3.5.5.9.8,1.4l-.2-.7ZM286.9,184.3c-.1,0-.2-.2-.2-.3s-.1-.2-.2-.4-.2-.5-.3-.7l-.7-1.5c-.1-.3-.1-.5,0-.8,0,0,0-.2.2-.2s.2,0,.2.2c.2.5.5,1,.7,1.5l.3.7c.2.3.3.6.3,1,0,0,0,.6-.2.5h0ZM287.9,182.6c-.1,0-.2-.1-.2-.2s-.1-.2-.2-.3l-.4-.6c-.2-.4-.5-.8-.7-1.2s-.2-.5,0-.8c0,0,0-.2.2-.2s.1,0,.2.1l.7,1.3.3.6c.2.2.3.5.3.7s0,.5-.1.5h0ZM288.8,181.6h-.1s-.1-.1-.2-.2l-.2-.3c-.1-.2-.2-.5-.4-.7l-.7-1.5c-.1-.3-.1-.6,0-.9,0,0,0-.2.2-.2s.2,0,.2.2l.7,1.5c.1.2.2.5.3.7l.2.4v.6s0,.5-.2.4h.2ZM321.3,173.3c.9-2.7,1.9-5.3,2.8-8,.4-1.4.8-2.7,1.2-4.1.2-1.3.6-2.5,1.1-3.7.2-.4.4.6.4.7-.2,1.4-.5,2.8-.9,4.1-.4,1.4-.8,2.7-1.2,4.1-.8,2.7-1.8,5.3-2.9,7.8-.1.2-.2,0-.3-.1v-.7h-.2ZM315.4,134.2c.2-1.1.3-2.3.6-3.4,0-.2.2-.5.3-.3.2.3.2.7.1,1-.2,1.1-.4,2.2-.5,3.3,0,1.1-.2,2.2-.5,3.3-.1.5-.3,0-.3-.2,0-1.2,0-2.4.3-3.6h0ZM307.7,135.7c0-1.3.3-2.6.8-3.8,0-.2.2-.2.3,0v.9c-.3,1.1-.5,2.1-.6,3.2v1.6c0,.5.1,1.1.1,1.6s0,.4-.1.5-.2,0-.2-.1c-.2-.6-.3-1.3-.3-1.9v-2h0ZM304.9,132.6c0-.2.1-.4.3-.2s.1.5,0,.7c-.4,2.7-.5,5.4-.3,8.1,0,.3-.2.7-.3.2-.5-2.9-.5-6,.2-8.9h0ZM301.7,134.5c0-.2.1-.4.3-.2s.2.6.1.8c-.4,2.8-.5,5.6,0,8.4,0,.2-.2.9-.3.4-.8-3.1-.8-6.3,0-9.4h-.1ZM298.8,137c0-.2.2-.4.3-.2s.2.6.1.9c-.3,2.7-.1,5.5.6,8.1v.5s-.1.1-.2,0c-1.1-2.9-1.4-6.1-.9-9.2h.1ZM296.6,140.5c0-.1,0-.5.2-.6s.2.4.2.5c0,2.8.4,5.5.9,8.2,0,.1-.1.7-.2.4-.8-2.8-1.2-5.7-1.1-8.6h0Z"/>
    <path class="cls-4" d="M276,217.4c2.8,3.2,4.7,7.1,5.6,11.4,0,.6-.3,1.2-.9,1.3h-.2c.2,0,.4.1.6.2,1.7.6,3.2,1.7,4.8,2.5h0c1.6-4.1,3-8.7,1.5-13.1-1.3-3.5-3.9-6.2-6.1-9.1-1.9-2.5-3.8-5.3-4.2-8.5-.3-2.5.1-5.1,1.3-7.4-.2-.2-.3-.5-.3-.7,0-5.1,2.2-9.6,4.6-14,2.6-4.8,4.8-9.5,5.6-15,1.7-11.4-1.4-23.1-5-33.8-3.4-10.4-7.4-20.6-11.8-30.6-1.9-4.2-3.8-8.7-6.9-12.1-1.3-1.5-3-2.7-4.9-3.2-1.9-.4-3.5.2-5.2.6-3.9,10.6-5.4,22.1-4.2,33.4,2.2,19.9,13.8,36.7,19.2,55.7,5,17.4,6.8,35.9,16.5,51.4.4.6,0,2.4-.8,1.5-5.9-8.7-8.9-19.1-11.3-29.3-2.2-9.3-3.9-18.7-7-27.7-3.4-10.1-8.3-19.6-12.1-29.6-6.7-17.7-8.1-37.3-1.5-55.2h-.6c-2.5.5-4.9.4-7.2,1.4-.4,0-.7.3-1.1.5.8,1.8,1.5,3.7,2.1,5.6v.6c0,0-.2,0-.3,0-.9-1.9-1.7-3.9-2.4-5.9-1.4.8-2.8,1.8-4.1,2.8,0,0-.1,0-.2.2,1.1,1.9,2,4,2.7,6.1v.5c0,0-.2,0-.2,0-1-2.1-1.9-4.2-2.8-6.3-1.3,1.2-2.6,2.5-3.8,3.8,1,2.3,2.2,4.4,3.4,6.7,0,0,0,.8-.2.6-.2-.2-.4-.5-.6-.7-.2-.3-.3-.5-.5-.8-.3-.6-.7-1.2-.9-1.8-.6-1.1-1-2.3-1.5-3.5-1.1,1.3-2.1,2.7-3.1,4.1.5,1.1,1.1,2.3,1.7,3.4.7,1.3,1.5,2.5,2.1,3.8,0,0,0,1-.2.7-.4-.5-.8-1.1-1.2-1.8-.4-.6-.7-1.2-1-1.9-.6-1.2-1.2-2.5-1.7-3.8-.2.3-.5.7-.7,1-.9,1.3-1.6,2.7-2.4,4.1h.1c.8,1.7,1.7,3.4,2.7,5.1s2.2,3.3,3.3,4.9c0,0,0,.8-.1.6-.7-.7-1.3-1.5-1.9-2.3-.5-.8-1-1.5-1.5-2.3-1-1.7-1.9-3.5-2.7-5.3v-.3c-1.9,3.6-3.4,7.4-4.6,11.3,1,1.6,2,3.2,3.1,4.7,1.3,1.8,2.8,3.5,4.2,5.2,0,0,0,.6-.1.5-1.6-1.5-3.1-3.3-4.3-5.1-1.1-1.5-2-3-3-4.6-.7,2.5-1.2,5-1.5,7.5,1.2,1.7,2.5,3.4,3.9,5,1.6,1.8,3.4,3.4,5.1,5.2,0,0,0,.5,0,.4-.9-.7-1.8-1.5-2.6-2.3s-1.6-1.7-2.4-2.6c-1.4-1.6-2.7-3.3-3.9-5.1,0,.3-.1.6-.1,1-.2,1.5-.2,2.9-.3,4.4,1.4,1.6,2.8,3.3,4.3,4.9l2.7,2.7c.9.9,2,1.7,2.8,2.7.1.1.1.8-.1.7-1-.7-2-1.5-2.8-2.4-.9-.9-1.8-1.7-2.7-2.7-1.5-1.6-2.9-3.2-4.1-5,0,2.3.1,4.5.4,6.8h0c.4.5.7,1,1,1.6.3.5.7,1.1,1.1,1.6.8,1,1.6,2,2.5,2.9.9,1,1.9,1.9,2.9,2.7s2.1,1.5,3.1,2.3c.2.1.2.7,0,.6-1.2-.5-2.4-1.1-3.4-2-1-.8-2-1.6-2.9-2.6s-1.8-2.1-2.6-3.2c-.6-.8-1.1-1.6-1.5-2.5.4,2.6,1,5.1,1.9,7.5.9,1,1.7,2.1,2.5,3.1,1.2,1.3,2.5,2.6,3.8,3.7,1.4,1.2,2.9,2.4,4.5,3.4s1.5,1,2.3,1.5c.8.4,1.5.9,2.2,1.4.1.1.2.8,0,.8-.9-.2-1.7-.6-2.5-1.1s-1.5-1-2.3-1.4c-1.5-1-2.9-2.2-4.3-3.4-1.4-1.3-2.7-2.6-4-4-.4-.5-.9-1-1.3-1.5.4.9.8,1.8,1.2,2.7,4.1,8.4,10.5,15.3,17.2,21.6,12.8,12.1,28.1,23.8,32.6,42.2,0,.3,0,.6-.2.8l-.3-.4ZM230.8,120.3c-.5-.6-1-1.2-1.4-1.9-.4-.7-.8-1.3-1.2-2-.8-1.4-1.5-2.9-2-4.4,0,0,0-.7.2-.4.8,1.3,1.4,2.7,2.2,4,.4.7.8,1.4,1.3,2s.9,1.2,1.3,1.9c0,0,0,1-.2.7h-.2ZM237,165.8c-.9-.6-1.8-1.3-2.6-2-.9-.6-1.6-1.3-2.2-2.2v-.3c.4.1.8.3,1.2.7.4.3.8.6,1.2,1,.8.6,1.7,1.2,2.5,1.8s1.8,1.1,2.7,1.7c.9.5,1.8,1,2.7,1.5.2.1.3,1,0,.9-1-.3-1.9-.7-2.8-1.3-.9-.6-1.9-1.1-2.7-1.7h0ZM242.2,172.6c-.2,0-.2-.6,0-.5,1.6.4,3.2.9,4.8,1.4.8.3,1.5.6,2.3.9l1.2.5c.4.1.8.3,1.2.5,0,0,.2.6,0,.5-.4,0-.7-.2-1.1-.4l-1.2-.5c-.8-.3-1.6-.6-2.4-.9-1.6-.6-3.2-1.1-4.9-1.6h0ZM259,184.4c-3-2.1-6.3-3.8-9.8-5.1-.2,0-.1-.5,0-.5,1.8.4,3.5,1,5.2,1.8,1.7.9,3.2,2,4.6,3.3.1.1,0,.6,0,.5h0Z"/>
    <path class="cls-4" d="M269.4,407.9c1.2,3.2,3.2,6.1,4.8,9.1,3.2,5.8,4.7,12.5,4.3,19.2h0c.6,0,1.3.2,1.9.3,1.3.3,2.6.8,3.7,1.5-1.5-12.6,3.3-24.6,6.2-36.5,1.4-5.6,2.2-11.3,2.3-17,0-3.6,0-7.1.3-10.8v-.2c-1.9-10.6-4-21.2-6-31.8-5.1,3.6-9.3,8.4-12.3,13.9-6.7,12.5-7.4,27.6-7,41.6,0,3.7.5,7.3,1.7,10.8h.1ZM283.3,394c.5-3.8,1.2-7.6,2-11.3.8-3.4,1.6-7.1,3.2-10.2.2-.3.3.7.2.8-.9,3.7-2.2,7.3-3,11.1s-1.4,7.4-1.9,11.1c-.9,7.1-1.3,14.2-2,21.4,0,.4-.3.2-.3,0,.2-7.6.8-15.2,1.7-22.7h0v-.2Z"/>
    <path class="cls-4" d="M261.2,237.6c3.6-4.4,8.7-7.2,14.3-7.9,1.5-.2,3-.1,4.5.2-.2-.1-.3-.3-.3-.6-1.3-7.4-6.2-12.7-12.1-16.7h0v.3c0,.1,0,.2.1.4v.6c0,.1-.1.3-.3.2,0,0-.1,0-.2-.1,0,0,0-.1-.1-.2l-.2-.3-.5-.7s0-.2-.1-.3v-.6c-.8-.5-1.6-1-2.4-1.4,0,.1.1.3.2.4.2.4.3.8.3,1.1v1.2c0,.1-.2,0-.2-.2s-.1-.3-.2-.5c-.2-.2-.3-.5-.3-.8-.1-.3-.3-.6-.4-.9-.3-.5-.6-.9-.9-1.3-.6-.3-1.2-.6-1.9-.9.1.2.2.5.3.8.1.4.2.7.2,1.1s-.1.4-.3.3c0-.1-.2-.3-.2-.4v-.2h0v-.2c0-.2-.2-.5-.3-.7-.2-.4-.4-.8-.6-1.1l-1.9-.9c.1.3.3.6.4.9,0,.2.1.4.2.5v.8c0,.1-.1.6-.3.4h-.1c0-.1-.1-.3-.2-.4l-.2-.4c-.1-.3-.3-.6-.4-1s-.4-.8-.6-1.2c-.9-.4-1.8-.7-2.7-1.1h0c.2.3.3.6.5,1s.3.8.5,1.2v.4s-.1.1-.2,0c-.2-.3-.4-.6-.6-.9l-.5-1c-.2-.4-.4-.7-.6-1.1-1.3-.5-2.5-.9-3.9-1.4l.5,1c.2.3.3.6.5,1s.3.7.4,1.1v.4s-.1.1-.2,0c-.4-.5-.7-1.1-1-1.8l-.9-2h0c-.7-.2-1.4-.4-2.1-.6h0c.2.3.3.6.5.9.2.3.3.7.3,1.1,0,0,0,.5-.2.5s-.2-.2-.3-.4l-.2-.4c-.1-.3-.3-.5-.4-.8-.3-.5-.6-.9-.9-1.3-.6-.2-1.3-.3-1.9-.5l.4.6c.2.3.4.6.6.9.2.3.4.7.5,1.1,0,0,0,.6-.2.5-.1,0-.2-.2-.3-.4,0-.1-.2-.3-.3-.4-.2-.3-.4-.6-.5-.9-.3-.5-.6-1.1-.9-1.6-.7-.2-1.4-.3-2.1-.4.2.3.4.6.5.9.2.4.2.9.2,1.3s-.1.3-.2.1c0-.1-.1-.3-.2-.4h0v-.2h0c-.1-.4-.3-.6-.5-.9s-.4-.5-.7-.7c-.1-.1-.2-.2-.4-.3-.9-.1-1.9-.3-2.8-.4.2.2.3.4.4.6l.3.5s.1.2.2.3c0,.1,0,.2.1.3v.3s0,.1-.2,0-.1,0-.2-.2l-.2-.2c-.1-.2-.2-.3-.3-.5s-.4-.6-.6-.9c0-.1-.2-.2-.3-.4-.8,0-1.5-.1-2.3-.1.1.1.2.3.3.4.2.4.4.8.5,1.2v.8c-.1.2-.3.1-.3,0s-.2-.3-.2-.5h0c0-.1-.1-.4-.1-.4h0c0-.1-.1-.3-.1-.3-.1-.1-.2-.3-.3-.4-.2-.2-.4-.5-.7-.7h-3c.1.2.3.3.4.5.2.3.4.6.6,1,.2.4.3.8.4,1.3,0,0,0,.4-.2.4s-.2-.2-.3-.3c0-.1-.2-.3-.3-.4,0-.1-.2-.3-.3-.4l-.3-.4c-.4-.5-.8-1-1.3-1.5-.6,0-1.2.1-1.7.2l.2.2c.3.3.5.7.7,1.1.2.4.3.8.4,1.3v.4c0,.1-.1,0-.2,0,0-.1-.1-.3-.2-.4-.1-.2-.2-.3-.3-.5-.2-.3-.4-.6-.6-.8-.3-.4-.7-.7-1.1-1l-.9.2c-.3,0-.6.2-.9.2.2.2.4.4.5.6.2.3.4.6.5.9.2.3.3.7.4,1.1,0,.1,0,.5-.2.5,0,0-.2-.1-.2-.2h0v-.4h-.1c-.2-.2-.3-.5-.5-.7-.3-.5-.7-.9-1.2-1.3v-.2c-.6.2-1.2.3-1.9.5.9.9,1.5,2.1,1.9,3.3v.4s-.1.2-.2,0c-.4-.6-.8-1.3-1.2-1.9-.4-.6-.8-1.1-1.3-1.6-.9.3-1.8.6-2.6.9.5.4.9.8,1.2,1.3.2.4.5.7.6,1.1.2.4.4.8.4,1.3s0,.5-.2.4-.2-.3-.3-.5l-.3-.5c-.2-.3-.4-.6-.6-.9-.4-.7-.9-1.3-1.5-1.8h0c-.6.2-1.1.4-1.7.7l.8,1.1c.2.3.5.6.7,1,.1.2.2.3.3.5s.2.4.3.6c0,.1,0,.5-.1.5s-.3-.2-.4-.3-.2-.3-.3-.4c-.2-.3-.5-.6-.7-1l-1.2-1.8c-.8.4-1.6.9-2.4,1.4.5.5.9,1.1,1.4,1.6.7.8,1.4,1.7,1.8,2.7,0,0,0,.6-.1.5-.2-.1-.4-.3-.5-.4-.2-.2-.3-.4-.5-.6-.3-.4-.6-.8-.9-1.2-.6-.7-1.3-1.5-1.9-2.2-.1,0-.3.2-.4.3-.7.5-1.3,1-1.9,1.4,1.1,1.3,1.9,2.8,2.5,4.4v.4h-.2c-.7-1.6-1.6-3.1-2.6-4.4-.9.7-1.7,1.5-2.5,2.4.2.5.4,1,.6,1.5s.5,1,.7,1.5c.3.5.6,1,.8,1.5,0,.1,0,.8-.2.6-.4-.4-.7-.9-.9-1.4-.3-.5-.5-1-.8-1.6s-.5-1.1-.7-1.7c-.2.2-.4.4-.6.7-.7.8-1.4,1.6-2,2.5.6.7,1.2,1.4,1.7,2.1.7,1,1.2,2,1.7,3.1v.5c0,.1-.2.1-.2,0-.6-1-1.1-2-1.7-2.8s-1.1-1.6-1.7-2.4c0,.1-.2.3-.2.4-.7,1.8.6,2.8,1.7,3.9,7.3,7.4,15.1,14.8,24.4,19.3,4.6,2.2,9.6,3.4,14.7,3.4,6.2-.1,12.3-2.2,17.9-4.9.2-.1.3-.2.5-.2l-.5.2ZM242.3,215.4c-10-1.6-20.3,0-29.5,4.6-.3.1-.3-.7-.1-.8,8.8-5.1,18.9-7.1,28.9-5.7,4.9.8,9.7,2.3,14.3,4.4,2.7,1.2,5.5,2.1,8.4,2.5s5.8.3,8.7.7c.4,0,.4,1.1,0,1.2-11,2.6-20.2-5.1-30.7-6.9Z"/>
    <path class="cls-4" d="M357,190.1c-.6-3.8-4.7-5-7.8-5.8-3.9-1-7.7-1.8-11.6-2.6-7.9-1.6-16-2.7-24.1-2-7.7.7-15.2,2.8-22.1,6.3-5.4,2.7-12.5,7.5-12.3,14.7.2,6,5.6,10.2,8.5,14.9,3.4,5.5,2.7,11.1.7,16.8,9.8-10.4,22.9-16.1,35.8-21.1,6-2.3,12.1-4.5,18-7.1,5.3-2.3,16.2-6.1,15-13.9v-.2ZM320,200.8c-1.9,3.8-5.2,6.9-8.4,9.5-6.6,5.5-13.8,10-19.1,16.9-.2.3-.3-.6-.2-.8,3.8-6.1,9.7-10.2,15.2-14.5,2.9-2.2,5.6-4.6,8.2-7.2,1.4-1.5,2.7-3.1,3.7-4.9,1.3-2.3,1.4-5.2.2-7.7,0-.2-.1-1.7.3-1.2,2.2,2.5,1.4,7.1.1,9.9h0Z"/>
    <path class="cls-4" d="M280.9,481.2c1.9-10.9,4.7-21.7,8.1-32.2-.2-.2-.3-.4-.4-.7-.9-7.3-8.2-11.5-14.6-9.1-5.6,2.1-10.7,7-14.6,11.7-2.7,3.2-11.4,13.8-4.8,17.3,2.5,1.3,5.8.3,8.5.7,2.3.4,4.5,1.2,6.4,2.5,4,2.6,6.8,6.9,7.7,11.8v.3c1.2-.8,2.4-1.5,3.6-2.3h.1ZM275,467.4c-.4-.9-.7-2-.7-3,.1-.9.8-1.2,1.5-.7,1.5,1.3,2.5,3,3.1,4.9,1.2-.8,2-2.2,2-3.7s.6-.9.7,0c.1,2.1-.9,4.1-2.6,5.2-.2.1-.3-.2-.4-.3-.3-1.1-.7-2-1.3-2.9-.2-.3-1.7-2.5-2.2-2-.2.1.9,2.7,1,2.9.4,1,.7,2,1.1,2.9.7,2,1.3,4,1.7,6,.3,1.6.7,3.9,0,5.4,0,.2-.2,0-.2-.1-.2-1.3,0-2.6-.2-3.9s-.5-2.5-.9-3.7c-.7-2.4-1.7-4.8-2.5-7.2h0v.2Z"/>
    <path class="cls-4" d="M246.7,431.6c4.8,4.8,9.7,9.7,15.7,12.8,0,0,.1,0,.2.1.3-.3.6-.6.9-.8,1.3-1.1,2.7-2.3,4.2-3.4-.1-.2-.2-.4-.2-.6.4-4.9.7-9.8.8-14.7v-14.3c-.5-.3-.7-.9-.4-1.5,0,0,0-.1.1-.2-2.1-5.5-2.2-11.4-2.2-17.4s.2-9.9.8-14.8c-.3-.2-.5-.5-.5-.8-.8-8.1-4.8-15.3-9.3-21.8-2.3-3.3-4.8-6.4-7.5-9.2.1.2.3.4.4.6.9,1.3,1.8,2.6,2.5,3.9,0,0,0,.6-.1.4-.9-1.2-1.8-2.5-2.6-3.7l-1.9-2.9c-1.9-1.8-3.9-3.4-6.1-4.7-.6-.4-1.2-.8-1.9-1.1,1.1.8,2.1,1.7,3,2.7,1.2,1.2,2.2,2.6,3,4.2v.4s-.1.2-.2,0c-.4-.7-.9-1.3-1.4-2s-1-1.3-1.5-1.9c-1.1-1.3-2.4-2.4-3.8-3.3-.1,0-.1-.4,0-.6-.9-.5-1.9-.9-2.9-1.2l2.2,2.4c.6.6,1.1,1.3,1.7,2,.6.6,1.1,1.3,1.6,2,0,0,0,.6-.1.5-.6-.5-1.2-1.1-1.7-1.7-.6-.6-1.1-1.2-1.7-1.9l-3.3-3.8c-1.4-.4-2.7-.8-4.1-1,.7.6,1.4,1.2,2.1,1.9.4.5.9,1.1,1.2,1.7.2.3.3.6.5.9s.3.7.4,1.1v.5c0,.1-.2.1-.2,0-.2-.3-.3-.5-.5-.8s-.3-.6-.5-.9c-.3-.5-.7-1.1-1.1-1.6-.8-1-1.8-1.9-2.9-2.7,0,0-.1-.2-.1-.3-1-.1-2-.2-3-.2.6.7,1.3,1.4,1.9,2.1.5.5.9,1.1,1.5,1.6.2.3.5.5.7.8s.4.6.7,1v.4s0,.3-.2.2c-.2-.2-.5-.4-.7-.6s-.5-.5-.8-.8c-.5-.5-.9-1.1-1.4-1.6-.9-1-1.8-2-2.6-3-1.1,0-2.3.2-3.4.4.4.3.8.7,1.1,1,.4.4.8.9,1.1,1.4.4.5.6,1.1.8,1.7v.5s-.1.2-.2,0c-.3-.5-.5-1-.8-1.5s-.7-1-1.1-1.4c-.6-.6-1.2-1.2-1.9-1.7-1.2.3-2.3.7-3.4,1.2,1.5,1.2,2.6,2.8,3.4,4.6v.6c0,.1-.2.1-.3,0-1-1.9-2.3-3.5-3.9-4.9-1,.5-2,1.1-2.9,1.8.4.4.8.9,1.2,1.3.4.5.7.9,1,1.4s.6,1.1.8,1.6c0,.1,0,.9-.2.6-.2-.2-.3-.5-.4-.7-.1-.2-.3-.5-.4-.7-.3-.5-.6-.9-.9-1.3-.5-.6-1-1.3-1.5-1.8-1,.7-1.8,1.6-2.6,2.5h0c.9.9,1.8,1.9,2.6,2.9s1.6,2.2,2.2,3.3v.5s-.1.2-.2,0c-.8-1-1.5-2.1-2.2-3.1s-1.7-2-2.5-2.9c0-.2-.1-.3,0-.5-.8.9-1.5,1.9-2.1,2.9l3,4.2c.5.7,1.1,1.5,1.6,2.2.6.7,1.1,1.5,1.5,2.3,0,0,0,.6-.1.5-.6-.6-1.1-1.3-1.6-2-.5-.8-1.1-1.5-1.6-2.3-1-1.5-2.1-3-3.1-4.4-1.9,3.3-3.2,7-3.7,10.9.8,1.2,1.6,2.3,2.4,3.4.6.7,1.2,1.4,1.8,2.1s1.2,1.3,1.8,2.1c0,.1.1.9-.1.7-.7-.6-1.4-1.2-2-2-.6-.7-1.2-1.4-1.8-2.2-.8-1.1-1.6-2.2-2.3-3.3-.2,2-.3,3.9-.2,5.9,1.2,1,2.4,2.1,3.5,3.2.7.7,1.3,1.4,2,2.1s1.3,1.4,1.9,2.1c0,0,0,.6-.1.5-.3-.3-.7-.6-.9-1l-.9-1c-.6-.7-1.3-1.4-1.9-2-1.1-1.1-2.2-2.3-3.4-3.4.1,1.6.3,3.3.6,4.9,1.2,1.4,2.5,2.8,3.8,4.2.7.7,1.4,1.4,2.1,2.1.8.7,1.5,1.4,2.2,2.1,0,0,.1.6,0,.5-.4-.3-.8-.6-1.1-.9-.4-.3-.7-.7-1.1-1-.7-.7-1.4-1.4-2.1-2.2-1.2-1.3-2.4-2.7-3.5-4,.4,2.2,1,4.4,1.7,6.5,1.2,1.1,2.3,2.1,3.5,3.2l2.5,2.4c.9.8,1.7,1.6,2.5,2.5,0,0,.1.6,0,.5-.4-.3-.9-.6-1.2-1-.4-.4-.9-.8-1.3-1.1l-2.5-2.4c-1-1-2-2-3-2.9.5,1.6,1.1,3.2,1.8,4.8,1.2,1.1,2.5,2.1,3.7,3.2l2.7,2.4c.9.8,1.8,1.6,2.7,2.5,0,0,0,.6,0,.5-.9-.7-1.8-1.5-2.7-2.3l-2.7-2.4c-1.1-1-2.2-2.1-3.3-3.1.5,1.2,1,2.4,1.5,3.5.6,1.4,1.3,2.7,2,4,1.1,1.2,2.4,2.4,3.6,3.5.9.8,1.8,1.5,2.7,2.1s1.7,1.3,2.6,1.9c.2,0,.1.7,0,.6-1-.5-1.9-1-2.8-1.6-.9-.6-1.7-1.3-2.5-2s-1.5-1.4-2.2-2.1c5.5,9.4,11.9,18.1,19.2,25.9,4.4,4.9,9.1,9.6,13.8,14.3l-1,.2ZM211.4,358c-.5-.6-1-1.3-1.4-2-.4-.6-.9-1.3-1.3-2l-2.7-4c0-.1-.1-.3,0-.4,0,0,.1-.2.2-.1.9,1.3,1.9,2.7,2.8,4,.5.7.9,1.3,1.4,2s.9,1.3,1.3,2c0,0,0,.6-.2.4h-.1ZM224.4,346.8c0-.2.1-1.3.3-.7,2.6,7.4,2.6,15.5,5.9,22.7,4.8,10.9,13.4,19.4,18.4,30.2,2.9,6.2,4.9,12.8,7.1,19.2,2.4,7,4.7,14.1,7,21.1.1.3-.2,1.1-.4.5-2.8-7.9-5.6-15.9-8.4-23.9-2.2-6.5-4.3-13-7.7-19-2.9-5.3-6.6-10.1-10-15.1-3.2-4.7-6.2-9.6-8-15.1-2.2-6.5-2.6-13.5-4.3-20.1h0v.2Z"/>
    <path class="cls-4" d="M309.5,449.7c-.5.7-1.1,1.3-1.6,2h.1c.1.1.2.2.3.2,0,0,.2.1.3.2,0,.1.1.2,0,.4,0,0,0,.3-.1.3h-.5c-.2,0-.4-.1-.6-.2h-.1c-.9,1-1.7,2.1-2.6,3.2.4.3.8.6,1.3.8l.4.2c.1,0,.3,0,.4.2l.2.2h.2c.1.2.3.3.4.3s.2.3.1.4,0,.3-.2.3h-.8c-.2,0-.3,0-.4-.1l-.4-.2c-.5-.2-1-.5-1.4-.9s-.2-.3-.2-.5c-.4.5-.8,1-1.2,1.5.9.5,1.9,1.1,2.9,1.5.5.2,1,.5,1.5.7.6.2,1.1.5,1.5,1v.5c-.4.3-1.1,0-1.5-.2s-1-.4-1.5-.6c-1-.5-2-1.1-3-1.7-.2-.2-.3-.5-.2-.7-.4.5-.8,1-1.2,1.4.2.1.4.4.5.6.5,1.6.9,3.2,1.4,4.8,1.3-.6,2.6-1.1,4-1.3h-.2c-.5,0-1-.3-1.5-.5-1-.4-2-1.1-2.8-1.9-.1-.2-.2-.4-.1-.7,0-.1.1-.4.3-.3.9.5,1.8,1,2.7,1.5.5.2.9.4,1.5.6.5.1,1,.3,1.5.6.2.2.2.4,0,.6,1.3,0,2.6.2,3.8.6.5.2.8.7.7,1.3-1.2,6.3-3.6,12.3-7,17.6.3,0,.6.4.6.7.2,1.2.4,2.4.6,3.6.9.7,1.9,1.3,2.8,2,1.1.7,2.2,1.4,3.2,2.2,0,0,.1.6,0,.5-1.2-.3-2.3-.8-3.3-1.4-.8-.5-1.6-1.1-2.4-1.6.4,2.1.8,4.1,1.2,6.1.8.6,1.6,1.1,2.4,1.6.5.3,1,.5,1.5.8l.7.4c.2.1.5.3.7.5s.2.7,0,.8c-.3,0-.6,0-.8-.2-.3,0-.5-.2-.7-.3-.5-.2-1-.5-1.5-.8-.6-.4-1.3-.8-1.9-1.2,0,.4.2.7.2,1.1h.3c1.6,1.2,3.3,2.3,5.1,3.3.2.1.2.8,0,.7-1.8-.6-3.5-1.6-5-2.8.2.8.4,1.7.6,2.5.8.5,1.6,1.1,2.4,1.6l1.4.9.7.5c.3.1.5.3.7.5.1.2.2.7,0,.8-.3,0-.5,0-.7-.2-.3,0-.5-.2-.8-.3-.5-.2-.9-.5-1.4-.7-.6-.4-1.3-.8-1.9-1.2.4,1.8.9,3.6,1.3,5.4,0-.2.2-.5.4-.3.9.6,1.7,1.1,2.6,1.6l1.3.7c.5.2,1,.5,1.4.9.1,0,.2.7,0,.7-.5,0-1-.2-1.4-.5-.5-.2-.9-.4-1.3-.6-.9-.5-1.8-1-2.6-1.6h0c.2.7.4,1.4.5,2.1h.2c.8.6,1.7,1.2,2.5,1.7.4.3.9.5,1.3.8.5.2.9.5,1.3.8.1,0,.2.7,0,.8-.3,0-.5,0-.7-.2l-.7-.3c-.5-.2-.9-.4-1.3-.7-.7-.4-1.5-.9-2.2-1.4.1.4.2.9.3,1.3.9.8,1.9,1.5,2.9,2.2,1.1.7,2.2,1.2,3.3,2,.1,0,.2.7,0,.6-1.2-.2-2.4-.7-3.4-1.4-.8-.5-1.5-1-2.3-1.6.2.8.5,1.6.7,2.4.6.4,1.2.9,1.9,1.2.5.3,1.1.5,1.6.8l.8.4c.1,0,.3.2.4.3.1,0,.3,0,.4.2.2,0,.3.9,0,.8h-.9c-.3,0-.6-.2-.9-.3-.6-.2-1.1-.5-1.6-.8-.4-.2-.8-.5-1.2-.8,0,.3.2.6.3,1,.4.2.9.5,1.3.7s1.2.6,1.7.9c.6.3,1.2.6,1.7,1,.1,0,.2.6,0,.6-.6,0-1.2-.4-1.8-.6-.6-.3-1.2-.6-1.7-.9-.3-.2-.6-.4-.9-.6.3.9.5,1.7.8,2.6.4.3.8.5,1.2.7.4.2.9.5,1.4.6l.7.3c.2,0,.4.3.7.4s.3.8,0,.8h-.8c-.3,0-.5,0-.7-.2-.5-.2-.9-.4-1.4-.6-.2,0-.3-.2-.5-.3.2.6.3,1.2.5,1.7.3,0,.6.2.9.4.8.4,1.5.8,2.2,1.3.1,0,.1.6,0,.5-.7-.4-1.5-.7-2.2-1.1l-.6-.2c.2.5.3,1,.5,1.4h.2c.2.3.5.4.7.6.4.2.9.4,1.3.6.2,0,.4.2.6.3,4.2-2.6,9.2-3.2,13.8-1.8-9.2-30.8-12-63-14.6-95-3.4,4.9-7,9.7-10.7,14.4l-.8-.8ZM309.6,480.9l1.1.7h0l-1.1-.7h0ZM307.2,482.2c0-.2.2-.6.4-.5l2,1.2c.3.2.6.4.9.7.3.2.7.5.9.8,0,.1.1.3,0,.4,0,0,0,.3-.2.3-.4,0-.7-.2-1-.4-.3-.2-.7-.3-1-.5l-2-1.1c-.2-.1-.2-.6-.2-.8h.2ZM312.7,488.6c-1.6-.6-3.1-1.2-4.6-2-.3-.2-.2-1.3.1-1.1,1.5.8,3,1.6,4.5,2.5.1.1.2.6,0,.5h0ZM312.3,494.8c-.3-.1-.6-.3-.8-.4l-.8-.5-1.6-1c-.2-.1-.2-1,0-.8l1.6,1,.8.5c.3.2.5.4.8.6.1.1.2.3.1.4,0,0,0,.3-.2.2h.1ZM316.6,509.3c-.5,0-.9-.2-1.3-.5-.4-.2-.9-.4-1.3-.7-.8-.5-1.7-1-2.4-1.6-.2-.2-.3-.4-.2-.6,0-.1.2-.5.3-.4.8.6,1.6,1.2,2.4,1.7.4.3.8.5,1.3.8.4.2.9.5,1.3.8.1.1.2.6,0,.6h0Z"/>
    <path class="cls-4" d="M276.6,436.4v-.2c.3-4.4-.4-8.9-1.8-13.1-1.2-3.1-2.8-6.2-4.5-9,0,2.7.2,5.3.1,8,0,5.6-.3,11.3-.7,16.9,2.1-1.4,4.5-2.3,6.9-2.7h0Z"/>
    <path class="cls-4" d="M335.1,312.5c-1.5.6-2.9,1.4-4.2,2.2,3.7.4,7,2.6,9.7,5.3.4.4.8.9,1.2,1.2,0,0,.1,0,.2.1h0c0-.3,0-.7.2-1,0-1.2-.2-2.3-.7-3.3-1.3-2.1-3.4-3.6-5.7-4-.3,0-.5-.3-.6-.5h-.1Z"/>
    <path class="cls-4" d="M310,414.7c-3,3.6-5.8,7.4-8.2,11.5,0,.2-.1.4-.3.5-9.1,15.2-14.1,32.9-17.7,50.4,8.4-9.5,16.7-19.1,24.5-29.1,4-5.1,7.9-10.3,11.5-15.7,3.3-4.9,7.2-10,9.4-15.6,1.1-2.9,1.5-6,.2-8.9-.9-2.3-3-3.9-5.4-3.9s-6.1,2.8-8.5,5c-2,1.9-3.8,3.8-5.6,5.9h.1ZM319,422.5c.4-.2.4,1.2.3,1.5-2.2,2.9-5.1,5.4-7.5,8.1-2.5,2.9-4.9,6-7.2,9.2-4.4,6.3-8.2,13-11.4,20.1-.2.4-.3-.4-.3-.6,2.9-7.4,6.6-14.3,11.1-20.8,2.1-3.1,4.4-6.2,6.9-9.1,1.3-1.5,2.6-3,3.9-4.4,1.2-1.5,2.6-2.8,4.2-4h0Z"/>
    <path class="cls-4" d="M289.5,256.9h0c-3.3,2.5-7.1,3.5-11,4.4.5.5.9,1,1.3,1.5v.2s0,.1-.1,0c-.5-.4-.9-.9-1.4-1.4v-.3h0l-1.3.3v.9l1.8,1.5c.3.3.7.6.9.9.3.3.7.6.9.9,0,0,.1.5,0,.5-.2,0-.3-.2-.5-.4l-.5-.4-.9-.8-1.6-1.4c0,1.4.2,2.8.3,4.2h.2l2,2c.3.3.7.6,1.1,1l.5.5c.2.2.4.3.5.6,0,.1.1.6-.1.6s-.4-.2-.6-.3l-.6-.4c-.4-.3-.7-.6-1-1-.7-.6-1.3-1.3-1.9-2,0,.5,0,.9.1,1.4l2.4,2.7c.4.5.8,1,1.2,1.4.4.5.8.9,1.1,1.5,0,0,0,.6-.1.5-.5-.4-.9-.8-1.2-1.2l-1.2-1.4-2.1-2.4c.2,2.3.5,4.7.8,7.1h.2c.7.8,1.5,1.5,2.3,2.2.4.4.8.7,1.3,1s.8.7,1.2,1.1c.1.1.1.8-.1.7-.5-.2-.9-.5-1.4-.8-.4-.3-.8-.7-1.2-1-.8-.7-1.5-1.5-2.2-2.3.2,1.7.4,3.4.7,5.2,1.3.9,2.6,1.9,3.8,2.9v.4c-1.2-.7-2.4-1.6-3.6-2.5.1.8.2,1.7.3,2.5l.4.3c.3.2.7.4,1,.7.6.5,1.2.9,1.9,1.4s1.2,1,1.8,1.6l.9.9c.3.3.6.5.8.9,0,.2.1.8-.2.7-.3-.2-.7-.4-.9-.7-.3-.2-.6-.4-.9-.7-.6-.5-1.2-1-1.8-1.4s-1.3-1-1.9-1.4l-.8-.5c.2,1.3.4,2.6.6,3.9.8.5,1.6,1,2.3,1.6.4.4.8.7,1.3,1.1l1.2,1.2c.1.2.1,1-.2.8-.5-.3-.9-.6-1.2-1-.4-.4-.8-.7-1.2-1-.6-.5-1.3-1.1-1.9-1.6.1.8.2,1.6.4,2.3v.5c1.3,1.1,2.5,2.1,3.8,3.2l2,1.6c.7.5,1.3,1.1,1.9,1.7,0,0,.1.5,0,.4-.7-.4-1.4-.8-2.1-1.3-.6-.5-1.3-1-1.9-1.5-1.2-1-2.3-2-3.4-2.9.2,1.3.4,2.7.6,4v-.2s.2-.4.4-.2c.8.9,1.5,1.7,2.4,2.5s1.7,1.6,2.5,2.5c0,.1.1.7-.1.6-.5-.3-1-.6-1.4-1s-.9-.7-1.3-1.1c-.8-.8-1.6-1.7-2.4-2.6h0c0-.1.6,3.7.6,3.7h0c0-.1.2-.4.3-.2.7.9,1.5,1.7,2.3,2.5.9.8,1.8,1.4,2.7,2.2v.4c-1-.4-2-1-2.8-1.7-.9-.8-1.6-1.6-2.3-2.5h0c.2,1.4.5,2.9.7,4.4,0-.2,0-.3.2-.2.9.7,1.9,1.5,2.8,2.2l1.5,1.1c.5.3,1,.7,1.4,1.1s.2.8-.1.7c-.6-.2-1.1-.5-1.6-.9-.5-.3-.9-.7-1.4-1.1-.9-.8-1.9-1.6-2.8-2.5h0c.2,1.2.4,2.5.6,3.8,2.2,1.8,4.5,3.5,6.6,5.3.1,0,.1.7-.1.5-2.3-1.3-4.4-2.9-6.3-4.8l.5,2.9c1,.8,2.1,1.5,3.1,2.4.5.4,1.1.9,1.6,1.3.3.2.5.5.8.7s.5.5.7.8c0,.1.1.8-.2.8-.3-.1-.6-.3-.8-.5-.3-.2-.5-.4-.8-.6-.5-.5-1-.9-1.5-1.4-.9-.9-1.9-1.8-2.8-2.7.9,4.9,1.8,9.9,2.7,14.8,0-.2.1-.3.3-.1.9.7,1.9,1.4,2.8,2.1.5.4.9.7,1.5,1,.3.2.5.4.7.6l.8.6c.2.1.2.9,0,.8s-.6-.3-.8-.4c-.1,0-.2-.1-.4-.2-.1,0-.3-.1-.4-.2-.5-.3-.9-.7-1.5-1.1-1-.8-1.9-1.6-2.8-2.4.3,1.7.6,3.4.9,5.1.8.5,1.6,1.1,2.4,1.6l1.4,1.1c.5.3,1,.7,1.4,1.1,0,.1.2.7-.1.6-.3-.1-.5-.3-.7-.5l-.7-.6-1.4-1.1c-.7-.6-1.4-1.2-2.1-1.8.3,1.8.7,3.7,1,5.5,1.1.8,2.2,1.7,3.3,2.5.6.5,1.1.9,1.7,1.4.6.4,1.1.9,1.6,1.5.1.1.2.9-.2.8-.3-.2-.6-.4-.9-.6l-.8-.6c-.6-.4-1.1-.9-1.6-1.4-1-.8-2-1.7-2.9-2.6l1.3,6.7c.6.4,1.3.8,1.9,1.3,1.1.9,2.2,1.8,3.1,2.9.1.1,0,.7-.2.5-1-.8-2.1-1.6-3.1-2.5-.5-.4-1-.8-1.5-1.2.3,1.8.7,3.7,1.1,5.5.7.6,1.4,1.2,2.1,1.7.9.7,1.9,1.3,2.7,2.1s.2,1-.2.8c-1-.5-1.9-1.2-2.8-2-.6-.5-1.1-1-1.6-1.4,0,.5.2,1,.3,1.5.3,1.4.5,2.8.8,4.2.8.5,1.6,1.1,2.4,1.7.4.3.9.7,1.3,1,.2.2.5.3.7.5s.4.5.6.7c.1.2.2.4.1.5,0,0-.1.4-.3.3s-.5-.2-.7-.4c-.2-.2-.4-.3-.6-.5l-1.2-1c-.6-.6-1.3-1.1-2-1.7.8,3.9,1.5,7.8,2,11.7.4,3.3.9,6.6,1.4,9.9.7.5,1.5,1.1,2.2,1.6.5.4,1,.7,1.5,1s1.1.7,1.5,1.1c.1.2.2.8-.1.7-.3,0-.6-.2-.9-.4-.3-.2-.5-.3-.8-.5-.5-.4-1-.7-1.5-1.1s-1.2-1-1.8-1.4c.2,1.7.5,3.4.7,5.1.6.5,1.3,1,2,1.5s1.1.7,1.7,1.1c.6.3,1.2.7,1.7,1.2s.2.8-.2.8c-.6-.2-1.3-.6-1.8-1-.6-.4-1.1-.8-1.6-1.2s-1.1-1-1.7-1.4c.2,1.1.3,2.3.4,3.4h0c.7.7,1.4,1.4,2.1,2,.5.5,1.1.9,1.7,1.3s1.2.8,1.7,1.3c0,0,.1.5,0,.5-.7-.2-1.3-.4-1.9-.8-.6-.3-1.2-.8-1.7-1.2-.6-.5-1.2-1.1-1.7-1.7l.5,4.6c1,.8,2,1.5,3.1,2.1,1.3.8,2.7,1.5,4.1,2.2.1,0,.2.5,0,.5-.4,0-.8,0-1.1-.1-.4,0-.7-.2-1-.4-.7-.3-1.4-.6-2.1-1s-1.3-.9-2-1.4c-.3-.2-.5-.4-.7-.7l.3,2.9h.2c.2.2.5.4.7.7.2.3.5.5.7.7l.4.3h.2v.2h0l.4.3c.1,0,.2.1.3.2,0,0,.2.2.2.3,0,.2.1.4.1.6s0,.3-.2.4h-.6c0-.1-.5-.4-.5-.4-.3-.2-.6-.4-.9-.7-.3-.2-.5-.5-.7-.7,0,0-.1-.2-.2-.2l.6,5h.3c.3.2.5.3.8.5s.5.4.7.6c.3.2.5.5.6.9,0,.1,0,.7-.2.7s-.3-.1-.4-.2c0,0-.2-.2-.3-.2-.2-.2-.4-.3-.6-.5s-.5-.3-.7-.5h0c.2,1.4.3,2.8.5,4.2,3.9-6.1,8.5-11.7,13.8-16.6.4-.3.8-.7,1.2-1-3-10.7-5.5-21.6-7.6-32.5-7.6-38.5-11.2-77.6-19.2-116l-.8-.6ZM280.8,269c-1-1-2-2-3.2-2.8,0,0,0-.3,0-.2.6.4,1.2.8,1.7,1.3s1.1,1,1.5,1.6c0,0,0,.2,0,.1h0ZM284.2,279.9c-.3,0-.6-.1-.9-.3-.3-.1-.6-.3-.9-.5-.5-.4-1-.8-1.5-1.2-1-.9-2-1.9-2.8-3.1-.1-.2-.2-.4,0-.6,0-.1.2-.3.3-.2.8,1,1.8,2,2.8,2.9.5.5,1,.9,1.6,1.3.3.2.5.4.8.6s.6.5.8.7c0,0,.1.3,0,.3h-.2ZM291.8,335.2c-.8-.6-1.6-1.3-2.3-2s-1.5-1.4-2.3-2v-.2c.8.7,1.5,1.3,2.3,2s1.6,1.3,2.3,2c0,0,0,.3,0,.2h0ZM291.8,330.2c-.3-.1-.5-.3-.8-.5-.2-.2-.5-.4-.7-.6-.5-.4-.9-.8-1.4-1.2-.9-.9-1.9-1.7-2.8-2.7-.2-.2,0-1,.2-.7.9.9,1.9,1.7,2.8,2.5l1.4,1.2c.5.4,1,.8,1.4,1.3,0,.1.2.8-.2.7h.1ZM301.4,380.9c-.4-.2-.7-.5-1.1-.7s-.7-.5-1-.8l-2-1.7c-.2-.1,0-.8.1-.7l2.1,1.6c.4.3.7.5,1,.8s.7.6,1,1c0,0,0,.6-.2.5h.1ZM295.9,373.8c-.1,0-.1-.2-.1-.4,0,0,0-.3.2-.2,1.7,1.2,3.3,2.4,4.8,3.8,0,0,0,.4,0,.3-.8-.5-1.6-1.1-2.4-1.7l-2.4-1.8h-.1ZM296.7,382.3c-.2-.2-.1-1.1.2-.8.7.5,1.4,1.1,2.2,1.6l1.1.7.6.4c.2.1.4.3.5.4,0,.1.2.6,0,.6s-.4-.1-.6-.2l-.6-.3c-.4-.2-.8-.5-1.1-.7-.8-.5-1.5-1.1-2.2-1.6h-.1ZM303.4,390.7c-.5-.2-1-.4-1.4-.7l-1.3-1-2.7-2c-.2-.1-.2-.4-.2-.6s.1-.4.3-.3l2.8,1.9,1.4.9c.5.4.9.8,1.3,1.2,0,.2,0,.6-.1.5h0Z"/>
    <path class="cls-4" d="M401.2,273.9c-2.7-1.8-5.8-3-9-3.5-6.5-1.3-13.2-.5-19.7,0-6.7.6-13.6,1.4-19.9,3.9-10.8,4.4-19.4,13.2-23.9,24.4-.6,1.6-1.4,3.9-3.4,3.8-1.2,0-2.1-1.1-2.1-2.3s0-.6.2-.9c0-.1.2-.3.3-.4,2.8-11.3,10.5-20.4,19.7-26.8,9-6.2,19.2-9.3,29.2-13.4,4.8-2,9.6-4.5,13.5-8.2,3.9-3.8,6.5-8.7,7.7-14.1,2.3-10.3-.4-21.7-7.7-29.2-3.7-3.8-8.5-6.2-13.6-6.8-5.6-.6-11.3,0-16.8-1.5-3,2.9-7.4,4.7-10.8,6.2-4.7,2.2-9.6,4.1-14.4,5.9,4.2.2,8.5.5,12.7.9,4.4.4,8.9,1.1,12.9,3.2,6,3.1,11,10.6,8.5,17.7s-10.3,9.5-16.7,10.7c-3.7.7-7.4.9-11.1.8h0c.1.1.3.3.4.5,0,.2.2.3.3.5.1.2.2.4.1.6,0,0-.1.4-.3.3-.1,0-.3-.2-.4-.2-.2,0-.3-.2-.4-.3-.3-.2-.5-.5-.8-.7l-.6-.5c-1.2,0-2.5-.2-3.8-.3l.6.7c.4.5.8,1,1.2,1.4.5.4.8.9,1.2,1.5,0,.1.1,1.1-.2.9-.2-.2-.5-.4-.6-.6l-.6-.7-1.2-1.3-1.8-2.1c-1.2-.2-2.4-.4-3.6-.6.5.4.9.8,1.3,1.2s1,1.1,1.5,1.7c.2.3.5.6.7.9.3.3.5.6.6,1,0,.2,0,1-.3.8s-.5-.5-.7-.7l-.7-.8c-.5-.5-.9-1.1-1.5-1.6-.9-1-2-2-3-2.9-1-.2-2.1-.5-3.1-.8.7.6,1.4,1.3,2,2s1.1,1.3,1.7,2c.3.3.5.7.8,1.1.3.4.5.7.7,1.2,0,.2,0,1-.3.8s-.5-.6-.8-.9-.5-.7-.8-1c-.5-.7-1.1-1.3-1.6-1.9-1.1-1.3-2.4-2.4-3.6-3.7v-.2l-3.1-.8c2.9,2.2,5.3,5.1,7.1,8.5,0,.1,0,.9-.2.6-1.3-1.5-2.5-3.1-3.8-4.6-1.4-1.6-2.9-3-4.5-4.3-.1-.2-.2-.4-.2-.6-1.6-.4-3.2-.8-4.8-1,.4,1.3.8,2.6,1.1,3.9,1.6,1,3.2,2.1,4.6,3.5.8.7,1.5,1.5,2.2,2.4.7.8,1.4,1.7,1.9,2.7,0,.2,0,1.2-.3.9-.7-.8-1.3-1.5-2-2.4-.7-.8-1.4-1.6-2.1-2.3-1.2-1.2-2.6-2.3-3.9-3.4.2.8.3,1.6.5,2.4,0-.1.2-.1.3,0,1.5,1.4,3,2.8,4.4,4.3.8.8,1.5,1.5,2.2,2.3.8.7,1.5,1.5,2,2.4,0,.1.2.9-.2.8-.4-.2-.8-.4-1.1-.8-.4-.4-.8-.7-1.1-1.1-.7-.7-1.5-1.4-2.2-2.1-1.4-1.4-2.9-2.8-4.2-4.4,0,.7.2,1.3.2,2,.5.4.9.7,1.4,1.1.8.6,1.5,1.3,2.2,2.1.7.7,1.4,1.5,2,2.3.7.8,1.3,1.7,1.8,2.7,0,.1,0,.9-.2.6-.7-.7-1.3-1.4-1.9-2.2-.6-.7-1.3-1.5-2-2.2s-1.4-1.5-2.1-2.2c-.3-.3-.6-.6-.9-.9,0,.6,0,1.3.1,2,1.1,1,2.1,2,3.1,2.9.7.7,1.3,1.5,1.9,2.2.3.4.6.8.9,1.2s.5.9.8,1.4c0,.1,0,.8-.2.6s-.7-.6-.9-1-.6-.7-.9-1.1c-.6-.7-1.3-1.5-1.9-2.2-.9-1-1.7-1.9-2.6-2.8v2.3c1.2.9,2.3,1.9,3.4,3s1.3,1.4,1.9,2.2c.7.8,1.3,1.6,1.7,2.6,0,.2.1,1.2-.3.8-.7-.7-1.3-1.4-1.8-2.1-.6-.7-1.2-1.4-1.9-2.1l-3-3v1.4h0c.2,0,.3.2.5.3.3.2.6.5.9.8.6.6,1.2,1.2,1.7,1.8.6.6,1.1,1.3,1.6,2,.2.3.5.7.7,1.1.3.4.5.9.5,1.4s0,.5-.3.6h-.4c-.9-1.3-1.8-2.5-2.8-3.7s-1.1-1.1-1.6-1.7l-.9-.9-.2-.2c0,.6-.1,1.1-.2,1.7l1.5,1.5c.5.6,1,1.2,1.5,1.8.5.6.9,1.3,1.4,2s.9,1.5,1.1,2.3c0,.1,0,.6-.2.5s-.5-.5-.8-.7c-.3-.3-.5-.6-.7-.9-.5-.6-.9-1.2-1.5-1.9s-1-1.3-1.6-1.9l-.8-.9v-.2c-.2,0-.2.2-.3.2.8,1.1,1.5,2.1,1.9,2.7,4.1,6.7,6,15,6.3,22.9.3,7.3-1.1,14.7-5.8,20.3-.8,1-2.3-.5-1.4-1.5,5-6.1,5.8-14.4,4.9-22.1-.8-7.4-3-14.9-7.4-20.9-1.1-1.5-2.2-2.8-3.5-4.1-.6-.6-1.3-1.2-1.9-1.7-.3-.3-.7-.6-1.1-.9-.6-.3-2.2-.5-2.8,0s-.5,2.6-.6,3.2c-.1,1-.2,2-.3,2.9-.1,2-.1,4,0,5.9.6,8.4,3,16.4,4.3,24.7,1,6.4,1.1,13.3-2.6,18.9,0,.1-.2.2-.3.3,3.1,20.7,6.1,41.4,10.3,61.9,0-3.2-.1-6.3-.2-9.5-.1-6-.7-12.2-.3-18.2.2-2.5,1.1-4.2,2.4-6.2,1.7-2.7,1.1-5.3.8-8.2-.5-4.3.7-8.5,3.4-11.8-3.4-1.5-7-2.4-10.7-2.6-1.3,0-1.3-2.2,0-2.1,4.2.2,8.4,1.3,12.2,3.1,4.6-4.5,9.3-9,15.2-11.4,6.1-2.5,12-2,17.8.8,3,1.5,5.9,3.3,8.9,4.8,3.2,1.5,6.5,2.8,9.8,3.7,6.1,1.7,12.5,2.4,18.8,2.2-10.8-12.2-23.3-25.3-40.2-25.7-.2,0-.3,0-.4-.1-7.3,2.2-14.1,5.7-19.5,11.6-.9,1-2.3-.5-1.4-1.5,9.7-10.5,23.7-13.9,37.2-15.2,6.5-.6,13.1-.6,19.6-1.4,5.9-.7,12.3-2.3,17-6.3,3.4-2.9,2.3-7-.9-9.5v-.2ZM331.4,276.8c2.8-4.3,5.5-8.6,8.3-12.8,2.6-4,5.4-7.8,8.4-11.4,1.4-1.7,3-3.3,4.6-4.8,1.4-1.3,3-3.1,4.8-3.5.3,0,.3,1,.1,1.1-1.4,1.7-3.4,2.9-5,4.4-1.8,1.7-3.5,3.5-5,5.4-2.8,3.5-5.5,7.1-7.9,10.9-2.8,4.3-5.6,8.6-8.3,12.9s-5.6,9.2-8.8,13.3c-.3.4-.3-.7-.2-.9,2.7-5,6.1-9.7,9.1-14.5h-.1ZM316.6,245.8c-.9-1-1.8-2-2.7-2.9-.7-.9-1.7-1.5-2.8-1.6-.3,0-.3-.8,0-.9,1-.2,2,.2,2.8,1,.9.9,1.8,1.8,2.7,2.8,2,2,3.9,4.2,5.6,6.6,0,0,0,.7-.1.6-2-1.7-3.8-3.5-5.5-5.5h0ZM306.7,328.7v.2c.4-1.3.7-2.5,1.1-3.8.2-.6.5,0,.5.3.3,1.5.4,3,.5,4.6.8-1.6,1.4-3.2,1.8-5,.1-.6.5,0,.5.3,0,2.4-.3,4.7-.8,7-.4,1.8-1.2,3.5-1.5,5.4,1.1-2.4,2-4.9,2.8-7.5.3-1.3.6-2.6.9-3.9,0-.6.4,0,.3.4-.5,7.1-3.8,13.7-3.4,21.1,0,.3-.2.5-.3.1-.3-3.5,0-7,.9-10.4l.4-1.5c-.5,1.5-1.1,3-1.8,4.5-.3.6-.5-.2-.5-.5,0-2.1.5-4.3,1.3-6.3.6-1.7.9-3.5,1.2-5.3-.4,1.3-1,2.5-1.6,3.7-.3.4-.5-.5-.5-.6,0-1.4,0-2.8-.3-4.1-.3,1.2-.6,2.4-.9,3.5-.1.5-.4.5-.5,0-.2-.8-.5-1.5-.8-2.3-.7-1.3-1.4-2.7-2-4-.2-.3,0-2,.4-1.4.5.9,1,1.8,1.4,2.8s.9,1.9,1.3,2.8h-.4ZM305.2,267.2c0-.4.3-.4.3,0,.3,8.3,3.6,15.9,4.8,24,.9,6.1.8,13-2.8,18.1-.3.4-.5-.7-.3-.9,7.2-13.4-1.9-27.3-1.9-41.2h-.1ZM324.6,310.3c-1.8,2.2-4.6,3.4-7.1,4.4-.5.2-.5-.9-.4-1.2.3-1,.4-2,.3-3-1.8,2.1-2.4,5.6-5.2,6.5-.4.1-.5-.5-.5-.8v-2.3c-.5,1-1.3,1.8-2.2,2.4-1,.6-2.3.4-3.1-.6,0-.1-.1-.9.1-.7,2.5,1.4,4.2-1.1,5.3-3.1.3-.6.6.2.6.5v2.8c2.6-1.2,3.2-4.7,5.1-6.6s.4,0,.5.3c.3,1.3.4,2.6.2,3.9,1.1-.4,2.1-.9,3.1-1.5.5-.3,1.1-.6,1.6-.9.6-.3,1.2-.5,1.8-.7.2,0,.2.5,0,.5h0ZM374.4,275.2c-3.8.9-7.6,1.3-11.3,2.3-3.8,1-7.5,2.3-11,4-6.8,3.2-13.2,7.6-18.7,12.9-.1.1-.3-.5-.1-.6,5.4-5.8,11.8-10.5,18.8-13.9,6.7-3.2,14.8-6.1,22.2-5.5.2,0,.2.7,0,.8h.1Z"/>
    <path class="cls-1" d="M388.2,267.8c-6.6-.5-13.4.3-20,1-6.2.7-12.5,1.8-18.2,4.4-5.6,2.6-10.7,6.4-14.9,11.1-2,2.3-3.9,4.8-5.4,7.5-.8,1.4-1.6,2.9-2.3,4.4-.3.6-.5,1.1-.7,1.7-.2.4-.3.8-.5,1.2,0,.2-.2.4-.3.6-.1.3-.4.5-.7.6,2.6-11.5,10.4-20.6,19.8-26.9,9.8-6.5,20.9-9.2,31.3-14.1,9.6-4.5,17.1-11.9,19.3-22.9.1-.6.2-1.2.3-1.8.2,0,.3-.1.4-.3,12.1-11.9,24.2-26.6,23.5-45.1-.2-8.2-3.6-15.9-9.4-21.5-5.7-5.2-12.7-8.5-20.1-9.7-10.3-1.8-20.7-.4-30.9,1.2,7.3-12.3,12.9-25.6,16.7-39.5,2.1-8.1,4.6-19.9-3-25.8-8.3-6.4-20.5-.4-27.3,5.5-9.8,8.5-14.9,21.1-20.7,32.7-6.3-5.2-15.5-5.5-22.5-1.5-6.6,3.8-10.8,10.7-12.7,18.2-.7-4.6-1.7-9.1-3.1-13.5-3.3-10.8-7.2-21.4-11.7-31.7-3-7-6.7-18.7-15-20.7-1.9-.4-3.8-.2-5.6.4h-.1c-2.5.7-5.1.4-7.6,1.1-4.2,1.2-7.9,4-10.9,7.2-6.1,6.5-10.6,14.4-13.3,23-2.8,8.7-3.5,18-1.9,27.1,1.7,9.2,6.3,17.2,12.2,24.2,13.5,16.1,34.4,27.5,40.8,48.9-3.7-3.3-7.8-6.1-12.2-8.1-11.3-5.5-24.1-9.3-36.6-7.4-5.4.8-10.6,2.7-15.2,5.6-2.2,1.4-4.3,3.1-6.1,5.1-1.5,1.6-3.8,3.9-4.1,6.3-.3,2.6,1.9,4.3,3.4,5.9,2.1,2.1,4.3,4.2,6.5,6.2,4.3,4.1,9,7.6,14.1,10.7,5.2,3.1,11.1,5,17.1,5.4,6.6.3,12.9-1.6,18.9-4.2-.2.5-.5.9-.7,1.4-1.6,3.8-1.7,8.2-.3,12.1,1.5,4,4.4,7.3,7.1,10.5.2.2.5.3.7.3.2.1.5.1.8,0,2.5-1.1,5.2-1.9,7.9-2.5,1.3,21.8,5.4,43.6,9.3,65,.7,4.1,1.5,8.2,2.3,12.3-10,7-16,17.4-18.8,29.5-.2.9-.4,1.9-.6,2.8-1.4-5.7-3.8-11.1-7.1-15.9-3.7-5.9-8.2-11.3-13.4-15.8-9.6-8-24.2-11.9-34.8-3.5-11.3,9.1-11.7,25.5-7.6,38.5,2.9,9,7.1,17.4,12.4,25.1h0c-5.1,7-6,16.3-3.6,24.6,1.9,6.5,5.6,12.1,10,17-12.9-6.2-27.8-6.7-41.9-5.2-15.1,1.6-33.4,4.9-41,20.6-3.1,6.4-3.9,14.1-.6,20.5,3.8,7.4,11.4,10.5,19.1,11.1,9.2.7,18.5-1,27.2-3.9,9.1-3.1,17.8-7.3,27.1-9.5,5.4-1.4,10.9-1.7,16.4-1,5.1.8,9.6,2.9,14.2,5.3,3.9,2,8,4,12.3,4.8,2.2.4,4.5.5,6.7.2,2.5-.3,6.5-1,7.5,2.4,0,.3.3.6.7.7-2.6,1.6-5.2,3.3-7.8,5-8.2,5.4-17.3,11.3-23.4,19.3-5.6,7.4-7.8,17-6,26.2,1.2,5.7,3.2,11.2,6.2,16.2,2,3.5,5.6,6.6,9.6,5,14.8-2.8,24-17.6,25.4-32.6.4-4.6.3-9.3-.3-13.9-.1-1.1-.3-2.1-.5-3.2-.1-.8-.6-2.1-.2-2.9.5-1.1,3-1.6,4-2s2.3-.9,3.4-1.3c7.6-3.2,14.7-7.5,20.3-13.9,1.2-1.4,2.3-2.8,3.4-4.4,2.8,16.8,7,33.4,12.4,49.5v.8c.9,2,2,4.2,4.1,5.1,1.3.4,2.6.5,3.9.3,1.4,0,2.9,0,4.3-.2,2.4-.2,4.8-.8,6.3-3,.9-1.4,1.2-3.1.9-4.8.4-.2.6-.7.5-1.1-9.8-31.7-12.6-65-15.3-98,0-.3-.1-.5-.3-.7,3.5-5.1,7.7-10.6,9.7-16.6s1.1-10.1-2.8-13.2c-3.4-2.8-7.3-1.5-10.5.8-1.5-5.5-2.9-11-4.1-16.5v-.2c-.2-11.8-.5-23.6-.7-35.4,0-1.3,0-2.5.3-3.7.4-1.2,1.1-2.4,1.8-3.5,1.1-1.8,1.6-3.9,1.5-6-.2-2.6-.8-5.1-.3-7.7.5-2.7,1.8-5.1,3.6-7,2.4-2.5,5-4.8,7.7-7h.2c4.5-.9,8.7,2,11.7,5.2.6.9,1.5,1.4,2.5,1.5,1.2,0,1.7-1.2,1.8-2.2.3-2.3-.3-4.6-1.7-6.4-1.2-1.5-2.8-2.7-4.6-3.4,2.9-.8,6-.9,8.9-.1,3.1,1,6,2.3,8.7,4,11.2,6.4,23.9,9.3,36.6,8.4.6,0,1-.5,1-1.1s-.1-.5-.3-.7c-10.4-11.8-22.3-24.7-37.9-27.4,3.5-.7,7-1.2,10.5-1.5,11.8-1.1,25.5.3,35.9-6.7,2.1-1.4,4.2-3.1,4.8-5.7.4-2.4-.3-4.9-1.9-6.7-3.7-4.5-10.6-5.8-16.1-6.3l.2-.2ZM362.3,161h0c-.3.2-.6.5-.9.7-.6.5-1.2,1-1.7,1.6-.6.6-1.1,1.1-1.6,1.7-.5.6-1,1.3-1.4,2.1,0,.2-.1.5,0,.7,0,0,0,.4.2.3.4-.3.7-.7.9-1.1.3-.4.7-.8,1-1.2.7-.8,1.5-1.6,2.3-2.3.4-.4.8-.7,1.2-1,.2-.2.4-.3.6-.5s.3-.4.4-.7v-.5c1.3-.2,2.6-.4,3.9-.5-1.1.9-2.2,1.8-3.2,2.7l-1.9,1.7c-.7.5-1.3,1.1-1.9,1.8-.1.2-.1,1.1.2,1,.3-.2.7-.4.9-.7l.9-.9,1.9-1.7c1.3-1.1,2.5-2.3,3.8-3.4.1-.2.1-.4,0-.6,2.1-.3,4.3-.5,6.4-.6-1,.8-2,1.6-3,2.5l-2.1,1.8c-.8.6-1.5,1.2-2.1,2-.1.1-.1,1.1.2,1,.4-.2.7-.5,1.1-.8l1.1-.9c.7-.6,1.4-1.2,2.2-1.9,1.4-1.2,2.8-2.5,4.2-3.8h0c3.5-.2,7-.2,10.6.2-.9.5-1.8,1-2.6,1.7-.9.6-1.7,1.3-2.6,2s-1.6,1.4-2.4,2.2c-.8.7-1.6,1.6-2.2,2.5-.1.2-.1,1.3.2,1.1.4-.3.8-.6,1.1-1,.4-.4.8-.7,1.2-1.1.8-.7,1.6-1.4,2.4-2.1s1.6-1.3,2.4-2,1.9-1.2,2.7-2c.2-.4.2-1,0-1.4,7.3.8,14.2,2.9,20.4,7.8.7.6,1.4,1.1,2,1.7h0c-.8.5-1.6,1-2.3,1.5-.8.5-1.6,1.1-2.4,1.7s-1.5,1.2-2.3,1.8-1.6,1.2-2.4,1.9c-.1.1-.1,1,0,.9.8-.4,1.6-.9,2.4-1.5.8-.5,1.6-1,2.3-1.5s1.6-1.1,2.3-1.6c.9-.6,1.7-1.2,2.5-1.9.2-.1.2-.8,0-1.2,11.2,10.8,10.5,28.3,3.3,41.7-4.2,7.8-10.1,14.3-16.2,20.5.6-8.6-2-17.2-7.2-23.8-1.7-2.1-3.6-3.9-5.8-5.4,2-1.7,4-3.3,6.1-4.7,1.2-.9,2.5-1.7,3.8-2.5s2.6-1.7,4-2.6c.2-.1.1-1.1,0-1-1.3.5-2.6,1.1-3.9,1.8-1.3.8-2.6,1.7-3.8,2.6-2.4,1.8-4.7,3.8-6.8,6l-.4-.2c2.6-1.9,5-4.3,6.8-7,1-1.5,2-3.1,2.7-4.8.9-1.6,1.5-3.4,1.8-5.3,0-.1,0-1.1-.4-.7-.4.7-.7,1.5-.9,2.3-.3.9-.7,1.8-1.1,2.6-.8,1.6-1.6,3.1-2.6,4.6-2.1,2.9-4.5,5.6-7.2,7.9-1.6-.9-3.3-1.6-5.1-2.1-6.2-1.6-12.8-.4-19-1.9,1.2-1.5,1.9-3.3,2-5.3.7-7.6-7.5-9.2-12.9-10.5l-2.3-.5c.1,0,.3-.1.3-.3,5.1-6,9.8-12.3,13.9-19h.3l3.8-.6h0ZM298,271.4c.4,4.6,1,9.1,2,13.5,1.7,8.6,5.2,19.4.9,27.7-1.2-8.3-2.5-16.6-3.8-24.9-1.8-10.8-3.7-21.6-6-32.4,3.7-3.7,5.2-9.2,3.8-14.4,3.7-2,7.9-2.7,12.1-2.2v.2c0,.4.3.8.7.9,2.4,7.5,3.2,15.4,2.3,23.2-3.6-4.3-8.8-9.1-11-4.2-.6,1.7-1,3.5-1,5.3-.2,2.4-.2,4.9,0,7.3ZM294.3,239c0-.1,0-.2-.1-.3-.6-1.4-1.6-2.6-2.8-3.6-.6-.4-1.3-.8-2-1,9.8-10.6,23.1-16.1,36.1-21.1l.6-.2c.2.2.4.3.6.3,4.4.3,8.8.5,13.2.8,4,.1,7.9.7,11.8,1.8,6.6,2.1,14.3,9.6,10.5,17.5-3.3,6.9-12.9,8.4-19.5,9-8.7.8-16.9-1-25.3-3.3-7.5-2.1-15.8-3.6-23,.2h-.1ZM324.1,211.2c-12.9,5-26,10.6-35.8,21.1,2-5.7,2.8-11.4-.7-16.8-2.9-4.7-8.3-8.8-8.5-14.9-.3-7.2,6.9-11.9,12.3-14.7,6.9-3.5,14.4-5.7,22.1-6.3,8.1-.6,16.2.4,24.1,2,3.9.8,7.8,1.7,11.6,2.6,3.1.8,7.2,2,7.8,5.8,1.3,7.9-9.7,11.6-15,13.9-5.9,2.6-11.9,4.8-17.9,7.1h0v.2ZM289.5,169c.6,1,1.2,2,1.8,2.9h.2v-.4l-1.7-3.2c.2-1,.4-2,.6-3v-.8c.3.8.6,1.6.9,2.4s.6,1.3.9,2c.2.3.3.6.5.9.2.2.3.5.6.6s.2-.4.1-.5c-.2-.7-.5-1.4-.8-2.1-.3-.6-.6-1.3-.9-2-.4-1-.8-1.9-1.2-2.9,0-.9.2-1.9.2-2.8v.2l1.3,3.2c.3,1,.8,2,1.3,2.9h.2v-.4c-.3-1.1-.7-2.2-1.2-3.3l-1.3-3.2c0-.2-.3-.2-.3,0h0v-2.6c.3,1.1.7,2.1,1.1,3.2.5,1.3,1.1,2.5,2,3.6.2.2.2-.4.1-.5-.5-1.4-1.2-2.7-1.7-4s-1-2.6-1.3-3.9c0-.2-.2-.4-.3-.3v-.2c.2-.2.3-.4.4-.7.1-.9.2-1.7.4-2.6.3,1.3.7,2.6,1.2,3.9.3.7.6,1.5.9,2.2s.7,1.3,1.2,1.8c.2.2.2-.5.2-.6-.3-.7-.6-1.5-1-2.1-.3-.7-.6-1.4-.9-2.1-.5-1.4-1-2.8-1.3-4.3.3-1.2.6-2.4,1-3.6.3,1.3.6,2.6,1,3.9.2.7.4,1.4.5,2,.1.7.3,1.3.6,2,.2.3.2-.4.2-.4,0-.7-.3-1.4-.5-2.1-.2-.7-.4-1.4-.6-2.1-.4-1.3-.8-2.6-1.1-3.9.4-1,.8-2,1.2-2.9v.3c0,1.7.2,3.4.6,5,.2.8.4,1.5.7,2.3.2.8.6,1.5,1.1,2.1.2.2.2-.4.2-.5-.2-.7-.6-1.4-.8-2.1-.3-.7-.5-1.5-.7-2.2-.4-1.5-.6-3-.7-4.5,0-.1,0-.5-.2-.5h0c2-4.3,5.1-7.9,9-10.3,2.6-1.6,5.5-2.5,8.5-2.7-.5,2-.6,4.1-.4,6.2,0,.1,0,.4.2.3s.2-.4.2-.5c0-1.9.1-3.8.5-5.7v-.5c4.7-.4,9.3,1.2,12.8,4.5.4.4,1,.4,1.4,0,0,0,.1-.1.1-.2,5-9.9,9.2-20.6,16.5-29,6.2-7.1,16.8-14.5,26.4-11.1,9.9,3.5,6.9,17.2,4.9,25-5.9,22.2-16.7,42.7-31.4,59.9-.4.4-.3,1.1,0,1.5h0c-7.4-1.8-14.9-2.9-22.4-3.3-8-.2-16.1,1.1-23.6,3.9-6,2.2-12.4,5.3-16.5,10.5.2-1.5.6-3,1.1-4.4,0,.2.1.3.2.5,0,.2.3.5.5.5s.1-.2.1-.3c0-.6-.2-1.1-.5-1.6.3-.7.6-1.3.9-2,.1.3.3.5.4.8l.4.8c0,.1.1.3.2.4s.1.3.3.3.2-.4.2-.5c0-.3-.2-.7-.3-1l-.4-.8-.4-.8c.3-.6.6-1.3.9-1.9h0c.2.7.4,1.3.7,2,.1.3.3.6.5.9,0,.1.2.3.3.4,0,.1.2.2.3.3.2.1.2-.5.2-.5,0-.2-.1-.4-.2-.6l-.2-.5c-.2-.3-.3-.6-.4-.9-.3-.6-.5-1.2-.6-1.8v-.2c.3-.6.6-1.1.9-1.7.6-1.2,1.2-2.3,1.7-3.5l.5.9.3.5s.1.2.2.3c0,0,.1.1.2.2.1,0,.2-.1.2-.2v-.6c0-.2-.1-.3-.2-.5l-.2-.3-.4-.5-.4-.7c.1-.3.3-.6.4-1v.4l1.2,2.1c.2.3.4.7.6,1,0,.2.2.3.3.5,0,.2.2.4.3.5h.1c.2,0,.2-.3.2-.5,0-.5-.3-1-.5-1.4s-.4-.7-.6-1.1l-1.3-2.2s0-.1-.2-.2c.2-.5.4-.9.5-1.4l1.2,2.2c.2.4.5.8.7,1.2s.5.8.8,1.2h.2c.1,0,.2-.4.1-.5,0-.6-.3-1.2-.7-1.6-.3-.4-.5-.9-.8-1.3l-1.4-2.2c.3-.5.5-1.2.7-1.8h0l.3.5ZM243.5,174.2c-6.7-6.3-13.1-13.2-17.2-21.6-.4-.9-.8-1.8-1.2-2.7.4.5.9,1,1.3,1.5,1.3,1.4,2.6,2.8,4,4s2.8,2.4,4.3,3.4c.8.5,1.5,1,2.3,1.4.7.5,1.6.9,2.5,1.1.3,0,.2-.6,0-.8-.7-.5-1.4-1-2.2-1.4-.8-.5-1.5-1-2.3-1.5-1.5-1.1-3-2.2-4.5-3.4-1.3-1.2-2.6-2.4-3.8-3.7-.9-1-1.7-2.1-2.5-3.1-.8-2.4-1.5-5-1.9-7.5.4.9.9,1.7,1.5,2.5.8,1.1,1.6,2.2,2.6,3.2s1.9,1.8,2.9,2.6,2.2,1.5,3.4,2c.3,0,.2-.5,0-.6-1-.8-2.1-1.5-3.1-2.3s-2-1.7-2.9-2.7c-.9-.9-1.7-1.9-2.5-2.9-.4-.5-.7-1.1-1.1-1.6-.3-.5-.7-1.1-1-1.6h0c-.3-2.2-.4-4.5-.4-6.8,1.3,1.8,2.6,3.4,4.1,5,.9.9,1.7,1.8,2.7,2.7.9.9,1.8,1.7,2.9,2.4.3.1.2-.5.1-.7-.9-1-1.9-1.8-2.8-2.7s-1.8-1.7-2.7-2.7c-1.5-1.6-2.9-3.2-4.3-4.9,0-1.5.1-2.9.3-4.4,0-.3,0-.6.1-1,1.2,1.8,2.5,3.5,3.9,5.1.8.9,1.6,1.8,2.4,2.6.8.9,1.7,1.6,2.6,2.3.1,0,.1-.3,0-.4-1.6-1.8-3.5-3.3-5.1-5.2-1.4-1.6-2.7-3.2-3.9-5,.3-2.5.9-5,1.5-7.5.9,1.6,1.9,3.1,3,4.6,1.3,1.9,2.7,3.6,4.3,5.1.2.2.2-.3.1-.5-1.4-1.8-2.8-3.4-4.2-5.2-1.1-1.5-2.1-3.1-3.1-4.7,1.2-3.9,2.7-7.6,4.6-11.2v.3c.8,1.8,1.7,3.6,2.7,5.3.5.8,1,1.6,1.5,2.3.6.8,1.2,1.6,1.9,2.3.2.2.2-.4.1-.6-1.1-1.6-2.3-3.2-3.3-4.9-1-1.6-1.9-3.3-2.7-5.1h-.1c.8-1.4,1.5-2.8,2.4-4.1.2-.3.5-.7.7-1,.5,1.3,1.1,2.5,1.7,3.8.3.6.6,1.3,1,1.9.3.6.7,1.2,1.2,1.8.2.3.3-.5.2-.7-.6-1.3-1.4-2.5-2.1-3.8-.6-1.1-1.1-2.3-1.7-3.4.9-1.4,2-2.8,3.1-4.1.4,1.2.9,2.4,1.5,3.5.3.6.6,1.2.9,1.8.2.3.3.5.5.8s.4.5.6.7c.2.2.2-.4.2-.6-1.1-2.2-2.4-4.4-3.4-6.7,1.2-1.4,2.4-2.6,3.8-3.8.9,2.1,1.8,4.2,2.8,6.3,0,0,.2,0,.2,0v-.5c-.6-2.2-1.5-4.2-2.7-6.1,0,0,.1,0,.2-.2,1.3-1.1,2.6-2,4.1-2.8.7,2,1.5,4,2.4,5.9,0,0,.2.2.3,0v-.6c-.6-1.9-1.4-3.7-2.1-5.6.4-.2.7-.4,1.1-.5,2.4-1,4.8-.9,7.2-1.2h.6c-6.7,17.8-5.2,37.4,1.5,55,3.8,10,8.7,19.4,12.1,29.6,3,9,4.8,18.4,7,27.7,2.4,10.2,5.4,20.7,11.3,29.3.7,1,1.1-.8.8-1.5-9.8-15.5-11.6-34-16.5-51.4-5.4-18.9-17-35.8-19.2-55.7-1.2-11.3.3-22.8,4.2-33.4,1.7-.4,3.4-1,5.2-.6,1.9.6,3.6,1.7,4.9,3.2,3.2,3.4,5,7.9,6.9,12.1,4.5,10,8.4,20.2,11.8,30.6,3.5,10.7,6.7,22.4,5,33.8-.8,5.5-3,10.2-5.6,15-2.3,4.4-4.6,8.8-4.6,14s.1.6.3.7c-1.2,2.3-1.6,4.8-1.3,7.4.5,3.3,2.3,6,4.2,8.5,2.2,2.9,4.8,5.6,6.1,9.1,1.6,4.4.2,8.9-1.5,13.1h0c-1.6-.8-3.1-1.8-4.8-2.5-.2,0-.4-.1-.6-.2.6,0,1.1-.5,1-1.1v-.2c-.8-4.3-2.7-8.2-5.6-11.4.2-.2.3-.6.2-.9-4.6-18.4-19.9-30.1-32.7-42.2h0l.4.4ZM242.5,242.4c-5.1,0-10.1-1.1-14.7-3.4-9.4-4.4-17.1-11.9-24.4-19.3-1.1-1.1-2.3-2.2-1.7-3.9,0-.1.1-.3.2-.4.6.8,1.2,1.5,1.7,2.4s1.2,1.9,1.7,2.8c0,.1.2.1.2,0v-.5c-.5-1.1-1-2.1-1.7-3.1-.5-.8-1.1-1.5-1.7-2.1.6-.9,1.3-1.7,2-2.5.2-.2.4-.4.6-.7.2.6.4,1.1.7,1.7s.5,1,.8,1.6c.2.5.6,1,.9,1.4.3.2.2-.5.2-.6-.2-.5-.5-1-.8-1.5s-.5-1-.7-1.5-.4-1-.6-1.5c.8-.8,1.6-1.6,2.5-2.4,1.1,1.3,2,2.8,2.6,4.4h.2v-.4c-.6-1.6-1.4-3.1-2.5-4.4.6-.5,1.3-1,1.9-1.4.1,0,.3-.2.4-.3.6.7,1.3,1.4,1.9,2.2.3.4.6.8.9,1.2s.3.4.5.6c.2.2.3.3.5.4.2.1.1-.4.1-.5-.5-1-1.1-1.9-1.8-2.7-.5-.6-.9-1.1-1.4-1.6.8-.5,1.6-1,2.4-1.4l1.2,1.8c.2.3.4.6.7,1,.1.1.2.3.3.4s.2.3.4.3.2-.4.1-.5c0-.2-.2-.4-.3-.6-.1-.2-.2-.4-.3-.5-.2-.3-.4-.6-.7-1l-.8-1.1c.6-.3,1.1-.5,1.7-.8h0c.6.7,1.1,1.3,1.5,1.9s.4.6.6.9l.3.5c0,.1.2.4.3.5s.2-.3.2-.4c0-.5-.2-.9-.4-1.3-.2-.4-.4-.8-.6-1.1-.3-.5-.8-.9-1.2-1.3.9-.4,1.7-.6,2.6-.9.5.5.9,1.1,1.3,1.6.4.6.8,1.3,1.2,1.9h.2v-.4c-.3-1.3-1-2.4-1.9-3.3.6-.2,1.2-.3,1.9-.5v.2c.4.4.8.8,1.2,1.3.2.2.3.5.5.7h0v.2h0v.2s.1.2.2.2c.2,0,.3-.3.2-.5,0-.4-.2-.8-.4-1.1s-.3-.6-.5-.9c-.2-.2-.3-.4-.5-.6.3,0,.6-.2.9-.2l.9-.2c.4.3.8.6,1.1,1,.2.3.4.5.6.8,0,.2.2.3.3.5,0,.1.2.2.2.4,0,0,.1.1.2,0v-.4c0-.4-.2-.9-.4-1.3-.2-.4-.4-.7-.7-1.1l-.2-.2c.6,0,1.1-.1,1.7-.2.5.4.9.9,1.3,1.5l.3.4c0,.1.2.3.3.4,0,.1.2.2.3.4,0,.1.2.3.3.3s.2-.3.2-.4c0-.4-.2-.9-.4-1.3-.2-.4-.4-.7-.6-1-.1-.2-.3-.3-.4-.5h3l.7.7c.1.1.2.3.3.4v.2c.1,0,.2.1.2.1h0v.2c.1,0,.2.1.2.1h0c0,.2.2.3.2.5s.2.2.3,0,.1-.5,0-.8c-.1-.4-.3-.8-.5-1.2,0-.1-.2-.3-.3-.4.8,0,1.5,0,2.3.1,0,.1.2.2.3.4.2.3.4.6.6.9s.2.3.3.5c0,0,0,.1.2.2l.2.2c0,0,.1,0,.2,0v-.3c0-.1,0-.2-.1-.3,0,0,0-.2-.2-.3l-.3-.5c-.1-.2-.3-.4-.4-.6.9,0,1.9.2,2.8.4.1,0,.2.2.4.3l.7.7c.2.2.3.5.5.8h0c0,.1,0,.2,0,.1h0c0,.3.1.4.2.6.1.2.2,0,.2-.1,0-.5,0-.9-.2-1.3-.1-.3-.3-.6-.5-.9.7.1,1.4.3,2.1.4.3.5.6,1.1.9,1.6.2.3.3.6.5.9,0,.1.2.3.3.4,0,.1.2.3.3.4.2.1.2-.4.2-.5-.1-.4-.3-.7-.5-1.1-.2-.3-.4-.6-.6-.9l-.4-.6c.6.1,1.3.3,1.9.5.3.4.7.9.9,1.3.2.2.3.5.4.8l.2.4c0,.1.1.3.3.4s.2-.4.2-.5c0-.4-.2-.8-.3-1.1s-.3-.6-.5-.8h0c.7.1,1.4.3,2.1.6h0l.9,2c.3.6.6,1.2,1,1.8h.2v-.4c0-.4-.2-.8-.4-1.1s-.3-.6-.5-1l-.5-1c1.3.4,2.6.9,3.9,1.4.2.4.4.7.6,1.1l.5,1c.2.3.4.6.6.9h.2v-.4c-.1-.4-.3-.8-.5-1.2-.2-.3-.3-.6-.5-1h0c.9.4,1.8.7,2.7,1.1.2.4.5.8.6,1.2s.3.6.4,1l.2.4c0,.1,0,.2.2.3h.1c.2.3.3-.2.3-.3v-.8c0-.2-.1-.4-.2-.5-.1-.3-.2-.6-.4-.9l1.9.9c.2.4.4.7.6,1.1.1.3.2.5.3.7h0v.4c0,.2,0,.3.2.4.2.2.3-.1.3-.3,0-.4,0-.8-.2-1.1,0-.3-.2-.5-.3-.8.6.3,1.2.6,1.9.9.4.4.7.9.9,1.3.2.3.3.6.4.9,0,.3.2.5.3.8,0,.1.1.3.2.5,0,.1.1.3.2.2s.1-.3,0-.5,0-.5,0-.7c0-.4-.1-.8-.3-1.1,0-.1-.1-.3-.2-.4.8.5,1.6.9,2.4,1.4v.6s0,.2.1.3l.5.7.2.3s0,.1.1.2c0,0,.1.1.2.1s.2,0,.3-.2v-.6c0-.1,0-.2-.1-.4v-.2h-.2c5.9,3.8,10.8,9.2,12.1,16.6,0,.2.2.4.3.6-1.5-.3-3-.4-4.5-.2-5.5.6-10.7,3.4-14.3,7.9-.2-.1-.5-.1-.8,0-5.4,2.9-11.4,5-17.7,5.1h0l.7-.2ZM266.7,262.5c-4.3-4.9-8.7-10.6-6.9-17.7,1.7-6.9,7.7-11.3,14-12.7,1.8-.5,3.7-.5,5.6-.2,1.6.5,3.2,1.3,4.7,2.2.3.1.6.3.8.4-.4.4-.8.8-1.2,1.2-.7.8-1.4,1.6-2.1,2.4-1.6,1.8-3,3.8-4.4,5.7-2.8,3.9-5.3,8-7.6,12.3-.1.2,0,1.1.2.8,2.7-3.8,5-7.8,7.7-11.6,1.3-1.8,2.7-3.6,4.1-5.4s3.2-3.2,4.5-5c2.4,1,4.7,1.6,6.1,4.3.2.4.4.9.6,1.4,0,.1,0,.3.1.4,2,5.8-.9,12.1-6.1,15.2-6.2,3.7-13.6,3.6-20.1,6.4h0ZM274.7,355.6c3-5.6,7.2-10.3,12.3-13.9,2.1,10.6,4.2,21.2,6,31.8v.2c-.3,3.6-.3,7.2-.3,10.8-.1,5.7-.9,11.4-2.4,17-2.9,12-7.6,24-6.2,36.5-1.2-.7-2.4-1.2-3.7-1.5-.6-.1-1.2-.2-1.9-.2h0c.3-6.8-1.2-13.4-4.3-19.3-1.6-3-3.6-5.9-4.8-9.1-1.2-3.5-1.7-7.1-1.7-10.8-.4-13.9.3-29,7-41.5ZM269.6,471.4c-1.9-1.3-4.1-2.2-6.4-2.5-2.7-.4-6,.6-8.5-.7-6.6-3.4,2-14,4.8-17.3,3.9-4.7,9-9.6,14.6-11.7,6.4-2.4,13.8,1.8,14.6,9.1,0,.3.2.5.4.7-3.4,10.5-6.2,21.3-8.1,32.2-1.2.8-2.4,1.6-3.6,2.3v-.3c-.9-4.9-3.7-9.2-7.8-11.8h0ZM270.2,414.2c1.8,2.9,3.3,5.9,4.5,9,1.4,4.2,2,8.6,1.8,13.1v.2c-2.5.4-4.8,1.3-6.9,2.7.5-5.6.7-11.3.7-16.9s0-5.3-.1-7.9h0v-.2ZM286.1,439.5c.1-.2.1-.4.1-.7-2-13.4,3.7-26.2,6.5-38.9,1.1-4.9,1.8-9.9,1.9-15,.6,4,1.4,8,1.9,12,1.1,9.6,2.1,19.1,3.2,28.7-2.1,3.5-4,7.1-5.7,10.8-1.4,3.1-2.7,6.3-3.9,9.5-.7-2.5-2.1-4.7-4-6.4h0ZM213.7,391.4c.7.7,1.4,1.4,2.2,2.1s1.6,1.3,2.5,2c.9.6,1.8,1.1,2.8,1.6.2.1.2-.5,0-.6-.9-.6-1.8-1.3-2.6-1.9s-1.9-1.4-2.7-2.1c-1.3-1.1-2.5-2.3-3.6-3.5-.7-1.3-1.4-2.7-2-4-.5-1.1-1.1-2.3-1.5-3.5,1.1,1.1,2.2,2.1,3.3,3.1l2.7,2.4c.8.8,1.7,1.6,2.7,2.3.2.1.2-.4,0-.5-.8-.9-1.7-1.7-2.7-2.5l-2.7-2.4c-1.2-1.1-2.5-2.1-3.7-3.2-.6-1.6-1.2-3.2-1.8-4.8,1,1,2,2,3,2.9l2.5,2.4c.4.4.8.8,1.3,1.1.4.4.8.7,1.2,1,.2.1.1-.4,0-.5-.8-.9-1.6-1.8-2.5-2.5l-2.5-2.4c-1.1-1.1-2.3-2.1-3.5-3.2-.7-2.1-1.2-4.3-1.7-6.5,1.1,1.4,2.3,2.7,3.5,4,.7.7,1.4,1.4,2.1,2.2.4.4.7.7,1.1,1,.3.4.7.7,1.1.9.2.1.2-.4,0-.5-.7-.8-1.4-1.5-2.2-2.1-.7-.7-1.4-1.4-2.1-2.1-1.3-1.3-2.6-2.7-3.8-4.2-.3-1.6-.5-3.3-.6-4.9,1.1,1.1,2.3,2.3,3.4,3.4.7.7,1.3,1.4,1.9,2l.9,1c.3.4.6.7.9,1,.2.1.2-.4.1-.5-.6-.8-1.2-1.5-1.9-2.1-.7-.7-1.3-1.4-2-2.1-1.1-1.1-2.3-2.2-3.5-3.2-.1-2,0-3.9.2-5.9.7,1.1,1.5,2.2,2.3,3.3.6.7,1.2,1.5,1.8,2.2s1.2,1.4,2,2c.2.2.2-.6.1-.7-.6-.7-1.2-1.4-1.8-2.1s-1.2-1.4-1.8-2.1c-.8-1.1-1.6-2.2-2.4-3.4.5-3.9,1.7-7.6,3.7-10.9,1,1.5,2.1,3,3.1,4.4.5.8,1.1,1.5,1.6,2.3.5.7,1,1.4,1.6,2,.2.1.1-.4.1-.5-.4-.8-.9-1.6-1.5-2.3-.5-.8-1.1-1.5-1.6-2.2l-3-4.2c.6-1,1.3-2,2.1-2.9v.5c.9,1,1.7,2,2.5,2.9s1.5,2.1,2.2,3.1c0,.1.2,0,.2,0v-.5c-.6-1.2-1.4-2.3-2.2-3.3-.8-1.1-1.7-2-2.6-2.9h0c.8-.9,1.7-1.8,2.6-2.5.6.6,1.1,1.2,1.5,1.8.3.4.6.9.9,1.3.2.2.3.5.4.7.1.3.3.5.4.7.3.3.3-.5.2-.6-.2-.6-.5-1.1-.8-1.6s-.6-1-1-1.4c-.4-.5-.8-.9-1.2-1.3.9-.7,1.9-1.3,2.9-1.8,1.6,1.4,2.9,3,3.9,4.9,0,.1.2.1.3,0v-.6c-.7-1.8-1.9-3.4-3.4-4.6,1.1-.5,2.3-.9,3.4-1.2.7.5,1.3,1,1.9,1.7.4.4.7.9,1.1,1.4.3.5.5,1,.8,1.5,0,.1.2,0,.2,0v-.5c-.2-.6-.5-1.2-.8-1.7s-.7-1-1.1-1.4c-.4-.4-.7-.7-1.1-1,1.1-.2,2.3-.4,3.4-.4.9,1,1.7,2.1,2.6,3,.5.5.9,1.1,1.4,1.6.3.3.5.5.8.8s.5.4.7.6c0,0,.2-.1.2-.2v-.4c-.2-.3-.4-.6-.7-1s-.5-.5-.7-.8c-.5-.5-.9-1.1-1.5-1.6-.6-.7-1.3-1.4-1.9-2.1,1,0,2,0,3,.2,0,.1,0,.2.1.3,1.1.7,2.1,1.6,2.9,2.7.4.5.8,1,1.1,1.6.2.3.3.6.5.9s.3.5.5.8c0,.1.2.1.2,0v-.5c-.1-.4-.3-.7-.4-1.1-.2-.3-.3-.6-.5-.9-.4-.6-.8-1.1-1.2-1.7-.6-.7-1.3-1.3-2.1-1.9,1.4.2,2.8.5,4.1,1l3.3,3.7c.6.6,1.1,1.3,1.7,1.9.5.7,1.1,1.2,1.7,1.7.2.1.2-.4.1-.5-.5-.7-1-1.4-1.6-2s-1.1-1.3-1.7-2l-2.2-2.4c1,.4,2,.8,2.9,1.2v.6c1.4,1,2.6,2.1,3.8,3.3.5.6,1,1.2,1.5,1.9s1,1.3,1.4,2c0,.1.2,0,.2,0v-.4c-.8-1.5-1.8-2.9-3-4.2-.9-1-1.9-1.9-3-2.7.6.3,1.3.7,1.9,1.1,2.2,1.4,4.2,3,6.1,4.7l1.9,2.9c.8,1.3,1.7,2.5,2.6,3.7.1.2.2-.3.1-.4-.8-1.3-1.7-2.6-2.5-3.9-.1-.2-.3-.4-.4-.6,2.7,2.8,5.3,5.9,7.5,9.2,4.5,6.5,8.5,13.7,9.3,21.8,0,.3.2.6.5.8-.6,4.9-.9,9.8-.8,14.8,0,6,.1,11.9,2.2,17.4-.4.5-.3,1.2.1,1.5,0,0,.1,0,.2.1v3.5c0,1.2.2,2.3.2,3.5v7.3c0,4.9-.3,9.8-.8,14.7,0,.2,0,.4.2.6-1.5,1.1-2.9,2.2-4.2,3.4-.3.3-.6.5-.9.8,0,0-.1-.1-.2-.1-6-3.1-10.8-8-15.7-12.8s-9.4-9.4-13.8-14.3c-7.3-7.8-13.8-16.4-19.2-25.7h0l.8-.2ZM264.4,482.2c-4.2.4-7.9.4-11.9-1-7.7-2.7-14.5-7.7-22.7-9-18.3-2.8-34.6,8.6-51.8,12.7-8.2,2-17.7,3.1-25.9.5-6.3-1.8-11.1-7.2-12.4-14,.2.2.3.4.5.6.4.4.8.9,1.3,1.3.9.8,1.8,1.6,2.7,2.3,1,.7,1.9,1.3,3,1.9.5.3,1,.5,1.6.8.5.3,1,.5,1.6.5s.2-.6,0-.7c-.4-.4-.9-.6-1.5-.9-.5-.3-1-.5-1.5-.8-1-.6-2-1.3-3-2s-1.9-1.4-2.7-2.2c-.4-.4-.8-.8-1.2-1.2s-.4-.4-.7-.6c-.1,0-.2-.2-.4-.2-.1-1.1-.1-2.3,0-3.5,0-1.1.3-2.2.5-3.3,1.2,1.7,2.5,3.4,3.8,4.9.8.9,1.7,1.8,2.6,2.6.9.9,1.8,1.6,2.8,2.3.2.1.2-.5.1-.6-.8-.9-1.8-1.7-2.7-2.5s-1.7-1.7-2.6-2.6c-1.4-1.5-2.7-3.1-3.9-4.7.4-1.7,1.1-3.4,1.9-5,.9,1.4,1.9,2.7,3.1,3.9.7.7,1.5,1.4,2.3,2.1s1.6,1.2,2.5,1.7c.2,0,.2-.4.1-.5-1.6-1.2-3.2-2.5-4.7-3.9-1.1-1.2-2.1-2.4-3-3.8.9-1.7,2-3.3,3.2-4.8.8,1.4,1.7,2.7,2.8,4,1,1.2,2.2,2.3,3.5,3.2.2.1.2-.5.1-.6-1.1-1.2-2.2-2.3-3.3-3.5-1-1.1-1.8-2.3-2.6-3.6,1-1.1,2.1-2.2,3.3-3.2.9,1.1,1.8,2.2,2.8,3.3.5.6,1.1,1.1,1.6,1.6s1.1,1,1.8,1.4c.2.1.1-.4,0-.5-.5-.7-1.1-1.2-1.6-1.9s-1.1-1.2-1.6-1.8c-.8-.9-1.6-1.8-2.3-2.8.5-.4,1.1-.8,1.6-1.2s1.2-.7,1.8-1.1c0,.2,0,.4.2.5.9.7,1.7,1.4,2.5,2.2.4.4.8.7,1.2,1.1s.8.7,1.2,1c.2.1.2-.4.1-.5-.7-1-1.4-1.8-2.3-2.6-.8-.7-1.6-1.3-2.4-2,.9-.5,2-1.1,3-1.5h0c.9.4,1.8.9,2.6,1.5.4.3.8.6,1.2,1s.7.7,1.1,1c.1.1.2-.2.2-.2v-.5c-.7-.8-1.4-1.5-2.3-2.1-.6-.4-1.2-.8-1.8-1.1.9-.4,1.7-.7,2.6-1,0,.1,0,.2.2.2,1.1.6,2.3,1.3,3.4,2.1l1.6,1c.5.4,1.1.7,1.7,1,.3.1.2-.6.1-.7-.5-.5-1-.9-1.6-1.3-.5-.4-1.1-.7-1.7-1.1-.9-.5-1.8-1.1-2.7-1.6,1.7-.6,3.4-1.1,5.2-1.5.7.4,1.3.8,2,1.3.4.3.9.7,1.3,1,.4.4.9.7,1.3.9.3.1.2-.5.1-.6-.7-.9-1.6-1.7-2.6-2.3l-.9-.6c1.6-.4,3.2-.7,4.9-1,.9.6,1.9,1.2,2.8,1.8.6.3,1.1.7,1.7,1,.5.3,1.1.6,1.7.7.3,0,.2-.6,0-.7-.5-.5-1-1-1.6-1.3-.6-.4-1.1-.7-1.7-1l-1.2-.7h0c1.4-.2,2.9-.4,4.3-.6,1,.5,1.9,1.1,2.8,1.8.6.4,1.1.9,1.7,1.4.5.5,1,.9,1.5,1.2.2,0,.1-.3,0-.4-.8-1.3-1.8-2.4-3.1-3.2-.5-.3-1-.6-1.5-.9,1.6-.2,3.2-.3,4.8-.5.6.4,1.3.8,1.9,1.3.5.4.9.8,1.4,1.2l.6.6c.2.2.5.4.7.6s.3-.4.2-.6c-.2-.3-.4-.5-.6-.8-.2-.2-.5-.5-.7-.7-.4-.4-.9-.7-1.3-1-.3-.2-.5-.4-.8-.5,1.2,0,2.5-.1,3.7-.2,1,.6,1.9,1.2,2.9,2s1,.8,1.5,1.3c.2.2.5.5.7.7s.5.5.7.5.2-.5.2-.6c-.3-.6-.8-1.2-1.3-1.6-.5-.5-1-.9-1.5-1.3s-.9-.6-1.3-1h4.8l2.6,1.9c1.1.8,2.3,1.6,3.5,2.2.3.1.2-.5.1-.6-1.1-1-2.2-1.8-3.5-2.6l-1.1-.7c2.4.1,4.8.3,7.2.7.4.2.8.3,1.1.5.7.4,1.4.8,2,1.2s.7.4,1,.7.7.4,1,.6.3-.6.1-.8c-.5-.6-1.1-1.1-1.7-1.6,1.8.4,3.6.8,5.3,1.4,2.5,1.7,5.2,3.3,7.9,4.7.3.1.3-.6,0-.7-1.3-.9-2.6-1.8-4-2.6,3.5,1.3,6.8,3.1,9.9,5.2.9.6,2.1-.9,1.2-1.6-6-5.6-11.6-12.2-14.4-20.2-2.6-7.7-2.3-16.8,2.5-23.5,2.6,3.7,5.3,7.2,8.1,10.6,5.2,6.3,10.8,12.1,16.6,17.9,5.7,5.7,11.4,11.8,18.4,15.6-4.1,4-8.1,8.9-10,14.2-.9,2.7-1,5.9.8,8.2s4.9,2.4,7.6,2.3c7.6-.2,14.5,4.8,15.9,12.9,0,.3.2.6.5.7l-3.8,2.3v-.4c-1.1-3.4-4.5-4.3-7.7-4.1h.6ZM301.2,486.5c-5.4,6.6-12.3,11.2-19.9,14.5-2,.9-4.1,1.6-6.1,2.4-1.3.5-2.6.9-3.2,2.3s-.2,3,0,4.5c.4,2.3.7,4.7.8,7,.6,8.8-.6,18-5,25.6-4,7.1-10.6,12.7-18.3,14.4h-.7s-.2,0-.3,0c-.3,0-.6,0-.9.2-.2,0-.3,0-.5.2-3.9.2-6.4-5.6-7.8-8.6-2.2-4.5-3.7-9.3-4.3-14.3-.8-9.1,2.3-18.1,8.6-24.6,6.1-6.4,13.6-11.5,21-16.3,7.3-4.8,14.8-9.1,21.9-13.9,3.9-2.7,7.7-5.4,11.3-8.4s8.1-6.7,13.1-5.4c-1.6,7.5-4.9,14.5-9.6,20.4h0ZM285.6,478.1c4.8-5.5,9.6-11,14.2-16.6.5,1.6.9,3.1,1.4,4.7h0c-.4.4-.9.7-1.3,1-4.1,2.9-7.8,6.3-11.9,9.2-.8.5-1.7,1.1-2.5,1.7h0ZM318.9,533.3l-.3-1h.1c.3.2.6.4.9.5l-.7.5ZM333.9,536.9c-1.4,1.5-3.6,1.6-5.4,1.7l-3.4.2c-1,.2-2,0-3-.2-1.2-.7-2.1-1.8-2.5-3.1,4.2-3.8,10-4.9,15.2-3.1.5,1.5.2,3.2-.9,4.4h0ZM334.8,530.3c-4.7-1.5-9.7-.9-13.9,1.6-.2,0-.4-.2-.6-.3-.4-.2-.9-.4-1.3-.6-.2,0-.5-.3-.7-.5h-.2c-.2-.6-.3-1.1-.5-1.6l.6.2c.8.4,1.5.7,2.2,1.1.2,0,.2-.4,0-.5-.7-.5-1.5-.9-2.2-1.3-.3,0-.6-.2-.9-.4-.2-.6-.3-1.1-.5-1.7.2,0,.3.2.5.3.4.2.9.5,1.4.6.2,0,.5.2.7.2h.8c.3,0,.3-.7,0-.8s-.4-.3-.7-.4l-.7-.3c-.5-.2-.9-.4-1.4-.6-.4-.2-.8-.5-1.2-.7-.3-.9-.5-1.7-.8-2.6.3.2.6.4.9.6.6.3,1.1.6,1.7.9.6.3,1.1.5,1.8.6.2,0,.2-.5,0-.6-.6-.4-1.1-.7-1.7-1s-1.2-.6-1.7-.9-.9-.5-1.3-.7c0-.3-.2-.6-.3-1,.4.3.8.5,1.2.8.5.3,1,.6,1.6.8.3,0,.6.2.9.3h.9c.3,0,.3-.7,0-.8-.1,0-.3,0-.4-.2-.1,0-.2-.2-.4-.3l-.8-.4c-.5-.3-1.1-.5-1.6-.8-.6-.4-1.3-.8-1.9-1.2-.2-.8-.5-1.6-.7-2.4.7.6,1.5,1.1,2.3,1.6,1,.7,2.2,1.2,3.4,1.4.3,0,.2-.5,0-.6-1-.7-2.2-1.3-3.3-2-1-.6-2-1.4-2.9-2.2-.1-.4-.2-.9-.3-1.3.7.5,1.4,1,2.2,1.4.4.3.9.5,1.3.7l.7.3c.2,0,.5.2.7.2.3,0,.2-.6,0-.8-.4-.3-.9-.6-1.3-.8-.4-.3-.9-.5-1.3-.8-.9-.5-1.7-1.1-2.5-1.7h-.2c-.2-.7-.4-1.4-.5-2.1h0c.9.6,1.7,1.1,2.6,1.6.4.2.9.4,1.3.6.4.3.9.4,1.4.5.3,0,.2-.6,0-.7-.4-.4-.9-.6-1.4-.9l-1.3-.7c-.9-.5-1.8-1.1-2.6-1.6-.2-.1-.3.1-.4.3-.5-1.8-.9-3.6-1.3-5.4.6.4,1.2.8,1.9,1.2.5.3.9.5,1.4.7.3.1.5.2.8.3.2.1.5.2.7.2.3,0,.2-.6,0-.8-.2-.2-.4-.4-.7-.5l-.7-.5-1.4-.9c-.8-.5-1.6-1-2.4-1.6-.2-.8-.4-1.7-.6-2.5,1.5,1.2,3.2,2.2,5,2.8.3,0,.3-.6,0-.7-1.8-1-3.5-2.1-5.1-3.3h-.3c0-.4-.2-.7-.2-1.1.6.4,1.2.9,1.9,1.2.5.3.9.6,1.5.8.2.1.5.2.7.3.2.1.5.2.8.2s.2-.6,0-.8c-.2-.2-.4-.3-.7-.5l-.7-.4c-.5-.3-1-.5-1.5-.8-.8-.5-1.6-1-2.4-1.6-.4-2-.8-4.1-1.2-6.1.8.6,1.6,1.1,2.4,1.6,1,.7,2.1,1.2,3.3,1.4.2,0,.2-.4,0-.5-1-.8-2.1-1.6-3.2-2.2-.9-.6-1.9-1.3-2.8-2-.2-1.2-.4-2.4-.6-3.6,0-.3-.3-.6-.6-.7,3.4-5.3,5.8-11.3,7-17.6.1-.6-.2-1.1-.7-1.3-1.2-.4-2.5-.7-3.8-.6.1-.2,0-.5,0-.6-.5-.3-1-.5-1.5-.6-.5-.2-1-.4-1.5-.6-.9-.4-1.8-.9-2.7-1.5-.2,0-.3.2-.3.3,0,.2,0,.5.1.7.8.8,1.7,1.5,2.8,1.9.5.2,1,.4,1.5.5h.2c-1.4.2-2.7.7-4,1.3-.5-1.6-.9-3.2-1.4-4.8,0-.3-.2-.5-.5-.6.4-.5.8-1,1.2-1.4,0,.3,0,.5.2.7,1,.6,2,1.2,3,1.7.5.2,1,.4,1.5.6s1.1.5,1.5.2c.1-.1.1-.3,0-.5-.4-.5-.9-.8-1.5-1-.5-.2-1-.5-1.5-.7-1-.5-2-1-2.9-1.5.4-.5.8-1,1.2-1.5,0,.2,0,.4.2.5.5.3.9.6,1.4.9l.4.2c.1,0,.3.1.4.1h.8c.1,0,.2-.2.2-.3s0-.3-.1-.4-.3-.1-.4-.2h-.2c0-.2-.1-.2-.2-.3-.1,0-.3-.1-.4-.2l-.4-.2c-.4-.2-.9-.5-1.3-.8.9-1.1,1.7-2.2,2.6-3.2h.1c.2.1.4.2.6.3h.5s.1-.2.1-.3v-.4s-.2-.2-.3-.2c0,0-.2-.1-.3-.2h-.1c.5-.7,1.1-1.4,1.6-2,3.7-4.7,7.2-9.5,10.7-14.4,2.7,32.1,5.5,64.4,14.8,95.2l.7.8ZM324,403.7c2.4,0,4.5,1.6,5.4,3.9,1.3,2.9.9,6-.2,8.9-2.1,5.6-6,10.7-9.4,15.6-3.7,5.4-7.5,10.6-11.5,15.7-7.8,10-16.2,19.6-24.5,29.1,3.6-17.6,8.5-35.2,17.7-50.4.1-.1.2-.3.3-.5,2.5-4,5.2-7.9,8.2-11.5,1.8-2.1,3.7-4,5.6-5.9,2.3-2.2,5.1-5,8.4-5h0ZM316.3,405.3c-.4.3-.8.7-1.2,1-5.3,4.8-9.9,10.4-13.7,16.5-.2-1.4-.3-2.8-.5-4.2h0c.3.1.5.3.7.5s.4.3.6.5c0,0,.2.1.3.2.1,0,.2.2.4.2s.2-.5.2-.7c-.1-.3-.3-.6-.6-.9-.2-.2-.4-.4-.7-.6-.2-.2-.5-.3-.8-.4h-.3l-.6-5.1s.1.2.2.2c.2.3.5.5.7.7.3.2.6.5.9.7l.5.3h.2c.1.2.3.2.4.1s.2-.3.2-.4c0-.2,0-.4-.1-.6,0-.1-.1-.2-.2-.3,0,0-.2-.1-.3-.2l-.4-.3h-.1l-.2-.2-.4-.3-.7-.7c-.2-.2-.4-.5-.7-.7h-.2l-.3-2.9.7.7c.6.5,1.3,1,2,1.4s1.4.7,2.1,1c.3.1.7.3,1,.4.4,0,.8.1,1.1.1s.1-.4,0-.5c-1.3-.8-2.7-1.4-4.1-2.2-1.1-.6-2.1-1.3-3.1-2.1l-.5-4.6c.5.6,1.1,1.2,1.7,1.7.5.5,1.1.9,1.7,1.2.6.4,1.2.6,1.9.8.2,0,.2-.4,0-.5-.5-.5-1.1-.8-1.7-1.3s-1.1-.8-1.7-1.3c-.8-.6-1.5-1.3-2.1-2h0c-.1-1.1-.3-2.3-.4-3.4.6.5,1.1,1,1.7,1.4s1.1.8,1.6,1.2c.5.4,1.1.8,1.8,1,.3,0,.3-.6.2-.8-.5-.4-1.1-.8-1.7-1.2-.6-.4-1.1-.7-1.7-1.1s-1.3-1-2-1.5c-.2-1.7-.5-3.4-.7-5.1.6.5,1.2,1,1.8,1.4s1,.7,1.5,1.1c.3.2.5.3.8.5s.5.3.9.4c.3,0,.3-.5.1-.7-.5-.4-1-.8-1.5-1.1-.5-.3-1-.7-1.5-1-.8-.5-1.5-1.1-2.2-1.6-.5-3.3-1-6.6-1.4-9.9-.5-3.9-1.3-7.8-2-11.7.7.5,1.3,1.1,2,1.7l1.2,1c.2.2.4.4.6.5s.4.2.7.4.2-.2.3-.3c0-.2,0-.4-.1-.5-.2-.2-.4-.5-.6-.7s-.4-.4-.7-.5c-.4-.3-.8-.7-1.3-1-.8-.6-1.6-1.1-2.4-1.7-.3-1.4-.6-2.8-.8-4.2,0-.5-.2-1-.3-1.5.5.5,1.1,1,1.6,1.4.9.8,1.8,1.4,2.8,2,.3.2.3-.7.2-.8-.9-.7-1.8-1.4-2.7-2.1-.7-.5-1.4-1.1-2.1-1.7-.3-1.8-.7-3.7-1.1-5.5.5.4,1,.8,1.5,1.2,1,.9,2.1,1.7,3.1,2.5.2.2.3-.4.2-.5-.9-1.1-2-2-3.1-2.9-.6-.5-1.2-.8-1.9-1.3l-1.3-6.7c.9.9,2,1.7,2.9,2.6s1.1.9,1.6,1.4l.8.6c.3.2.6.4.9.6.3.1.3-.6.2-.8-.5-.5-1-1-1.6-1.5s-1.1-.9-1.7-1.4c-1.1-.9-2.2-1.7-3.3-2.5-.4-1.8-.7-3.7-1-5.5.7.6,1.4,1.2,2.1,1.8l1.4,1.1.7.6c.2.2.5.4.7.5.3.1.2-.5.1-.6-.4-.4-.9-.8-1.4-1.1l-1.4-1.1c-.8-.6-1.6-1.1-2.4-1.6-.3-1.7-.6-3.4-.9-5.1.9.9,1.8,1.7,2.8,2.4.5.4.9.7,1.5,1.1.1,0,.3.1.4.2.1,0,.2.1.4.2.3.2.6.3.8.4s.3-.6,0-.8l-.8-.6c-.3-.2-.5-.5-.7-.6-.5-.3-.9-.7-1.5-1-.9-.7-1.9-1.4-2.8-2.1-.1-.1-.2,0-.3.1-.9-4.9-1.8-9.9-2.7-14.8.9.9,1.8,1.8,2.8,2.7.5.5,1,.9,1.5,1.4.3.2.5.4.8.6.2.2.5.4.8.5.3,0,.2-.6.2-.8-.2-.3-.4-.6-.7-.8-.2-.2-.5-.5-.8-.7-.5-.5-1.1-.9-1.6-1.3-1-.8-2-1.6-3.1-2.4l-.5-2.9c1.9,1.8,4,3.4,6.3,4.8.2.1.2-.4.1-.5-2.1-1.8-4.4-3.5-6.6-5.3-.2-1.3-.4-2.5-.6-3.8h0c.9.9,1.8,1.7,2.8,2.5s.9.7,1.4,1.1,1,.7,1.6.9c.3,0,.3-.6.1-.7-.4-.4-.9-.8-1.4-1.1l-1.5-1c-.9-.7-1.9-1.4-2.8-2.2-.1-.1-.2,0-.2.2-.2-1.5-.5-2.9-.7-4.4h0c.7.9,1.5,1.8,2.3,2.5.8.8,1.8,1.4,2.8,1.7.2,0,.2-.3,0-.4-.9-.7-1.8-1.4-2.7-2.2-.9-.7-1.6-1.6-2.3-2.5-.1-.2-.3,0-.3.2s0,0,0,0l-.6-3.8h0c.8,1,1.6,1.9,2.4,2.7.4.4.8.8,1.3,1.1.4.4.9.7,1.4,1,.3.1.2-.5.1-.6-.8-.9-1.7-1.7-2.5-2.5s-1.6-1.6-2.4-2.5c-.2-.2-.3,0-.4.2s0,0,0,.2c-.2-1.3-.4-2.7-.6-4,1.1,1,2.3,2,3.4,2.9.6.5,1.3,1,1.9,1.5s1.4,1,2.1,1.3c.2,0,.2-.3,0-.4-.6-.6-1.3-1.2-1.9-1.7l-1.9-1.6c-1.3-1.1-2.6-2.1-3.8-3.2v-.5c-.1-.8-.2-1.6-.4-2.3.6.5,1.3,1.1,1.9,1.6.4.3.8.7,1.2,1,.4.4.8.7,1.2,1,.3.2.3-.6.2-.8-.3-.5-.7-.9-1.2-1.2-.4-.4-.8-.7-1.3-1.1-.7-.6-1.5-1.1-2.3-1.6-.2-1.3-.4-2.6-.6-3.9l.8.5c.6.5,1.3.9,1.9,1.4s1.2.9,1.8,1.4c.3.2.6.4.9.7.3.3.6.5.9.7.3,0,.3-.6.2-.7-.2-.3-.5-.6-.8-.9l-.9-.9c-.6-.5-1.2-1.1-1.8-1.6s-1.2-1-1.9-1.4c-.3-.2-.7-.5-1-.7l-.4-.3c-.1-.8-.2-1.7-.3-2.5,1.1.9,2.3,1.7,3.6,2.5.1,0,.1-.3,0-.4-1.2-1.1-2.4-2.1-3.8-2.9-.2-1.7-.5-3.4-.7-5.2.7.8,1.4,1.6,2.2,2.3.4.3.8.7,1.2,1,.4.3.9.6,1.4.8.3.1.3-.6.1-.7-.4-.4-.8-.8-1.2-1.1s-.8-.7-1.3-1c-.8-.7-1.6-1.4-2.3-2.2h-.2c-.3-2.3-.6-4.7-.8-7.1l2.1,2.5,1.2,1.4c.3.5.8.9,1.2,1.2.2.1.2-.4.1-.5-.3-.5-.7-1-1.1-1.5s-.8-1-1.2-1.4l-2.4-2.6c0-.5,0-.9-.1-1.4.6.7,1.2,1.4,1.9,2l1,1,.6.4c.2.1.4.3.6.3s.2-.5.1-.6c-.1-.2-.3-.4-.5-.6l-.5-.5c-.3-.3-.7-.6-1.1-1-.7-.6-1.4-1.3-2-2h-.2c-.1-1.4-.2-2.8-.3-4.2l1.6,1.4.9.8.5.4c.1.1.3.3.5.4.2,0,.1-.4,0-.5l-.9-.9-.9-.9-1.8-1.5v-.9l1.3-.3h0v.3c.5.5.9,1,1.4,1.4h.1v-.2c-.4-.5-.9-1-1.3-1.5,3.9-.9,7.7-2,11-4.4h0c8,38.3,11.7,77.5,19.2,115.9,2.1,10.9,4.6,21.7,7.6,32.5h0l.7.5ZM341.5,317.1c.5,1,.8,2.2.7,3.3,0,.3-.1.7-.2,1h0s-.1,0-.2-.1l-1.2-1.2c-2.7-2.7-6.1-4.9-9.7-5.3,1.3-.9,2.7-1.6,4.2-2.2.1.3.4.5.6.5,2.4.4,4.4,1.9,5.7,4h.1ZM402.1,283.4c-4.7,4.1-11.1,5.6-17,6.3-6.5.8-13.1.8-19.6,1.4-13.5,1.2-27.5,4.7-37.2,15.2-.9,1,.5,2.5,1.4,1.5,5.4-5.8,12.2-9.4,19.5-11.6.1,0,.3.1.4.1,16.9.4,29.4,13.5,40.2,25.7-6.3.3-12.7-.4-18.8-2.2-3.4-.9-6.7-2.2-9.8-3.7-3-1.5-5.9-3.3-8.9-4.8-5.9-2.9-11.8-3.4-17.8-.8-5.9,2.5-10.6,6.9-15.2,11.4-3.8-1.8-8-2.9-12.2-3.1-1.3,0-1.3,2,0,2.1,3.7.2,7.3,1.1,10.8,2.6-2.6,3.3-3.8,7.6-3.4,11.8.3,2.9.8,5.6-.8,8.2-1.3,2-2.2,3.7-2.4,6.2-.4,6,.2,12.2.3,18.2,0,3.2.1,6.3.2,9.5-4.2-20.5-7.3-41.2-10.3-61.9.1,0,.2-.2.3-.3,3.7-5.5,3.6-12.5,2.6-18.9-1.3-8.3-3.7-16.3-4.3-24.7-.1-1.9-.2-3.9,0-5.8,0-1,.1-2,.3-2.9,0-.6.1-2.7.6-3.2s2.2-.4,2.8,0c.4.3.7.5,1.1.9.7.5,1.3,1.1,1.9,1.7,1.3,1.3,2.5,2.6,3.5,4.1,4.4,6,6.6,13.5,7.4,20.9.9,7.7,0,16-4.9,22.1-.8,1,.6,2.5,1.4,1.5,4.6-5.7,6.1-13,5.8-20.3-.4-7.9-2.3-16.2-6.3-22.9-.4-.6-1-1.6-1.9-2.7l.2-.2v.2c.1,0,1,.9,1,.9.5.6,1.1,1.2,1.6,1.9s1,1.2,1.5,1.9c.2.3.5.6.7.9.2.2.5.6.8.7s.3-.3.2-.5c-.2-.8-.6-1.6-1.1-2.3-.5-.7-.9-1.4-1.4-2s-.9-1.2-1.5-1.8c-.4-.6-.9-1.1-1.5-1.5,0-.6.1-1.1.2-1.7l.2.2.9.9c.5.5,1.1,1.1,1.6,1.7,1,1.2,2,2.4,2.8,3.7h.2c.2,0,.3-.4.3-.6,0-.5-.3-1-.5-1.4s-.4-.7-.7-1.1c-.5-.7-1-1.4-1.6-2-.5-.6-1.1-1.2-1.7-1.8-.3-.3-.6-.5-.9-.8-.2,0-.3-.2-.5-.3h0v-1.4c1,1,2.1,2,3,3,.6.7,1.3,1.4,1.9,2.1s1.2,1.5,1.8,2.1c.4.4.4-.6.3-.8-.5-.9-1.1-1.8-1.7-2.6-.6-.8-1.3-1.5-1.9-2.2-1-1.1-2.2-2.1-3.4-3v-2.3c.9.9,1.8,1.8,2.6,2.8.6.7,1.3,1.4,1.9,2.2.3.4.6.7.9,1.1s.7.7.9,1,.3-.4.2-.6c-.3-.5-.5-.9-.8-1.4s-.6-.8-.9-1.2c-.6-.8-1.3-1.5-1.9-2.2-.9-1.1-2-2-3.1-2.9,0-.6,0-1.3-.1-2,.3.3.7.6.9.9.7.7,1.4,1.4,2.1,2.2s1.3,1.5,2,2.2c.6.8,1.2,1.5,1.9,2.2.3.3.3-.5.2-.6-.5-.9-1.1-1.8-1.8-2.7-.6-.8-1.3-1.6-2-2.3s-1.4-1.4-2.2-2.1c-.5-.4-.9-.8-1.4-1.1,0-.7-.2-1.3-.2-2,1.4,1.5,2.8,2.9,4.2,4.4.7.7,1.5,1.4,2.2,2.1s.7.7,1.1,1.1c.3.4.7.6,1.1.8.3,0,.2-.7.2-.8-.6-.9-1.2-1.7-2-2.4-.7-.8-1.5-1.5-2.2-2.3-1.4-1.5-2.9-2.9-4.4-4.3-.2-.1-.3,0-.3,0-.1-.8-.3-1.6-.5-2.4,1.4,1,2.7,2.1,3.9,3.4.7.7,1.4,1.5,2.1,2.3.6.8,1.3,1.6,2,2.4.4.4.4-.7.3-.9-.5-1-1.1-1.9-1.9-2.7-.7-.8-1.4-1.6-2.2-2.4-1.4-1.3-2.9-2.5-4.6-3.5-.3-1.3-.7-2.6-1.1-3.9,1.6.3,3.2.6,4.8,1,0,.2,0,.4.2.6,1.6,1.3,3.1,2.8,4.5,4.3,1.3,1.5,2.5,3.1,3.8,4.6.2.3.3-.5.2-.6-1.7-3.3-4.1-6.2-7.1-8.5l3.1.8v.2c1.2,1.3,2.4,2.4,3.6,3.7.5.6,1.1,1.3,1.6,1.9.3.3.5.7.8,1s.4.7.8.9.3-.7.3-.8c-.2-.4-.4-.8-.7-1.2-.2-.4-.5-.7-.8-1.1-.5-.7-1.1-1.4-1.7-2s-1.3-1.4-2-2c1,.3,2.1.5,3.1.8,1,.9,2,1.9,3,2.9s1,1,1.5,1.6l.7.8c.2.2.4.6.7.7s.4-.6.3-.8c-.1-.4-.4-.7-.6-1s-.5-.6-.7-.9c-.5-.6-1-1.1-1.5-1.7s-.9-.8-1.3-1.2c1.2.2,2.4.4,3.6.6l1.8,2.1,1.2,1.3.6.7c.2.2.4.4.6.6.4.2.3-.7.2-.9-.3-.5-.7-1-1.2-1.5-.4-.5-.8-1-1.2-1.4l-.6-.7c1.2.1,2.5.2,3.8.3l.6.5c.3.2.5.5.8.7.1.1.3.3.4.3s.3.1.4.2c.2,0,.3-.2.3-.3,0-.2,0-.4-.1-.6-.1-.1-.2-.3-.3-.5-.1-.2-.2-.3-.4-.5h0c3.7,0,7.4-.2,11.1-.8,6.3-1.2,14.2-3.6,16.7-10.7,2.4-7-2.6-14.6-8.5-17.7-4-2.1-8.5-2.8-12.9-3.2-4.2-.4-8.5-.6-12.7-.9,4.8-1.9,9.7-3.8,14.4-5.9,3.4-1.6,7.7-3.4,10.8-6.2,5.5,1.6,11.2.9,16.8,1.5,5.1.6,9.9,3,13.6,6.8,7.3,7.5,10,18.9,7.7,29.2-1.2,5.4-3.9,10.3-7.7,14.1-3.9,3.7-8.7,6.2-13.5,8.2-10,4.1-20.2,7.2-29.2,13.4-9.2,6.3-16.9,15.5-19.7,26.8-.1,0-.2.2-.3.4-.5,1.1,0,2.5,1,3,.3.1.6.2.9.2,2,.2,2.8-2.2,3.4-3.8,4.5-11.2,13.1-19.9,23.9-24.4,6.4-2.6,13.2-3.3,19.9-3.9,6.6-.6,13.3-1.3,19.7,0,3.2.5,6.3,1.7,9,3.5,3.4,2.3,4.5,6.5,1.1,9.3h0l-.2.3Z"/>
    <path class="cls-1" d="M229.8,117.6c-.5-.7-.9-1.3-1.3-2-.8-1.3-1.4-2.7-2.2-4-.2-.3-.3.2-.2.4.5,1.5,1.2,3,2,4.4.4.7.8,1.3,1.2,2s.9,1.3,1.4,1.9c.3.3.3-.5.2-.7-.4-.6-.8-1.2-1.3-1.9h.2Z"/>
    <path class="cls-1" d="M242.6,167.9c-.9-.6-1.8-1.1-2.7-1.5-.9-.5-1.8-1.1-2.7-1.7s-1.7-1.2-2.5-1.8c-.4-.3-.8-.6-1.2-1s-.7-.5-1.2-.7c-.1,0,0,.2,0,.3.6.9,1.3,1.7,2.2,2.2.8.7,1.7,1.4,2.6,2,.9.6,1.8,1.1,2.7,1.7.9.6,1.8,1,2.8,1.3.3.1.2-.7,0-.8h0Z"/>
    <path class="cls-1" d="M250.6,175.6c.3.2.7.3,1.1.4.2,0,.1-.5,0-.5-.4-.2-.8-.4-1.2-.5l-1.2-.5c-.8-.3-1.5-.6-2.3-.9-1.6-.5-3.2-1-4.8-1.4-.2,0-.2.5,0,.5,1.6.5,3.2,1,4.8,1.6s1.6.6,2.4.9l1.2.5h0Z"/>
    <path class="cls-1" d="M254.4,180.6c-1.6-.8-3.4-1.4-5.2-1.8-.2,0-.2.5,0,.5,3.4,1.3,6.7,3,9.7,5.1.2.1.2-.4,0-.5-1.4-1.3-2.9-2.5-4.6-3.3h.1Z"/>
    <path class="cls-1" d="M321.6,174.2c1.2-2.5,2.1-5.1,2.9-7.8.4-1.3.8-2.7,1.2-4.1.4-1.3.7-2.7.9-4.1,0-.1-.2-1.2-.4-.7-.5,1.2-.8,2.4-1.1,3.7-.4,1.4-.8,2.7-1.2,4.1-.9,2.7-1.9,5.4-2.8,8v.7s.2.4.3.1h.2Z"/>
    <path class="cls-1" d="M319.6,192.2c1.2,2.4,1.1,5.3-.2,7.7-1,1.8-2.3,3.5-3.7,4.9-2.5,2.6-5.3,5-8.2,7.2-5.5,4.3-11.4,8.4-15.2,14.5-.1.2,0,1.1.2.8,5.3-7,12.5-11.4,19.1-16.9,3.1-2.6,6.5-5.7,8.4-9.5,1.3-2.7,2.1-7.4-.1-9.8-.4-.5-.4,1-.3,1.2h0Z"/>
    <path class="cls-1" d="M273,222.3c.4,0,.3-1.1,0-1.2-2.9-.4-5.8-.3-8.7-.7-2.9-.4-5.7-1.3-8.4-2.5-4.5-2.1-9.3-3.6-14.3-4.4-10-1.4-20.1.6-28.9,5.7-.2.1-.1.9.1.8,9.1-4.6,19.4-6.2,29.5-4.6,10.5,1.8,19.8,9.5,30.7,6.9Z"/>
    <path class="cls-1" d="M269.7,248.2c.1.2.3,0,.3-.2v-.8c-.5-1.3,1.1-2.3,1.8-3.1.2-.2.3-1.5-.1-1.4-.7.2-1.3.4-2,.5-.3,0-.7,0-1,.1h-.4c-.1,0-.4.2-.2,0,.4-.5.8-1,1.2-1.3.5-.5.9-.9,1.4-1.3.9-.8,1.9-1.6,3-2.2,1.1-.7,2.2-1.2,3.3-1.9.2-.1.2-1.2,0-1.1-1.4.5-2.8,1.2-4,2.1-1.3.9-2.6,1.9-3.8,3.1-.9.9-2.2,2-1.6,3.5.3.8,1,.6,1.7.5.3,0,.6-.1.9-.2-.8,1.1-.9,2.5-.2,3.7h-.3Z"/>
    <path class="cls-1" d="M287.9,247.7c0-1.3,0-2.6-.3-3.9-.2-1.5-.3-2.9-.5-4.5s-.6-.4-.5.2c.1,2.1.4,4.2.6,6.2,0,.7.3,1.8-.3,2.3-.2.2-1.3.5-1.4,0,0-.2-.2-.5-.5-.4s-.3.7-.3.9c0,1.3-.5,2.8-1.9,3.1-.5.1-1,0-1.5-.2-.2,0-.4-.2-.6-.4-.1,0-.2-.3-.4-.3s-.2.2-.2.3c-.2,1.2.6,2.4,1.8,2.6.4,0,.8,0,1.2-.2,1.4-.5,2-2.1,2.2-3.6.3.2.7.3,1.1.2,1-.3,1.4-1.4,1.4-2.3h0Z"/>
    <path class="cls-1" d="M343.2,226.1c3.9,1.3,8.1,2,11.8-.3.5-.3.3-2.3-.3-2-4.3,2.5-9.3.9-13.6-.7-4.2-1.6-8.7-2.2-13.2-1.9-9,.7-18.4,3.6-25.9,9-.2.1-.1.9.1.8,8.7-4.4,17.6-7.6,27.2-7.9,5-.2,9.2,1.3,13.8,2.9h.1Z"/>
    <path class="cls-1" d="M332.3,234.7c.4,0,.3-1.1.2-1.4-.2-.5-.4-.9-.6-1.3,2.2.9,4.6,1.4,7,1.5,1.3.1,2.5,0,3.8-.2.8-.2,1.5-.8,1.7-1.7,0-.1,0-.9-.2-.7-1.7,1.1-4,1-5.9.9-2.5-.2-5-.8-7.3-1.8-.5-.2-.4,1.2-.3,1.4.3.6.6,1.2.8,1.9-6.4,1.2-12.3-5.3-18.7-2.3-.2,0-.1.9,0,.8,6.7-2.4,12.7,4.3,19.4,3h.1Z"/>
    <path class="cls-1" d="M371.4,168.1c1.6-1.2,3.1-2.6,4.7-3.8,1.5-1.3,3.3-2.5,5-3.8.2-.2.1-1.2-.1-1.1-3.6,2-6.9,4.6-9.7,7.7-.1.2,0,1.2.1,1h0Z"/>
    <path class="cls-1" d="M381.1,170.2c.9-.6,1.8-1.3,2.7-2s1.9-1.4,2.8-2.1c1.9-1.4,3.9-2.6,5.9-3.8.4-.2.2-1.8-.2-1.6-2,1.1-4,2.4-5.9,3.8-2,1.4-3.8,3-5.4,4.9-.2.1-.2,1,0,.8h.1Z"/>
    <path class="cls-1" d="M390,168.8c-.9.7-1.7,1.7-2.6,2.5-.2.2,0,1,.1.9.8-.6,1.7-1.1,2.6-1.8s1.7-1.3,2.6-2c1.8-1.3,3.7-2.4,5.5-3.7.3-.2.2-1.5-.2-1.3-1.9,1-3.8,2.1-5.5,3.4-.9.7-1.7,1.3-2.5,2h0Z"/>
    <path class="cls-1" d="M398.1,171.4c.6-.2,1.1-.6,1.6-1s1.1-.8,1.6-1.1c1.1-.8,2.2-1.5,3.3-2.2.3-.2.2-1.5-.2-1.4-1.1.6-2.2,1.3-3.3,2-.5.4-1.1.7-1.6,1.1-.6.4-1.2.8-1.6,1.4-.1.1-.2,1.3.1,1.2h.1Z"/>
    <path class="cls-1" d="M405.8,178.5c.5-.2.9-.4,1.3-.8l1.2-.9,1.2-.9c.5-.4.9-.7,1.3-1.2.1-.2.2-.4.1-.6,0,0,0-.5-.2-.5s-.4.2-.7.3c-.2.1-.5.3-.7.4-.4.3-.8.6-1.2.9l-1.2.9c-.5.3-.9.7-1.3,1.1-.1.2-.2.5-.1.7,0,.1,0,.6.2.5h.1Z"/>
    <path class="cls-1" d="M408.8,182.3c-.5.5-1.1,1-1.5,1.6-.1.1-.1.8,0,.7.5-.4,1.1-.8,1.5-1.2.5-.4,1-.8,1.5-1.2l3-2.8c.2-.2.2-.5.1-.7s-.1-.5-.3-.4l-3.1,2.6c-.5.4-1,.9-1.5,1.4h.3Z"/>
    <path class="cls-1" d="M410.5,187.4c-.6.6-1.2,1.2-1.7,1.7-.2.2-.1,1.2.1,1,.6-.4,1.2-.9,1.8-1.4.6-.5,1.1-1.1,1.6-1.7,1.1-1.2,2.1-2.4,3-3.7,0-.2.1-.4,0-.7,0,0-.1-.4-.2-.3-.9,1.2-2,2.3-3,3.4l-1.6,1.6h0Z"/>
    <path class="cls-1" d="M414.5,190c-.6.9-1.4,1.8-2.2,2.6-.4.4-.8.8-1.2,1.1s-.9.8-1.4,1.2c-.1.2-.2.4-.1.6,0,0,0,.5.2.5.5-.2,1-.5,1.4-.8.5-.3.9-.7,1.3-1.1.8-.8,1.6-1.8,2.2-2.8.1-.3.2-.7,0-1,0-.2-.2-.5-.3-.2h.1Z"/>
    <path class="cls-1" d="M322.5,292.2c3.3-4.1,6-8.9,8.8-13.3s5.5-8.6,8.3-12.9c2.4-3.8,5.1-7.4,7.9-10.9,1.6-1.9,3.2-3.7,5-5.4,1.6-1.5,3.6-2.7,5-4.4.1-.1.2-1.2-.1-1.1-1.8.5-3.4,2.3-4.8,3.5-1.6,1.5-3.1,3.1-4.6,4.8-3,3.6-5.8,7.4-8.4,11.4-2.8,4.3-5.5,8.6-8.3,12.8-3.1,4.8-6.4,9.5-9.1,14.5-.1.2,0,1.2.2.8v.2Z"/>
    <path class="cls-1" d="M374.4,274.5c-7.4-.7-15.6,2.3-22.2,5.5-7.1,3.3-13.5,8-18.8,13.9-.1.1,0,.8.1.6,5.5-5.3,11.8-9.7,18.6-12.9,3.6-1.7,7.3-3,11-4,3.8-1,7.6-1.4,11.3-2.3.2,0,.2-.7,0-.8h0Z"/>
    <path class="cls-1" d="M307,308.4c-.1.2,0,1.3.3.9,3.6-5.1,3.8-12,2.8-18.1-1.2-8.1-4.4-15.7-4.8-24,0-.4-.3-.4-.3,0,0,13.9,9.1,27.8,1.9,41.2h.1Z"/>
    <path class="cls-1" d="M324.6,309.8c-.6.2-1.2.4-1.8.7-.6.3-1.1.5-1.6.9-1,.5-2,1-3.1,1.5.2-1.3,0-2.6-.2-3.9,0-.3-.3-.5-.5-.3-1.9,2-2.5,5.4-5,6.6v-2.8c-.1-.3-.4-1.1-.7-.5-1,2-2.8,4.5-5.3,3.1-.3-.1-.2.6-.1.7.8.9,2.1,1.2,3.1.6,1-.5,1.7-1.4,2.2-2.4v2.3c0,.3,0,.9.5.8,2.8-1,3.4-4.4,5.2-6.5.1,1,0,2-.3,3,0,.3,0,1.4.4,1.2,2.5-1,5.3-2.1,7.1-4.4,0,0,.1-.6,0-.5h0Z"/>
    <path class="cls-1" d="M246.7,396.9c3.3,6,5.4,12.5,7.7,19,2.7,8,5.5,15.9,8.4,23.9.2.6.5-.2.4-.5-2.3-7.1-4.6-14.1-7-21.1-2.2-6.5-4.2-13.1-7.1-19.2-5-10.8-13.6-19.3-18.4-30.2-3.2-7.3-3.2-15.3-5.9-22.7-.2-.6-.4.5-.3.7,1.6,6.6,2.1,13.6,4.3,20,1.9,5.5,4.8,10.4,8,15.1,3.4,5,7,9.8,10,15.1h0Z"/>
    <path class="cls-1" d="M210.2,355.4c-.5-.7-.9-1.3-1.4-2-.9-1.3-1.9-2.7-2.8-4,0-.1-.2,0-.2.1v.4l2.7,4c.4.6.9,1.3,1.3,2,.4.7.9,1.3,1.4,2,.2.2.2-.4.2-.5-.3-.7-.8-1.4-1.3-2.1h.1Z"/>
    <path class="cls-1" d="M218.9,427.5c-1.3-2-2.4-4.2-3.3-6.5,0-.2-.2-.1-.3,0v.6c.7,2.5,1.8,4.8,3.2,6.9,1.3,2.1,3.1,3.9,5.1,5.2.2.1.2-.5.1-.6-1.8-1.7-3.4-3.6-4.8-5.6Z"/>
    <path class="cls-1" d="M220.3,422.2c-1.6-2.3-2.9-4.8-4-7.3,0-.2-.2-.1-.3,0v.7c1,2.7,2.4,5.2,3.9,7.6.8,1.2,1.6,2.3,2.5,3.4.8,1.1,1.8,2,2.9,2.8.2.1.2-.5.1-.6-1.7-2.2-3.6-4.2-5.2-6.6h.1Z"/>
    <path class="cls-1" d="M224.8,421.3c-1-1-2-2.1-2.9-3.3-1.8-2.3-3.3-4.8-4.6-7.4s-.3.3-.2.5c1.2,2.8,2.7,5.5,4.5,7.9.9,1.2,1.8,2.3,2.8,3.3,1,1.1,2.1,2,3.3,2.7.2,0,.2-.4,0-.5-.9-1.1-2-2.1-3-3.2h0Z"/>
    <path class="cls-1" d="M222.4,412.7c.6.9,1.3,1.7,2,2.5s1.4,1.6,2.2,2.4c.2.2.2-.6.1-.8-.6-.9-1.4-1.7-2.1-2.5s-1.4-1.7-2-2.5c-1.3-1.7-2.5-3.4-3.8-5.2-.2-.3-.3.5-.2.7,1.2,1.9,2.4,3.7,3.8,5.5h0Z"/>
    <path class="cls-1" d="M278.4,478.3c.2,1.3,0,2.6.2,3.9,0,.1.1.3.2.1.7-1.5.3-3.8,0-5.4-.4-2.1-1-4.1-1.7-6-.4-1-.7-2-1.1-2.9,0-.3-1.2-2.8-1-2.9.5-.5,2,1.7,2.2,2,.6.9,1,1.9,1.3,2.9,0,.2.2.4.4.3,1.7-1.1,2.7-3.1,2.6-5.2,0-.9-.7-.9-.7,0,0,1.5-.7,2.9-2,3.7-.5-1.9-1.6-3.6-3.1-4.9-.7-.6-1.4-.3-1.5.7,0,1.1.2,2.1.7,3,.8,2.4,1.8,4.7,2.5,7.1.4,1.2.7,2.5.9,3.8v-.2Z"/>
    <path class="cls-1" d="M279.4,267.2c-.5-.5-1.1-.9-1.7-1.3,0,0-.1.2,0,.2,1.2.8,2.2,1.7,3.2,2.8h0c-.5-.7-1-1.2-1.5-1.7Z"/>
    <path class="cls-1" d="M283.5,278.8c-.3-.2-.5-.4-.8-.6-.5-.4-1.1-.8-1.6-1.3-1-.9-1.9-1.8-2.8-2.9-.1-.2-.3,0-.3.2v.6c.8,1.1,1.8,2.1,2.8,3.1.5.4,1,.8,1.5,1.2.3.2.6.3.9.5s.6.3.9.3,0-.3,0-.3c-.2-.3-.5-.5-.8-.7h.2Z"/>
    <path class="cls-1" d="M290.5,328.2l-1.4-1.2c-.9-.8-1.9-1.6-2.8-2.5s-.4.5-.2.7c.9.9,1.9,1.8,2.8,2.7.5.4.9.8,1.4,1.2.2.2.5.4.7.6s.5.4.8.5.2-.6.1-.7c-.4-.5-.9-.9-1.4-1.3h0Z"/>
    <path class="cls-1" d="M289.5,332.9c-.8-.6-1.6-1.3-2.3-2v.2c.8.7,1.5,1.4,2.3,2s1.5,1.3,2.3,2c0,0,.1-.1,0-.2-.7-.7-1.5-1.4-2.3-2Z"/>
    <path class="cls-1" d="M300.7,377.3c.1,0,.1-.3,0-.3-1.5-1.4-3.1-2.6-4.8-3.8-.1,0-.2.1-.2.2s0,.3.1.4l2.4,1.8c.8.6,1.6,1.2,2.4,1.7h.1Z"/>
    <path class="cls-1" d="M299.4,378.6l-2.1-1.6c-.2-.1-.3.5-.1.7l2.1,1.7c.3.3.7.6,1,.8s.7.5,1.1.7c.2.1.2-.5.1-.6-.3-.3-.7-.6-1-1s-.7-.5-1-.8h-.1Z"/>
    <path class="cls-1" d="M300,384.6l.6.3c.2.1.4.2.6.2s.2-.5,0-.6c-.2-.2-.3-.3-.5-.4l-.6-.4-1.1-.7c-.7-.5-1.5-1-2.2-1.6-.3-.3-.5.6-.2.8.7.6,1.4,1.1,2.2,1.6.3.3.7.5,1.1.7h.1Z"/>
    <path class="cls-1" d="M302.1,389.1l-1.4-.9-2.8-1.9c-.2-.1-.3.2-.3.3,0,.2,0,.4.2.6l2.7,2,1.3,1c.5.3.9.5,1.4.7.2,0,.2-.4,0-.5-.4-.5-.8-.9-1.3-1.3h.2Z"/>
    <path class="cls-1" d="M304,323.2c-.3-.5-.5,1.1-.4,1.4.6,1.3,1.3,2.7,2,4,.3.8.6,1.5.8,2.3.2.5.4.5.5,0,.3-1.2.6-2.4.9-3.5.2,1.4.3,2.7.3,4.1s.2,1.1.5.6c.7-1.2,1.2-2.4,1.6-3.7-.2,1.8-.6,3.6-1.2,5.3-.8,2-1.2,4.1-1.3,6.3,0,.3.2,1.1.5.5.7-1.5,1.3-3,1.8-4.5l-.4,1.5c-.9,3.4-1.2,6.9-.9,10.4,0,.4.3.2.3-.1-.3-7.3,3-13.9,3.4-21.1,0-.3-.3-.9-.3-.4-.3,1.3-.6,2.6-.9,3.9-.7,2.6-1.6,5.1-2.8,7.5.4-1.8,1.1-3.6,1.5-5.4.5-2.3.8-4.7.8-7s-.3-.9-.5-.3c-.4,1.7-1,3.4-1.8,5,0-1.5-.2-3.1-.5-4.6,0-.2-.3-.9-.5-.3-.4,1.3-.7,2.5-1.1,3.8v-.2c-.4-1-.8-1.9-1.3-2.8s-.9-1.9-1.4-2.8h.4Z"/>
    <path class="cls-1" d="M315.5,507.9c-.4-.2-.9-.5-1.3-.8-.8-.5-1.7-1.1-2.4-1.7-.2-.1-.3.3-.3.4,0,.2,0,.5.2.6.8.6,1.6,1.1,2.4,1.6.4.2.8.5,1.3.7.4.2.8.4,1.3.5.2,0,.2-.5,0-.6-.4-.3-.8-.6-1.3-.8h0Z"/>
    <path class="cls-1" d="M311.6,493.6l-.8-.5-1.6-1c-.3-.2-.3.6,0,.8l1.6,1,.8.5c.3.2.6.3.8.4.1,0,.2-.1.2-.2,0-.2,0-.3-.1-.4-.3-.2-.5-.4-.8-.6h-.1Z"/>
    <path class="cls-1" d="M308.3,485.6c-.4-.2-.5,1-.1,1.1,1.5.7,3,1.4,4.6,2,.2,0,.2-.4,0-.5-1.5-.9-3-1.8-4.5-2.5h0Z"/>
    <path class="cls-1" d="M310.5,484.7c.3.2.7.3,1,.4.1,0,.2-.2.2-.3v-.4c-.3-.3-.6-.6-.9-.8-.3-.2-.6-.5-.9-.7l-2-1.2c-.2-.1-.4.3-.4.5s0,.7.3.8l2,1.1c.3.2.6.3.9.5h-.2Z"/>
    <path class="cls-1" d="M310.7,481.6l-1.1-.7h0l1.1.7h0Z"/>
    <path class="cls-1" d="M263,506.6c-1.8,4.2-4.5,7.7-6.8,11.6-2.1,3.6-3.8,7.4-5.2,11.4-1.3,3.9-2.3,7.8-2.9,11.9-.5,3.6-1.1,7.7-.5,11.4,0,.3.2.3.2,0,.5-4,.4-8.1,1-12.1.7-4.1,1.8-8.2,3.4-12.1,1.5-3.8,3.3-7.4,5.5-10.9,2-3.3,4.3-6.4,5.7-10,.2-.4-.1-2-.5-1.2h0Z"/>
    <path class="cls-1" d="M272.1,500.9c-.5.1-.9.4-1.3.6s-.8.4-1.2.4-.4,0-.5-.2h0c0-.1,0-.3.2-.4.2-.4.5-.7.8-1,.3-.4.6-.7.9-1l.9-1.1c.3-.3.6-.6.8-.9.4-.7.4-1.7-.2-2.4-.4-.3-1-.4-1.5-.2-.8.2-1.6.5-2.3,1-.9.5-1.6,1.1-2.3,1.8-.1.2-.2.4-.1.7,0,.1,0,.5.3.4,1.3-.9,2.7-1.7,4.2-2.3.5-.2,1-.2,1.4,0h0c-.3.4-.7.7-1,1.1-.6.7-1.2,1.3-1.9,2-.6.6-.9,1.4-.9,2.2s.3,1.4.9,1.7c.4.1.8,0,1.2-.1.5-.2.9-.5,1.4-.7.2,0,.4-.2.7-.2h.6c.2,0,.1-.7,0-.8-.2-.4-.6-.6-1-.5h-.1Z"/>
    <path class="cls-1" d="M236.6,464.9c-6.1-1.9-12.4-3.2-18.7-4.1-12.6-1.7-25.4-1-38.1.4-6.4.7-13.8,1.8-19.4,5.4-.2.1-.2.9.1.8,3.7-1.5,7.4-2.7,11.3-3.6,3.7-.7,7.5-1.2,11.3-1.5,7.8-.7,15.7-.9,23.5-.6,8,.4,15.9,1.5,23.6,3.4,4.1,1,8.2,2.3,12.2,3.7,3.3,1.3,6.5,2.9,9.5,4.9.5.3.4-1,.2-1.2-3.4-4.6-10.4-6.2-15.6-7.7h0Z"/>
    <path class="cls-1" d="M235.2,436c.5,1.9,1.1,3.8,1.6,5.7,1,3.6,2,7.3,3.3,10.8.2.5.4-.5.3-.6-.9-4.2-2.2-8.3-3.5-12.5-.5-1.8-1-3.7-1.6-5.5-.4-1.4-1.2-2.7-2.2-3.7-.3-.2-.4,1.1-.1,1.4,1.1,1.3,1.8,2.8,2.2,4.5h0Z"/>
    <path class="cls-1" d="M281.8,416.8c.6-7.1,1.1-14.3,2-21.4.5-3.7,1.1-7.4,1.9-11.1s2.1-7.4,3-11.1c0-.1,0-1.1-.2-.8-1.6,3.1-2.4,6.8-3.2,10.2-.9,3.7-1.5,7.5-2,11.3-1,7.5-1.5,15.1-1.7,22.7,0,.3.2.4.3,0v.2Z"/>
    <path class="cls-1" d="M310.9,430.9c-2.4,2.9-4.7,5.9-6.9,9.1-4.4,6.5-8.1,13.4-11.1,20.8,0,.2,0,1.1.3.6,3.2-7,7-13.8,11.4-20.1,2.2-3.2,4.6-6.3,7.2-9.2,2.4-2.8,5.4-5.2,7.5-8.1.2-.2.1-1.7-.3-1.5-1.5,1.1-3,2.4-4.2,3.9-1.3,1.4-2.6,2.9-3.9,4.4h0Z"/>
    <path class="cls-1" d="M286.8,182.9l-.3-.7c-.2-.5-.5-1-.7-1.5,0,0-.1-.2-.2-.2s-.1,0-.2.2c-.1.3-.1.5,0,.8l.7,1.5c.1.2.2.5.3.7s.1.3.2.4.1.2.2.3.2-.4.2-.5c0-.3-.2-.6-.3-.9h0Z"/>
    <path class="cls-1" d="M287.7,181.5l-.3-.6-.7-1.3s0-.1-.2-.1-.2.1-.2.2v.8c.2.4.5.8.7,1.2l.4.6s.1.2.2.3.1.2.2.2.2-.4.2-.5c0-.3-.2-.5-.3-.7h0Z"/>
    <path class="cls-1" d="M288.9,181v-.3l-.2-.4c0-.3-.2-.5-.3-.7l-.7-1.5s-.1-.2-.2-.2-.2.1-.2.2c-.1.3-.1.6,0,.9l.7,1.5c.1.2.2.5.4.7l.2.3s0,.2.2.2,0,0,.1,0,.2-.3.2-.4v-.2h-.2Z"/>
    <path class="cls-1" d="M297.9,148.7c-.5-2.7-.8-5.5-.9-8.2,0-.1,0-.5-.2-.5s-.2.5-.2.6c-.1,2.9.2,5.8,1.1,8.6.1.3.3-.2.2-.4h0Z"/>
    <path class="cls-1" d="M299.9,146.3v-.5c-.7-2.6-1-5.4-.6-8.1,0-.3,0-.7-.1-.9s-.3,0-.3.2c-.6,3.1-.3,6.3.8,9.2,0,.1.2.1.2,0h0Z"/>
    <path class="cls-1" d="M302,143.5c-.4-2.8-.4-5.6,0-8.4,0-.2,0-.7-.1-.8s-.3,0-.3.2c-.8,3.1-.8,6.3,0,9.4.2.5.4-.1.3-.4h.1Z"/>
    <path class="cls-1" d="M305,141.2c-.2-2.7-.2-5.4.3-8.1v-.7c0,0-.2,0-.3.2-.7,2.9-.8,5.9-.2,8.8.1.5.3,0,.3-.2h0Z"/>
    <path class="cls-1" d="M308.1,139.7c0,.1.1.2.2.1s.1-.4.1-.5c0-.5-.1-1.1-.1-1.6v-1.6c0-1.1.3-2.2.6-3.2v-.9c-.1-.2-.2-.2-.3,0-.4,1.2-.7,2.5-.8,3.8v2c0,.7.1,1.3.3,2h0Z"/>
    <path class="cls-1" d="M315.4,138.1c.2-1.1.4-2.2.5-3.3s.3-2.2.5-3.3c0-.3,0-.7-.1-1-.2-.2-.3,0-.3.3-.2,1.1-.4,2.3-.6,3.4-.2,1.2-.3,2.4-.3,3.6s.2.7.3.2h0Z"/>
    <path class="cls-1" d="M322.2,250.7c-1.7-2.3-3.6-4.5-5.6-6.6-.9-1-1.8-1.9-2.7-2.8-.7-.8-1.7-1.1-2.8-1-.3,0-.3.9,0,.9,1.1,0,2.1.7,2.8,1.6.9,1,1.8,2,2.7,2.9,1.7,2,3.5,3.8,5.5,5.5.2.2.2-.5.1-.6h0Z"/>
  </g>
  <g>
    <path class="cls-2" d="M22.6,304.3h16.1v2.3h-13.6v9.8h12.8v2.3h-12.8v10.7h14.2v2.3h-16.7v-27.5h0Z"/>
    <path class="cls-2" d="M52.7,326.7c.6,1.1,1.4,2,2.5,2.6s2.3.9,3.5.9,1.6-.1,2.3-.4c.7-.2,1.3-.6,1.9-1.1,1.1-1,1.8-2.4,1.7-3.9,0-.8-.2-1.7-.6-2.4-.4-.6-.9-1.2-1.5-1.5-.7-.4-1.4-.8-2.2-1l-2.5-.9c-.9-.3-1.7-.6-2.5-1-.8-.3-1.5-.8-2.2-1.4s-1.2-1.4-1.5-2.2c-.4-1-.6-2.1-.6-3.3s.2-2.2.7-3.2c.4-.9,1.1-1.7,1.9-2.4.8-.7,1.7-1.1,2.7-1.4s2.1-.5,3.2-.5,2.7.3,4,.8c1.3.6,2.4,1.5,3.2,2.7l-2.1,1.6c-.6-.9-1.3-1.6-2.2-2-.9-.5-1.9-.7-2.9-.7s-1.5.1-2.3.3c-.7.2-1.3.5-1.9,1-1.2.9-1.8,2.4-1.8,3.9s.3,2.3,1,3.2c.7.8,1.6,1.4,2.5,1.7,1.1.4,2.2.8,3.3,1.1,1.1.3,2.2.7,3.3,1.3,1,.5,1.9,1.3,2.5,2.3.7,1.2,1.1,2.6,1,4,0,1.1-.2,2.3-.7,3.3-.4.9-1,1.8-1.8,2.4-.8.7-1.7,1.2-2.6,1.5-1,.3-2,.5-3.1.5-1.6,0-3.3-.3-4.8-1s-2.8-1.8-3.8-3.2l2.3-1.6h0Z"/>
    <path class="cls-2" d="M28.4,353.2h-9v-2.3h20.4v2.3h-9v25.1h-2.4v-25.1Z"/>
    <path class="cls-2" d="M51,350.9h8.1c2,0,3.9.2,5.8.9,1.4.5,2.8,1.2,4,2.2,1,.8,1.8,1.9,2.5,3,1,1.8,1.7,3.8,1.9,5.9,0,.8,0,1.4,0,1.7s0,.9,0,1.7c-.2,2.1-.9,4.1-1.9,5.9-.7,1.1-1.5,2.2-2.5,3-1.2,1-2.5,1.7-4,2.2-1.9.6-3.8.9-5.8.9h-8.1v-27.4h0ZM53.4,376h5c1.6,0,3.3-.2,4.9-.7,1.4-.4,2.8-1.1,3.9-2.1s2-2.2,2.6-3.5c1.3-3.3,1.3-6.9,0-10.2-.6-1.4-1.5-2.6-2.6-3.5-1.2-1-2.5-1.7-3.9-2.1-1.6-.5-3.2-.7-4.9-.7h-5v22.8h0Z"/>
    <path class="cls-2" d="M488.7,338.9l9.9-10.9c.5-.5.9-1,1.3-1.5s.8-1.1,1.2-1.7c.4-.6.6-1.2.9-1.8.2-.7.3-1.4.3-2.1,0-1.4-.5-2.8-1.5-3.8-1-.9-2.4-1.4-3.8-1.4s-2.5.4-3.4,1.2c-.9.8-1.6,2-1.8,3.3l-2.6-.3c.3-1.9,1.3-3.6,2.8-4.8,1.5-1.1,3.3-1.6,5.2-1.6s2,.2,2.9.5,1.7.8,2.4,1.4c.7.6,1.3,1.3,1.7,2.2.4.9.6,1.9.6,2.9s-.1,2-.5,2.9c-.3.9-.7,1.8-1.2,2.6-.5.8-1.1,1.6-1.7,2.3-.7.7-1.3,1.4-2,2.2l-8.2,8.8h13.8v2.1h-16.3v-2.7.2Z"/>
    <path class="cls-2" d="M514.9,327.9c0-1,0-2,0-3.1,0-1.1.2-2.2.5-3.2.2-1,.5-2,.9-3,.4-.9.9-1.8,1.6-2.5.7-.7,1.4-1.3,2.3-1.7,2.1-.9,4.4-.9,6.4,0,.9.4,1.7,1,2.3,1.7.7.7,1.2,1.6,1.6,2.5.4,1,.7,2,.9,3,.2,1.1.4,2.1.5,3.2,0,1.1,0,2.1,0,3.1s0,2.1,0,3.1c0,1.1-.2,2.1-.5,3.2-.2,1-.5,2-.9,2.9s-.9,1.8-1.6,2.5c-.7.7-1.4,1.3-2.3,1.7-2.1.9-4.4.9-6.4,0-.9-.4-1.7-1-2.3-1.7-.7-.7-1.2-1.6-1.6-2.5-.4-.9-.7-1.9-.9-2.9-.2-1.1-.4-2.1-.5-3.2,0-1.1,0-2.1,0-3.1ZM517.3,327.9v2.4c0,.9.2,1.8.3,2.6,0,.9.4,1.8.6,2.6.3.8.6,1.6,1.1,2.3.5.6,1,1.2,1.7,1.6s1.6.6,2.4.6,1.7-.2,2.4-.6,1.3-.9,1.7-1.6c.5-.7.9-1.5,1.1-2.3.3-.9.5-1.7.6-2.6s.2-1.8.3-2.6v-4.8c0-.9,0-1.8-.3-2.7,0-.9-.4-1.8-.6-2.6-.3-.8-.6-1.6-1.1-2.3-.4-.7-1-1.2-1.7-1.6s-1.6-.6-2.4-.6-1.7.2-2.4.6-1.3.9-1.7,1.6c-.5.7-.8,1.5-1.1,2.3-.3.9-.5,1.7-.6,2.6s-.3,1.8-.3,2.7v2.4Z"/>
    <path class="cls-2" d="M488.7,385.5l9.9-10.9c.5-.5.9-1,1.3-1.5s.8-1.1,1.2-1.7c.4-.6.6-1.2.9-1.8.2-.7.3-1.4.3-2.1,0-1.4-.5-2.8-1.5-3.8-1-.9-2.4-1.4-3.8-1.4s-2.5.4-3.4,1.2c-.9.8-1.6,2-1.8,3.3l-2.6-.3c.3-1.9,1.3-3.6,2.8-4.8,1.5-1.1,3.3-1.6,5.2-1.6s2,.2,2.9.5,1.7.8,2.4,1.4c.7.6,1.3,1.3,1.7,2.2.4.9.6,1.9.6,2.9s-.1,2-.5,2.9c-.3.9-.7,1.8-1.2,2.6-.5.8-1.1,1.6-1.7,2.3-.7.7-1.3,1.4-2,2.2l-8.2,8.8h13.8v2.1h-16.3v-2.7.2Z"/>
    <path class="cls-2" d="M514.9,374.4c0-1,0-2,0-3.1,0-1.1.2-2.2.5-3.2.2-1,.5-2,.9-2.9s.9-1.8,1.6-2.5c.7-.7,1.4-1.3,2.3-1.7,2.1-.9,4.4-.9,6.4,0,.9.4,1.7,1,2.3,1.7.7.7,1.2,1.6,1.6,2.5.4.9.7,1.9.9,2.9.2,1.1.4,2.1.5,3.2,0,1.1,0,2.1,0,3.1s0,2.1,0,3.1c0,1.1-.2,2.1-.5,3.2-.2,1-.5,2-.9,2.9s-.9,1.8-1.6,2.5c-.7.7-1.4,1.3-2.3,1.7-2.1.9-4.4.9-6.4,0-.9-.4-1.7-1-2.3-1.7-.7-.7-1.2-1.6-1.6-2.5-.4-.9-.7-1.9-.9-2.9-.2-1.1-.4-2.1-.5-3.2,0-1.1,0-2.1,0-3.1ZM517.3,374.4v2.4c0,.9.2,1.8.3,2.6,0,.9.4,1.8.6,2.6.3.8.6,1.6,1.1,2.3.5.6,1,1.2,1.7,1.6s1.6.6,2.4.6,1.7-.2,2.4-.6,1.3-.9,1.7-1.6c.5-.7.8-1.5,1.1-2.3.3-.9.5-1.7.6-2.6s.2-1.8.3-2.6v-4.8c0-.9,0-1.8-.3-2.7,0-.9-.4-1.8-.6-2.6-.3-.8-.6-1.6-1.1-2.3-.4-.7-1-1.2-1.7-1.6s-1.6-.6-2.4-.6-1.7.2-2.4.6-1.3.9-1.7,1.6c-.5.7-.8,1.5-1.1,2.3-.3.9-.5,1.7-.6,2.6s-.3,1.8-.3,2.7v2.4Z"/>
    <path class="cls-2" d="M19,277.2c4.3-.9,8.6-1.4,13-1.7,4.3-.3,8.7-.5,13-.5s8.7.1,13,.5c4.4.3,8.7.9,13,1.7-4.3.9-8.6,1.4-13,1.7-4.3.3-8.7.5-13,.5s-8.7-.2-13-.5c-4.4-.3-8.7-.9-13-1.7Z"/>
    <path class="cls-2" d="M19,396.8c4.3-.9,8.6-1.4,13-1.7,4.3-.3,8.7-.5,13-.5s8.7.1,13,.5c4.4.3,8.7.9,13,1.7-4.3.9-8.6,1.4-13,1.7-4.3.3-8.7.5-13,.5s-8.7-.2-13-.5c-4.4-.3-8.7-.9-13-1.7Z"/>
    <path class="cls-2" d="M490.8,287.7c4.3-.9,8.6-1.4,13-1.7,4.3-.3,8.7-.5,13-.5s8.7.1,13,.5c4.4.3,8.7.9,13,1.7-4.3.9-8.6,1.5-13,1.8-4.3.3-8.7.5-13,.5s-8.7-.2-13-.5c-4.4-.3-8.7-.9-13-1.8Z"/>
    <path class="cls-2" d="M490.8,407.4c4.3-.9,8.6-1.4,13-1.7,4.3-.3,8.7-.5,13-.5s8.7.1,13,.5c4.4.3,8.7.9,13,1.7-4.3.9-8.6,1.4-13,1.7-4.3.3-8.7.5-13,.5s-8.7-.2-13-.5c-4.4-.3-8.7-.9-13-1.7Z"/>
  </g>
  <g>
    <path class="cls-3" d="M94.6,152.6l-35.3,6.9h0c0,.1,25.8,13.4,25.8,13.4l-.4.9-26.8-13.9.6-1.2,35.3-6.9h0c0-.1-25.7-13.4-25.7-13.4l.4-.9,26.8,13.8-.5,1.3h-.2Z"/>
    <path class="cls-3" d="M116.7,118.5l-9-2.3-10.3,14.6,4.7,8.4-.6.9-16.5-29.5.7-1,31.5,8-.6.9h.1ZM85.9,110.6l11.1,19.5,9.9-14.1s-21-5.4-21-5.4Z"/>
    <path class="cls-3" d="M108.6,83l20.8,21.3-.7.7-20.8-21.3-7.1,7.6-.6-.6,14.9-15.9.6.6s-7.1,7.6-7.1,7.6Z"/>
    <path class="cls-3" d="M159.7,69c.5,1.4.8,2.9.7,4.5,0,1.5-.5,3-1.3,4.4-2,3.2-5.1,5.6-8.6,6.6-1.4.4-2.9.4-4.4,0-1.4-.4-2.7-1.1-3.9-2.1-1.2-1.1-2.4-2.3-3.3-3.6l-11-15.7.7-.6,10.9,15.5c.8,1.1,1.6,2,2.5,2.9,1,1,2.1,1.7,3.4,2.2,1.4.5,2.8.7,4.2.4,3.7-.9,6.8-3.3,8.8-6.7.7-1.3,1-2.8.9-4.3,0-1.4-.4-2.8-1-4.1-.6-1.2-1.2-2.4-2-3.5l-10.9-15.5.7-.6,11,15.7c.9,1.3,1.7,2.8,2.3,4.3l.3.2Z"/>
    <path class="cls-3" d="M192.8,57.7l-14.9-9.8-6.3,3.3,6.8,14.1-.8.4-13.5-27.9,7.4-3.9c1-.5,2-1,3.1-1.3,1-.3,2.1-.5,3.2-.4,1.1,0,2.1.5,3,1.1,1.1.8,1.9,1.8,2.4,3.1.6,1.1.9,2.4.9,3.7s-.3,2.1-.8,3.1c-.5.9-1.2,1.8-1.9,2.5-.8.7-1.6,1.3-2.5,1.8l14.9,9.8-.9.5h0ZM182.4,36.8c-.5-1.1-1.2-2-2.1-2.7-.8-.6-1.7-.9-2.7-1-1,0-2,0-3,.4-1.1.3-2.1.8-3.1,1.3l-6.1,3.2,6,12.4,6.5-3.4c2.5-1.3,4.1-2.8,4.9-4.6.8-1.8.7-3.9-.3-5.6h0Z"/>
    <path class="cls-3" d="M228,44.6l-6-7.5-16.6,5.4-.9,9.7-.9.3,3.4-33.9,1.1-.4,20.8,26-1,.3h0ZM207.7,19.1l-2.2,22.6,16-5.2-13.8-17.4Z"/>
    <path class="cls-3" d="M241.4,41.6l-4.8-30.9.9-.2,4.7,30,14.7-2.5v.9c.1,0-15.5,2.7-15.5,2.7Z"/>
    <path class="cls-3" d="M304,31.2c0,1.2-.4,2.4-.9,3.5-.5,1-1.2,1.8-2.1,2.5s-1.9,1.2-3,1.4c-1.1.3-2.3.4-3.5.3-1.7,0-3.5-.5-5-1.4-1.4-.7-2.7-1.8-3.7-3l.8-.6c1,1.2,2.2,2.3,3.6,2.9,1.4.7,2.8,1.1,4.4,1.2,1.1,0,2.1,0,3.2-.3,1-.3,1.9-.7,2.7-1.3.8-.6,1.5-1.3,1.9-2.2.5-1,.8-2.1.8-3.2s0-2.1-.5-3.1c-.4-.9-1-1.6-1.7-2.2-.8-.7-1.6-1.2-2.5-1.6-.9-.5-1.9-.9-2.9-1.3-1.2-.5-2.3-1-3.3-1.5-.9-.5-1.8-1.1-2.6-1.8-.7-.7-1.2-1.5-1.6-2.5-.4-1.1-.5-2.3-.4-3.4,0-2.4,1.2-4.6,3.1-5.9.9-.7,1.9-1.1,3-1.4,1.2-.3,2.4-.4,3.6-.3,1.5,0,2.9.5,4.3,1.2,1.3.7,2.4,1.6,3.2,2.8l-.8.6c-.7-1.1-1.7-2-2.9-2.6-1.2-.7-2.6-1-3.9-1.1-1,0-2,0-3,.3-1,.2-1.9.6-2.7,1.2-.8.5-1.5,1.3-2,2.2-.6,1-.9,2-.9,3.2s0,2.1.5,3.1c.4.9.9,1.6,1.6,2.2s1.5,1.2,2.3,1.6c.9.4,1.7.8,2.7,1.2,1.2.5,2.4,1.1,3.5,1.6,1,.5,2,1.1,2.8,1.8.8.7,1.4,1.5,1.8,2.5.4,1.1.6,2.3.5,3.4h-.4Z"/>
    <path class="cls-3" d="M355,51.3l10.3-29.4.9.3-10.3,29.4-.9-.3Z"/>
    <path class="cls-3" d="M391.2,68.9l-5.5-37.1h-.1l-13.4,26.5-.8-.5,14-27.7,1.2.6,5.6,37h.1l13.4-26.5.8.5-14,27.6-1.2-.6v.2Z"/>
    <path class="cls-3" d="M421.5,91.4c-1.9-.6-3.7-1.6-5.3-2.9-1.7-1.3-3.1-3-4.1-5-1-1.8-1.6-3.8-1.8-5.8-.2-2.1,0-4.2.6-6.2,1.4-4.3,4.2-8,7.9-10.4,1.7-1.1,3.6-1.8,5.6-2.1s3.9,0,5.8.4c2,.6,3.9,1.6,5.6,3,1.5,1.2,2.7,2.6,3.7,4.3,1,1.6,1.6,3.4,1.7,5.3l-.9.2c0-.9-.3-1.8-.6-2.6-.3-.9-.7-1.7-1.1-2.5s-1-1.5-1.5-2.2c-.6-.6-1.2-1.2-1.8-1.8-1.6-1.3-3.4-2.3-5.3-2.8-1.8-.5-3.7-.6-5.5-.3-1.9.3-3.6,1-5.2,2-1.7,1.1-3.2,2.5-4.4,4.1-1.2,1.6-2.2,3.5-2.8,5.5-.6,1.9-.8,3.8-.7,5.8.1,1.9.7,3.8,1.6,5.5,1,1.9,2.3,3.5,3.9,4.8,1.5,1.2,3.2,2.1,5,2.7s3.7.7,5.5.3v1c-1.8.5-3.8.4-5.7-.2h-.2Z"/>
    <path class="cls-3" d="M448.9,121.2l4-8.8-11.6-13.5-8.8,3.1-.7-.8,30.9-10.9.8.9-13.9,30.6-.7-.8v.2ZM462.6,91.3l-20.5,7.4,11.2,13,9.3-20.4Z"/>
    <path class="cls-3" d="M466.1,147.7l7.8-16.5-3.8-6.2-12.7,8.6-.5-.8,25.1-17,4.5,7.3c.6,1,1.1,2,1.6,3.1.5,1,.7,2.1.8,3.3,0,1.1-.2,2.2-.7,3.2-.6,1.2-1.5,2.2-2.7,2.8-1,.7-2.2,1.2-3.4,1.3-1,0-2.1-.1-3-.5-1-.4-1.8-1-2.6-1.8-.7-.7-1.4-1.5-2-2.4l-7.8,16.6-.6-.9h0ZM484.9,134.7c1-.6,1.8-1.5,2.3-2.5.4-.9.7-1.9.6-2.9,0-1.1-.3-2.1-.7-3.1-.4-1.1-.9-2.1-1.5-3.1l-3.8-6-11.1,7.5,4,6.4c1.5,2.4,3.1,4,4.9,4.6s3.8.3,5.3-.8h0Z"/>
    <path class="cls-3" d="M473.5,162l27.3-12.8,7.1,16.7-.8.4-6.8-15.7-12,5.6,6.4,14.8-.8.4-6.4-14.8-13,6.1,7,16.4-.8.4-7.4-17.4h.2Z"/>
    <path class="cls-3" d="M439.1,549.4c.7.8,1.2,1.8,1.5,2.8.2,1,.3,2,.1,2.9-.2,1-.5,2-1.1,2.9s-1.3,1.8-2.1,2.5c-1.2,1.1-2.5,1.9-4,2.4-1.3.5-2.7.6-4.1.4v-.9c1.5.2,2.9,0,4.2-.4,1.3-.4,2.5-1.1,3.5-2.1.7-.6,1.3-1.4,1.8-2.2s.8-1.7.9-2.6c.2-.9.1-1.8,0-2.7-.2-1-.7-1.8-1.3-2.6-.6-.7-1.3-1.3-2.2-1.6-.8-.3-1.6-.4-2.4-.3-.9,0-1.7.3-2.6.6s-1.7.7-2.6,1c-1.1.5-2.1.9-3,1.2s-1.8.5-2.7.5-1.7-.2-2.5-.6c-.9-.5-1.7-1.1-2.3-2-.7-.8-1.2-1.8-1.4-2.8-.2-1-.2-2,0-2.9.2-1,.6-2,1.1-2.8.6-.9,1.3-1.8,2.1-2.5,1-.9,2.2-1.6,3.4-2,1.2-.4,2.5-.5,3.7-.3v.9c-1.2-.2-2.4-.2-3.5.2-1.2.4-2.3,1-3.2,1.8-.7.6-1.3,1.3-1.8,2.1s-.8,1.6-1,2.5-.2,1.8,0,2.7c.2,1,.7,1.9,1.3,2.6.6.7,1.3,1.3,2.1,1.7.7.3,1.5.5,2.3.4.8,0,1.6-.2,2.4-.5s1.6-.6,2.4-.9c1.1-.5,2.2-.9,3.1-1.2s1.9-.5,2.9-.6c.9,0,1.8,0,2.6.4.9.4,1.7,1.1,2.3,1.9h.1Z"/>
    <path class="cls-3" d="M404.6,584.3c-1.1,1.5-2.5,2.7-4.1,3.6-1.6,1-3.4,1.6-5.3,1.8-3.5.4-7-.7-9.7-3.1-1.5-1.3-2.7-2.9-3.6-4.6-.9-1.7-1.6-3.7-1.9-5.6-.3-1.8-.2-3.7.3-5.5s1.2-3.4,2.3-4.9c1.2-1.5,2.6-2.8,4.2-3.8,1.4-.8,3-1.4,4.6-1.7s3.2-.2,4.7.3l-.2.8c-.7-.2-1.5-.4-2.3-.4-1.6,0-3.1.2-4.6.7-.7.3-1.4.6-2,1-1.6.9-2.9,2.1-4,3.6-1,1.4-1.7,3-2.1,4.6-.4,1.7-.5,3.5-.2,5.2.6,3.7,2.4,7,5.1,9.5,1.3,1.1,2.7,2,4.3,2.5,1.6.5,3.2.7,4.9.5,1.8-.2,3.5-.8,5.1-1.7,1.4-.9,2.7-2,3.8-3.4,1.1-1.3,1.8-3,2.1-4.7l.8.2c-.3,1.8-1.1,3.5-2.2,4.9v.2Z"/>
    <path class="cls-3" d="M360.3,606.4l-9-26.2.8-.3,9,26.2-.8.3Z"/>
    <path class="cls-3" d="M329.4,615.8l-23.2-22.9h-.1l4.4,26.3h-.8c0,0-4.6-27.2-4.6-27.2l1.1-.2,23.2,22.8h.1l-4.4-26.3h.8c0,0,4.6,27.2,4.6,27.2l-1.2.2h.1Z"/>
    <path class="cls-3" d="M280.2,621.6l-2.9-8.1-15.4-.6-3.5,7.9h-.9l12.6-27.4h1.1l10.1,28.2h-1.1ZM270.4,593.9l-8.2,18.2,14.9.6-6.7-18.8h0Z"/>
    <path class="cls-3" d="M229.8,588.7l-5.7,26.3-.8-.2,5.7-26.4-8.8-2.1.2-.8,18.5,4.4-.2.8-8.8-2.1h0Z"/>
    <path class="cls-3" d="M194,591.4c-.8,1.8-1.9,3.5-3.3,4.9-1.3,1.3-2.8,2.3-4.4,2.9-1.6.7-3.4,1-5.2.9-3.8-.2-7.3-1.9-9.9-4.7-1.2-1.3-2.1-2.9-2.7-4.7-.6-1.7-.8-3.6-.8-5.5.2-4.1,1.9-7.9,4.7-10.8,1.3-1.3,2.8-2.3,4.4-2.9,1.6-.7,3.4-1,5.1-.9,3.8.2,7.3,1.9,9.9,4.7,2.4,2.7,3.7,6.4,3.5,10.1,0,2-.6,4-1.4,5.9h0ZM193.2,591.1c.8-1.7,1.2-3.5,1.3-5.4.1-1.8-.1-3.5-.7-5.2-.5-1.7-1.4-3.2-2.5-4.5-2.4-2.7-5.8-4.4-9.4-4.5-1.7,0-3.3.3-4.9.9-1.6.7-3,1.6-4.2,2.9-1.3,1.3-2.3,2.8-3,4.5-.8,1.7-1.2,3.5-1.3,5.4-.1,1.7,0,3.5.6,5.2.5,1.6,1.4,3.2,2.5,4.5,1.2,1.4,2.7,2.5,4.4,3.3,1.6.8,3.4,1.3,5.2,1.3s3.3-.3,4.9-1c1.5-.7,2.9-1.6,4.1-2.9,1.2-1.3,2.2-2.8,3-4.5h0Z"/>
    <path class="cls-3" d="M143,570.3c-.7,1.1-1.6,1.9-2.8,2.4-.9.4-1.9.6-2.9.5-1,0-2-.4-2.9-.8-.9-.4-1.7-.9-2.5-1.6l-6.5-5.1,15.9-22.3,5.8,4.5c.8.6,1.5,1.3,2.2,2.1.6.7,1.2,1.6,1.5,2.5s.5,1.8.4,2.8c-.2,1.1-.6,2.1-1.2,3-.5.7-1.1,1.3-1.9,1.8-.6.4-1.3.6-2.1.7h-2.1c-.7,0-1.4-.4-2-.7h0c.5.6,1,1.2,1.4,1.9s.8,1.6.9,2.4c.2.9.2,1.9,0,2.8-.2,1.1-.6,2.1-1.3,3h.1ZM142.3,569.9c.7-.9,1.1-1.9,1.3-3,.1-1,0-2-.3-2.9s-.7-1.8-1.3-2.5c-.5-.7-1.2-1.4-1.9-2l-5.9-4.6-7.7,10.8,5.6,4.4c.9.7,1.8,1.3,2.8,1.7.9.4,1.8.6,2.7.7.9,0,1.7-.2,2.5-.6.9-.5,1.6-1.2,2.2-2h0ZM149.2,558c.6-.8,1-1.7,1.1-2.7,0-.8,0-1.7-.3-2.5s-.8-1.6-1.4-2.3c-.6-.7-1.4-1.4-2.1-2l-5-3.9-6.9,9.6,5.1,4c.7.6,1.5,1,2.3,1.4s1.7.6,2.5.6,1.7,0,2.4-.4c.8-.4,1.6-1,2.1-1.8h.2Z"/>
    <path class="cls-3" d="M330.9,26.1l16-10.1,1.1.3-16.1,10,8.2,20.2-1.1-.3-8.1-20.1h0l-4.6,16.1-.7-.2,8.5-30,.7.2-3.9,13.7h0v.2Z"/>
  </g>
</svg>