<?xml version="1.0" encoding="UTF-8"?>
<svg id="Layer_2" data-name="Layer 2" xmlns="http://www.w3.org/2000/svg" viewBox="0 0 206.38 206.4">
  <defs>
    <style>
      .cls-1 {
        fill: #d8ebe5;
      }
      svg path {
        fill: #3c2415;
      }
    </style>
  </defs>
  <g id="_ëîé_1" data-name="‘ëîé_1">
    <g>
      <path d="M206.38,53.88v98.63c0,29.71-24.17,53.88-53.87,53.88H53.87c-29.71,0-53.87-24.18-53.87-53.88V53.88C0,24.18,24.17,0,53.87,0h98.63c29.71,0,53.87,24.18,53.87,53.88Z"/>
      <path class="cls-1" d="M175.1,60.44c-3.01,4.21-6.32,7.99-10.15,11.48-4.11,3.74-3.38,6.28-3.79,11.39-.61,7.68-2.19,15.1-4.7,22.38-4.93,14.31-13.84,27.02-25.32,36.81-27.54,23.48-70.03,24.48-100.24,5.76,22.25,.95,32.23-3.63,43.81-12.19-11.64-1.68-22.08-4.79-27.79-20.75,5.59,1.53,9.58,.79,13-.17-10.74-3.41-23.34-8.61-23.34-29.25,4.55,2.73,10.7,3.91,13.37,3.53-14.46-10.05-15.64-26.85-9.06-39.37,9.3,13.88,43.67,33.35,59.31,29.92-1.74-14.04,5.82-28.26,19.74-33.01,7.85-2.67,15.64-2.48,23.37,.54,3.01,1.19,6.05,3.15,8.36,5.43,.4,.39,.67,.68,1.2,.79,.34,.07,.69,.04,1.02-.05,5.41-1.53,13.88-5.25,16.25-6.59,.93-.53-4.79,13.07-12.61,16.38,3.51-.79,11.79-3.3,15.18-4.73,.67-.28,1.44-.46,1.98-.26,.78,.24,1.12,.99,.41,1.95Z"/>
    </g>
  </g>
</svg>
